{"glyphs":{"0":{"ha":674,"x_min":-11,"x_max":692,"o":"m 140 482 q 270 598 200 553 q 403 657 340 643 q 518 663 465 671 q 603 621 571 656 q 639 533 636 586 q 672 531 647 533 q 661 379 692 476 q 571 188 631 282 q 422 20 511 93 q 250 -60 333 -53 q 53 15 118 -69 q 13 231 -11 99 q 140 482 36 363 m 279 503 q 197 327 214 428 q 223 159 181 226 q 351 107 265 92 q 480 227 408 117 q 557 444 551 338 q 501 418 521 421 q 419 545 494 515 q 279 503 344 575 z "},"1":{"ha":472,"x_min":43,"x_max":489,"o":"m 300 669 q 419 699 357 700 q 489 661 481 699 q 322 266 399 483 q 238 -58 244 49 q 216 -75 228 -68 q 193 -85 204 -82 q 171 -90 182 -87 q 149 -91 160 -92 q 131 -90 139 -90 q 118 -89 124 -89 l 113 -87 q 211 456 144 238 q 101 339 163 396 q 59 382 75 346 q 47 464 43 418 q 261 597 133 482 q 300 669 281 638 z "},"2":{"ha":622,"x_min":-146,"x_max":647,"o":"m 217 65 q 320 76 256 68 q 415 87 385 83 q 490 86 446 90 q 465 -7 496 51 q 393 -92 435 -65 q 76 -39 211 -21 q -106 -75 -44 -96 q -115 -21 -144 -58 q -56 24 -92 7 q 3 44 -19 40 q 67 51 25 47 q 372 308 264 174 q 433 494 481 442 q 319 489 399 532 q 142 321 239 446 q 83 371 106 333 q 81 465 61 408 q 242 601 158 546 q 396 680 325 657 q 524 695 467 703 q 608 649 581 688 q 609 483 647 582 q 464 270 571 385 q 217 65 357 156 z "},"3":{"ha":642,"x_min":-32,"x_max":696,"o":"m 192 692 q 538 650 404 646 q 639 692 596 686 q 693 668 696 699 q 636 610 692 638 q 547 585 596 590 q 524 582 526 582 q 451 513 499 560 q 379 443 403 465 q 574 333 569 463 q 501 142 575 244 q 316 -26 426 39 q 115 -79 206 -90 q 25 -42 60 -71 q -21 25 -10 -12 q -31 99 -32 63 q -19 164 -29 135 q 88 231 24 204 q 167 243 151 257 q 126 106 129 163 q 144 28 124 50 q 199 7 165 6 q 316 84 254 10 q 379 265 378 158 q 297 365 381 336 q 282 355 293 363 q 267 344 271 347 q 167 332 194 308 q 181 381 146 350 q 256 418 207 403 l 276 424 q 431 567 404 544 q 139 529 178 525 q 153 620 132 571 q 192 692 174 669 z "},"4":{"ha":657,"x_min":-81,"x_max":722,"o":"m 439 626 q 320 433 404 572 q 190 232 236 293 q 336 231 265 239 q 540 710 435 571 q 659 728 599 738 q 722 678 719 719 q 475 207 581 450 q 563 171 531 190 q 496 74 560 124 l 431 96 q 382 -62 393 4 q 342 -84 365 -78 q 303 -88 319 -90 q 272 -83 286 -86 l 257 -81 q 306 125 286 49 q 115 144 207 144 q -1 64 56 85 q -68 78 -57 44 q -25 160 -79 115 q 35 197 0 181 q 128 393 88 288 q 172 532 168 499 q 254 593 208 568 q 337 628 300 618 q 402 637 374 638 q 439 626 431 636 z "},"5":{"ha":619,"x_min":-32,"x_max":631,"o":"m 594 690 q 623 636 615 674 q 618 550 631 599 q 447 520 561 521 q 251 536 333 519 q 236 418 256 481 q 325 436 240 419 q 564 357 528 471 q 506 133 592 265 q 303 -53 422 6 q 217 -81 258 -74 q 23 -24 78 -101 q 0 186 -32 54 q 163 249 96 271 q 122 78 117 131 q 229 10 131 -1 q 327 53 282 15 q 390 142 372 92 q 402 240 407 192 q 347 319 397 289 q 207 343 296 350 q 160 305 188 313 q 115 311 133 297 q 99 347 96 325 q 168 400 100 374 q 154 560 168 463 l 139 568 q 107 636 90 603 q 164 658 122 667 q 204 638 185 653 q 224 615 210 632 q 594 690 410 635 z "},"6":{"ha":597,"x_min":-33,"x_max":611,"o":"m 550 535 q 504 539 535 539 q 424 531 474 539 q 316 490 374 524 q 215 397 258 456 q 286 428 256 415 q 540 414 481 500 q 528 218 589 344 q 381 33 479 118 q 259 -40 324 -17 q 140 -58 194 -64 q 42 -28 85 -53 q -17 44 0 -4 q -18 150 -33 92 q 47 312 4 233 q 157 470 89 390 q 331 617 225 550 q 571 726 438 685 q 550 535 611 610 m 144 257 q 148 76 107 142 q 258 33 189 11 q 346 149 314 51 q 351 314 382 251 q 282 350 332 357 q 144 257 196 335 z "},"7":{"ha":543,"x_min":-22,"x_max":729,"o":"m 547 654 q 696 682 647 708 q 706 629 728 664 q 574 565 675 582 q 327 267 463 463 q 138 -65 192 72 q 41 -54 90 -79 q -22 19 -8 -29 q 166 253 10 82 q 476 554 322 424 q 233 549 351 543 q 69 578 115 556 q 133 665 89 617 q 208 731 176 714 q 547 654 383 643 z "},"8":{"ha":639,"x_min":-49,"x_max":631,"o":"m 435 692 q 631 639 561 699 q 581 556 597 572 q 596 550 590 553 l 599 550 q 555 490 581 513 q 489 444 529 467 q 574 406 540 432 q 617 341 607 381 q 610 253 626 301 q 542 140 594 204 q 406 6 490 76 q 122 -118 260 -117 q -22 -39 11 -119 q -10 122 -49 25 q 190 351 47 260 q 153 421 158 378 q 169 508 149 464 q 227 594 190 553 q 319 662 264 635 q 435 692 375 689 m 258 319 q 133 147 150 250 q 175 26 119 64 q 279 15 217 -1 q 374 61 331 29 q 437 133 417 93 q 454 210 457 172 q 406 279 451 249 q 276 319 360 310 q 260 322 268 319 l 258 319 m 390 461 q 522 549 483 513 q 451 615 519 599 q 335 585 379 631 q 322 503 294 543 q 390 461 340 474 z "},"9":{"ha":583,"x_min":7,"x_max":604,"o":"m 124 14 q 360 238 239 71 q 334 226 350 233 q 311 215 318 218 q 57 229 117 143 q 69 425 8 299 q 217 610 118 525 q 405 697 311 692 q 551 642 499 703 q 593 482 604 581 q 472 170 575 322 q 236 -85 368 18 q 124 14 124 -76 m 315 294 q 426 353 378 301 q 453 499 458 438 q 415 593 449 561 q 339 610 382 625 q 250 494 283 592 q 246 329 215 390 q 315 294 267 288 z "}," ":{"ha":414,"x_min":0,"x_max":0,"o":""},"!":{"ha":303,"x_min":-72,"x_max":385,"o":"m 78 235 q 164 119 142 179 q 103 74 143 113 q 38 1 63 36 q -72 85 -44 33 q 78 235 -28 176 m 69 307 q 189 936 53 585 q 294 944 235 956 q 385 897 353 932 q 238 634 317 801 q 129 329 158 467 q 69 307 97 303 z "},"\"":{"ha":499,"x_min":51,"x_max":507,"o":"m 507 850 q 416 707 461 811 q 375 528 371 603 q 283 513 347 500 q 263 613 271 540 q 268 804 256 685 q 199 671 229 754 q 172 528 168 588 q 81 513 142 500 q 65 572 72 528 q 54 690 57 615 q 69 846 51 765 q 290 857 190 933 q 507 850 410 932 z "},"#":{"ha":758,"x_min":-40,"x_max":772,"o":"m 651 554 q 640 506 646 539 q 763 486 708 500 q 733 379 772 429 q 611 393 694 386 q 543 179 589 307 q 650 163 594 175 q 624 57 663 108 q 496 71 585 64 q 444 -29 467 7 q 381 -42 400 -44 q 342 -24 361 -40 q 363 22 347 -11 q 386 74 378 54 q 228 71 335 76 q 178 -29 203 13 q 114 -42 133 -44 q 75 -24 94 -40 q 108 56 96 18 q -26 26 36 44 q -10 107 -40 67 q 71 175 19 147 q 160 183 149 183 q 222 379 183 246 q 83 351 154 369 q 101 431 72 392 q 181 499 131 471 l 246 506 q 258 619 256 561 q 338 620 306 640 q 385 554 371 600 q 375 514 382 544 q 514 514 449 517 q 525 619 524 576 q 607 619 574 640 q 651 554 640 599 m 279 190 q 431 190 358 192 q 492 399 469 306 q 343 392 407 399 q 279 190 326 331 z "},"$":{"ha":883,"x_min":-68,"x_max":924,"o":"m 703 801 q 796 810 765 821 q 831 769 826 799 q 765 692 797 732 q 924 649 842 682 q 865 579 918 624 q 765 524 813 535 q 699 601 749 576 q 583 413 632 503 q 628 396 594 408 q 675 378 661 383 q 717 359 689 372 q 759 337 746 346 q 792 313 772 328 q 820 283 813 299 q 835 249 828 268 q 838 208 842 231 q 825 161 835 186 q 629 -69 768 24 q 325 -197 490 -162 q 310 -276 314 -247 q 217 -290 243 -328 q 235 -210 224 -242 q 62 -197 133 -218 q -39 -125 -10 -176 q -31 10 -68 -74 q 128 144 14 106 q 354 154 243 183 q 419 297 407 274 q 280 392 321 340 q 276 531 239 443 q 409 649 310 603 q 635 700 508 694 q 703 801 669 753 m 217 49 q 192 42 217 49 q 156 3 168 35 q 176 -46 143 -29 q 274 -64 210 -62 q 294 -8 281 -47 q 315 53 307 32 q 217 49 265 64 m 368 -54 q 411 -46 383 -54 q 392 3 411 -10 q 378 -28 385 -8 q 368 -54 371 -49 m 435 117 q 515 -12 503 72 q 632 74 594 21 q 660 140 658 111 q 635 192 661 169 q 582 230 610 215 q 504 264 554 244 l 435 117 m 444 519 q 494 451 443 479 q 590 625 525 510 q 488 596 531 624 q 444 519 446 568 z "},"%":{"ha":799,"x_min":-10,"x_max":856,"o":"m 743 674 q 828 637 801 665 q 851 581 856 608 q 590 382 738 510 q 670 360 640 383 q 701 292 700 336 q 715 291 707 292 q 725 290 722 290 q 703 140 743 238 q 583 -38 663 43 q 426 -126 504 -119 q 292 -77 335 -133 q 261 71 249 -21 q 79 -139 144 -50 q -10 -104 3 -154 q 192 161 63 11 q 76 226 113 165 q 60 374 40 286 q 149 543 79 463 q 242 625 192 593 q 335 667 292 657 q 417 671 379 676 q 477 641 454 665 q 501 579 500 617 q 515 578 507 579 q 526 578 522 578 q 522 494 535 547 q 743 674 660 619 m 246 558 q 186 432 197 504 q 206 312 175 360 q 297 276 236 264 l 400 381 q 446 518 442 454 q 406 499 421 504 q 346 590 400 568 q 246 558 292 611 m 415 225 q 392 57 368 139 q 497 -11 417 -25 q 591 77 540 -3 q 646 233 642 157 q 607 213 621 217 q 571 288 601 261 q 503 306 540 314 l 415 225 z "},"&":{"ha":1240,"x_min":-315,"x_max":1313,"o":"m 1288 524 q 1310 445 1313 490 q 1293 361 1308 400 q 1256 296 1278 322 q 810 268 1033 249 q 726 136 775 197 q 1119 99 931 72 q 1085 -24 1118 44 q 983 -139 1053 -93 q 815 -94 915 -135 q 610 15 714 -53 q 359 -145 494 -85 q 105 -208 224 -206 q -90 -139 -14 -211 q 263 385 -315 88 q 316 674 206 551 q 632 786 426 796 q 801 693 775 779 q 744 531 824 617 q 546 413 669 451 q 411 357 465 383 q 436 318 417 340 q 639 169 508 228 q 721 281 683 221 q 643 311 656 296 q 706 404 661 369 q 997 418 801 369 q 1288 524 1192 467 m 144 0 q 322 -31 219 -51 q 531 69 424 -11 q 367 215 432 144 q 300 301 328 256 q 162 195 214 249 q 99 90 110 142 q 144 0 89 38 m 383 442 q 458 479 439 468 q 583 589 560 532 q 539 653 604 640 q 429 597 485 663 q 383 442 374 531 z "},"'":{"ha":294,"x_min":50,"x_max":303,"o":"m 303 849 q 212 706 257 811 q 172 528 167 601 q 81 513 142 500 q 65 572 72 529 q 53 690 57 615 q 69 846 50 765 q 303 849 199 938 z "},"(":{"ha":571,"x_min":58,"x_max":738,"o":"m 485 -226 q 435 -272 471 -251 q 365 -293 400 -293 q 103 61 147 -124 q 201 449 58 246 q 676 858 343 653 q 738 797 719 858 q 538 615 632 719 q 381 392 444 511 q 297 160 318 274 q 321 -57 275 47 q 485 -226 367 -161 z "},")":{"ha":572,"x_min":-165,"x_max":514,"o":"m 88 790 q 137 837 101 815 q 208 858 172 858 q 470 503 426 689 q 372 115 514 318 q -104 -293 229 -89 q -165 -233 -149 -293 q 35 -48 -60 -156 q 193 181 129 60 q 278 417 257 303 q 253 633 300 532 q 88 790 207 733 z "},"*":{"ha":735,"x_min":4,"x_max":728,"o":"m 379 632 q 372 541 364 601 q 407 432 379 481 q 576 678 475 567 q 678 657 633 685 q 728 546 722 629 q 628 495 692 538 q 513 399 565 453 q 694 375 613 394 q 667 269 707 321 q 475 286 593 282 q 586 158 549 226 q 512 79 564 113 q 375 50 460 46 q 383 139 392 76 q 347 251 375 201 q 181 11 283 122 q 80 33 125 4 q 29 146 35 61 q 123 190 64 153 q 233 279 182 228 q 17 240 113 268 q 33 320 4 281 q 114 388 63 360 q 275 400 222 399 q 169 522 208 453 q 244 601 193 567 q 379 632 296 635 z "},"+":{"ha":811,"x_min":38,"x_max":735,"o":"m 547 554 q 493 349 518 422 q 728 321 631 344 q 728 262 735 282 q 700 215 722 242 q 457 233 589 233 q 340 -29 400 72 q 239 -24 274 -54 q 340 231 300 111 q 50 186 164 218 q 67 265 38 225 q 147 333 97 304 q 376 350 261 347 q 421 619 419 500 q 502 620 469 640 q 547 554 535 600 z "},",":{"ha":292,"x_min":-8,"x_max":276,"o":"m 189 235 q 276 118 256 179 q 174 -13 246 50 q 21 -121 103 -76 q -3 -75 -8 -99 q 103 24 60 -31 q 39 85 58 50 q 189 235 83 176 z "},"-":{"ha":736,"x_min":79,"x_max":628,"o":"m 182 365 q 439 386 318 392 q 628 349 560 381 q 586 200 626 265 q 450 226 529 219 q 269 217 371 232 q 83 161 167 201 q 109 272 79 217 q 182 365 139 326 z "},".":{"ha":293,"x_min":24,"x_max":261,"o":"m 174 235 q 261 119 240 178 q 199 74 240 113 q 133 1 157 36 q 24 85 53 33 q 174 235 71 176 z "},"/":{"ha":697,"x_min":-204,"x_max":972,"o":"m 857 876 q 947 847 922 878 q 960 778 972 815 q 347 268 679 613 q -107 -287 14 -76 q -169 -299 -137 -304 q -204 -261 -201 -293 q 78 119 -87 -76 q 399 467 243 315 q 670 721 554 618 q 857 876 786 824 z "},":":{"ha":293,"x_min":-18,"x_max":303,"o":"m 132 235 q 219 117 199 179 q 158 76 200 114 q 92 1 117 38 q -18 85 13 32 q 132 235 25 175 m 64 393 q 214 542 107 483 q 303 424 283 485 q 241 382 282 419 q 174 308 200 344 q 64 393 96 340 z "},";":{"ha":293,"x_min":-49,"x_max":318,"o":"m 147 235 q 235 118 214 182 q 133 -13 204 50 q -21 -121 63 -76 q -44 -75 -49 -100 q 63 24 13 -36 q -1 85 14 56 q 147 235 44 178 m 81 392 q 231 542 124 482 q 318 424 297 486 q 257 383 299 421 q 190 308 215 344 q 81 392 111 339 z "},"<":{"ha":567,"x_min":33,"x_max":582,"o":"m 303 -35 q 225 113 324 10 q 33 264 126 217 q 189 412 44 300 q 457 574 333 524 q 545 538 522 563 q 582 449 568 513 q 414 400 519 457 q 225 267 308 343 q 474 47 331 197 q 419 -4 451 11 q 303 -35 386 -19 z "},"=":{"ha":846,"x_min":25,"x_max":776,"o":"m 135 278 q 466 294 308 299 q 715 265 624 290 q 715 207 721 226 q 688 160 710 188 q 392 178 596 182 q 38 131 188 174 q 55 209 25 169 q 135 278 85 249 m 93 339 q 110 417 81 378 q 190 486 140 457 q 522 503 364 507 q 771 474 679 499 q 771 415 776 435 q 743 368 765 396 q 447 386 651 390 q 93 339 243 382 z "},">":{"ha":568,"x_min":-15,"x_max":535,"o":"m 265 572 q 343 424 244 528 q 535 272 442 321 q 378 126 522 238 q 111 -36 233 15 q 23 0 46 -25 q -15 89 0 25 q 153 139 47 82 q 342 271 260 196 q 92 490 228 347 q 149 542 115 526 q 265 572 182 557 z "},"?":{"ha":556,"x_min":7,"x_max":638,"o":"m 157 235 q 244 119 222 181 q 182 74 224 113 q 117 1 140 36 q 7 86 40 32 q 157 235 50 176 m 75 618 q 222 857 76 747 q 476 964 344 950 q 631 900 604 979 q 636 865 636 883 q 613 749 638 803 q 549 658 589 696 q 462 588 510 621 q 366 525 414 554 q 279 465 318 496 q 218 396 240 435 q 199 311 196 357 q 131 308 156 292 q 144 426 117 374 q 219 514 171 478 q 319 585 268 550 q 408 667 369 619 q 449 771 447 714 q 392 858 450 850 q 283 811 335 865 q 236 674 226 753 q 75 618 151 610 z "},"@":{"ha":1072,"x_min":-90,"x_max":1032,"o":"m 618 768 q 922 701 811 778 q 1026 496 1032 625 q 961 283 1024 389 q 817 110 899 178 q 653 13 736 43 q 524 11 569 -18 q 510 26 515 17 q 504 58 506 36 q 503 89 503 79 q 504 129 503 99 q 402 46 453 72 q 313 23 351 19 q 248 51 275 26 q 210 115 221 75 q 209 208 200 154 q 249 315 218 261 q 466 533 333 463 q 699 574 599 604 q 625 467 693 513 q 462 432 536 475 q 356 308 388 389 q 358 217 336 261 q 422 165 379 174 q 514 192 464 157 q 567 339 531 268 q 649 447 603 410 q 711 467 697 488 q 664 339 726 442 q 671 201 654 254 q 753 164 689 143 q 869 271 821 186 q 913 451 918 354 q 820 624 906 558 q 594 689 735 689 q 256 531 415 689 q 75 231 118 396 q 129 -39 29 51 q 383 -106 213 -115 q 550 -74 489 -101 q 546 -137 569 -100 q 376 -165 464 -161 q -8 -14 92 -176 q -22 304 -89 117 q 215 619 43 489 q 618 768 396 756 z "},"A":{"ha":1376,"x_min":-165,"x_max":1438,"o":"m 68 -287 q -79 -264 -7 -303 q -165 -167 -151 -225 q 332 376 -25 46 q 26 338 168 372 q 93 494 13 404 q 449 482 201 522 q 1121 963 842 825 q 1164 892 1161 938 l 1156 886 l 1161 886 q 1044 642 1093 768 q 974 414 994 517 q 960 235 953 311 q 1004 135 967 158 q 1193 166 1079 88 q 1376 388 1307 244 l 1438 347 q 1331 176 1394 251 q 1199 58 1267 100 q 1063 -7 1131 15 q 937 -25 994 -29 q 842 4 879 -21 q 817 317 747 67 q 526 374 707 358 q 232 18 356 194 q 68 -287 108 -158 m 604 453 q 842 396 724 428 q 1028 807 904 576 q 604 453 814 660 z "},"B":{"ha":1394,"x_min":69,"x_max":1343,"o":"m 635 -179 q 481 -178 560 -186 q 328 -141 403 -169 q 195 -69 253 -112 q 103 45 138 -25 q 72 200 69 115 q 156 231 103 222 q 256 226 208 240 q 258 78 235 149 q 342 -37 281 8 q 503 -100 404 -83 q 731 -89 601 -117 q 906 -21 838 -65 q 997 74 975 24 q 1014 179 1019 125 q 976 279 1008 233 q 896 356 944 325 q 647 356 776 336 q 519 -22 546 163 q 420 -3 475 -33 q 357 65 365 26 q 423 225 371 131 q 535 409 475 319 q 667 632 594 499 q 783 893 739 765 q 872 890 811 901 q 939 865 932 879 q 887 738 925 806 q 783 574 849 671 q 683 418 718 478 q 897 422 799 397 q 1053 503 996 447 q 1138 626 1111 558 q 1142 767 1164 694 q 1054 892 1121 839 q 281 690 814 1079 q 217 741 242 706 q 192 831 192 776 q 369 908 300 879 q 560 975 439 938 q 775 1023 682 1013 q 982 1020 868 1033 q 1192 958 1096 1007 q 1308 848 1274 918 q 1329 703 1343 778 q 1259 555 1315 629 q 1113 429 1203 481 q 1199 305 1179 379 q 1185 153 1218 231 q 1083 4 1153 75 q 896 -117 1014 -67 q 635 -179 778 -167 z "},"C":{"ha":1156,"x_min":3,"x_max":1219,"o":"m 221 -69 q 18 294 3 57 q 192 693 29 494 q 547 958 347 881 q 957 933 781 1049 q 1020 833 1015 894 q 997 716 1025 771 q 940 597 969 661 q 910 500 910 532 q 779 497 869 483 q 667 551 689 510 q 726 639 682 590 q 811 722 771 688 q 874 795 851 756 q 875 864 896 835 q 777 917 840 910 q 643 897 714 924 q 499 812 572 869 q 371 678 425 754 q 265 451 299 574 q 258 213 232 328 q 378 40 285 97 q 526 -3 439 3 q 705 18 613 -8 q 885 94 797 44 q 1045 220 972 143 q 1157 388 1118 297 l 1219 349 q 1031 90 1156 203 q 767 -79 907 -24 q 479 -135 626 -135 q 221 -69 332 -135 z "},"D":{"ha":1529,"x_min":67,"x_max":1426,"o":"m 533 -22 q 434 -3 489 -33 q 371 65 379 26 q 437 225 385 131 q 549 409 489 319 q 680 632 608 499 q 796 893 751 765 q 885 890 825 901 q 953 864 946 878 q 894 729 938 804 q 799 577 851 654 q 692 413 746 500 q 595 211 639 325 q 533 -22 551 97 m 72 200 q 156 231 103 222 q 257 226 210 240 q 347 -40 211 63 q 731 -89 482 -142 q 912 -11 826 -68 q 1055 125 997 46 q 1154 297 1113 204 q 1208 485 1196 389 q 1209 665 1219 581 q 1154 819 1199 750 q 1039 924 1110 888 q 873 960 964 961 q 708 935 782 958 q 542 860 635 913 q 400 775 449 808 q 282 690 351 742 q 192 831 192 722 q 369 908 300 879 q 560 975 439 938 q 775 1023 682 1013 q 982 1020 868 1033 q 1192 958 1096 1007 q 1368 797 1310 899 q 1424 582 1426 696 q 1369 346 1421 468 q 1228 121 1317 224 q 1015 -59 1140 18 q 750 -162 889 -136 q 396 -167 549 -196 q 155 -42 243 -139 q 72 200 67 56 z "},"E":{"ha":1135,"x_min":-37,"x_max":1197,"o":"m 153 -85 q 19 19 67 -42 q -33 141 -28 79 q -16 265 -37 203 q 49 376 6 328 q 149 455 92 424 q 267 489 207 486 q 220 646 221 569 q 257 779 219 722 q 355 882 294 836 q 494 953 415 928 q 651 988 572 979 q 805 983 729 997 q 935 933 881 968 q 1006 841 993 894 q 1000 743 1018 788 q 960 642 982 699 q 939 554 938 586 q 808 551 897 538 q 696 604 719 564 q 747 684 710 643 q 815 748 785 725 q 862 804 844 771 q 854 864 879 838 q 773 905 828 899 q 654 886 718 911 q 531 816 590 861 q 432 694 472 771 q 389 531 392 618 q 608 525 536 549 q 663 443 679 501 q 592 382 651 404 q 455 372 533 360 q 322 431 376 383 q 208 309 242 389 q 206 147 175 229 q 325 18 236 64 q 481 -17 390 -15 q 669 11 572 -18 q 856 91 765 40 q 1022 219 947 142 q 1136 386 1097 297 l 1197 349 q 1051 135 1146 232 q 843 -22 957 38 q 606 -114 729 -82 q 365 -138 483 -146 q 153 -85 246 -131 z "},"F":{"ha":1335,"x_min":99,"x_max":1554,"o":"m 1161 297 q 789 369 1063 349 q 514 41 629 204 q 361 -242 399 -122 q 229 -221 294 -256 q 151 -133 164 -186 q 341 100 215 -37 q 621 378 467 238 q 108 338 310 385 q 176 494 99 410 q 719 467 300 525 q 1221 840 1000 710 q 724 860 1008 869 q 197 799 440 850 q 303 1014 181 894 q 759 1009 463 1047 q 1342 908 1056 971 l 1526 940 q 1521 778 1554 844 q 1347 821 1438 806 q 864 443 1113 686 q 1179 386 1026 417 q 1161 297 1179 328 z "},"G":{"ha":1074,"x_min":-71,"x_max":1075,"o":"m 354 -664 q 294 -575 299 -617 q 456 -43 365 -274 q 256 -119 349 -103 q 97 -103 164 -136 q -29 210 -71 -14 q 188 626 7 411 q 585 939 371 843 q 1008 933 832 1047 q 1071 833 1067 894 q 1047 715 1075 771 q 990 596 1019 660 q 961 500 960 532 q 830 497 919 483 q 718 551 740 510 q 763 623 731 585 q 828 690 796 661 q 892 752 861 718 q 932 810 924 786 q 925 864 940 835 q 827 917 890 910 q 694 897 764 924 q 550 812 624 869 q 422 678 476 754 q 319 510 365 597 q 242 335 272 424 q 217 172 211 246 q 271 60 222 97 q 365 32 306 33 q 501 63 425 31 q 743 428 614 313 q 915 317 840 410 q 592 -89 775 221 q 354 -664 410 -399 z "},"H":{"ha":1465,"x_min":-183,"x_max":1528,"o":"m 53 -322 q -95 -297 -22 -336 q -183 -200 -168 -257 q 164 52 -10 -97 q 471 378 338 201 q 121 338 283 375 q 188 494 107 404 q 543 482 296 522 q 733 972 699 726 q 894 936 806 990 q 678 457 839 729 q 892 407 761 442 q 1292 979 1000 719 q 1401 878 1353 967 q 1204 715 1289 808 q 1077 531 1119 621 q 1018 358 1035 440 q 1016 216 1001 275 q 1068 135 1031 157 q 1271 167 1144 88 q 1467 388 1397 247 l 1528 347 q 1417 176 1485 251 q 1278 58 1350 100 q 1135 -7 1207 15 q 1003 -25 1064 -29 q 906 4 943 -21 q 850 122 861 35 q 869 332 839 210 q 628 372 768 361 q 53 -322 371 -37 z "},"I":{"ha":729,"x_min":-93,"x_max":790,"o":"m -25 -160 q -92 -15 -92 -103 q -44 188 -93 74 q 67 424 6 303 q 192 706 129 544 q 276 1013 256 868 q 474 901 346 999 q 419 721 461 824 q 328 526 378 618 q 226 335 279 435 q 139 164 174 235 q 91 31 104 93 q 107 -49 78 -32 q 299 -37 169 -100 q 551 147 428 25 q 731 388 674 269 l 790 347 q 641 131 746 247 q 413 -70 536 15 q 170 -190 290 -156 q -25 -160 50 -224 z "},"J":{"ha":1113,"x_min":-153,"x_max":1254,"o":"m 504 -247 q 263 -351 396 -337 q 16 -304 129 -365 q -153 -124 -97 -243 q -101 -27 -146 -69 q 6 38 -57 15 q 213 -131 86 -97 q 464 -83 340 -165 q 740 244 604 14 q 975 821 876 475 q 208 733 713 840 q 313 947 189 828 q 1010 904 731 963 q 1193 999 1064 963 q 1240 888 1226 953 q 1240 768 1254 822 q 1064 810 1154 797 q 816 161 960 429 q 504 -247 672 -107 z "},"K":{"ha":1049,"x_min":-115,"x_max":1260,"o":"m 129 -114 q -19 -103 57 -136 q -115 -14 -96 -71 q 79 147 -15 57 q 272 363 174 238 q 436 647 371 488 q 513 971 501 806 q 675 949 581 992 q 533 550 646 803 q 846 744 672 603 q 1138 1053 1019 886 q 1191 983 1164 1033 q 1217 872 1218 932 q 983 683 1158 788 q 586 481 808 579 q 840 27 650 283 q 1260 -407 1031 -229 q 1161 -481 1225 -446 q 1014 -511 1097 -515 q 753 -160 897 -422 q 478 429 610 103 q 129 -114 303 71 z "},"L":{"ha":1015,"x_min":-190,"x_max":1199,"o":"m 1125 -375 q 644 -249 903 -292 q 154 -208 386 -207 q 71 -249 124 -224 q -11 -289 18 -275 q -78 -319 -40 -303 q -149 -343 -117 -335 q -151 -110 -190 -253 l 103 -97 q 268 140 190 13 q 392 367 346 268 q 498 569 439 465 q 616 752 557 674 q 770 901 675 831 q 989 1017 865 971 q 1125 955 1051 1013 q 1193 838 1199 897 q 943 757 1051 808 q 767 644 835 706 q 631 495 699 583 q 514 324 564 407 q 381 124 464 240 q 210 -92 299 7 q 1051 -114 813 -25 q 1122 -262 1106 -194 q 1125 -375 1139 -331 z "},"M":{"ha":1721,"x_min":-185,"x_max":1783,"o":"m 47 -325 q -99 -299 -25 -339 q -185 -203 -172 -260 q 40 -51 -71 -136 q 269 149 151 33 q 478 388 386 264 q 640 665 571 513 q 731 969 708 817 q 846 960 797 990 l 843 950 q 867 870 850 940 q 902 685 883 800 q 931 463 921 569 q 1210 742 1053 607 q 1528 961 1367 876 l 1547 979 q 1657 878 1608 967 q 1460 715 1544 808 q 1333 531 1375 621 q 1274 358 1290 440 q 1272 216 1257 275 q 1324 135 1286 157 q 1526 167 1400 88 q 1722 388 1653 247 l 1783 347 q 1673 176 1740 251 q 1534 58 1606 100 q 1391 -7 1463 15 q 1259 -25 1319 -29 q 1161 4 1199 -21 q 1101 147 1108 40 q 1151 415 1094 254 q 1322 733 1207 576 q 939 350 1121 575 q 882 51 946 108 q 758 22 804 -19 q 739 160 715 61 q 756 210 746 185 q 822 324 776 257 q 751 693 815 533 q 453 149 636 424 q 47 -325 271 -125 z "},"N":{"ha":1299,"x_min":-185,"x_max":1782,"o":"m 49 -325 q -98 -299 -25 -339 q -185 -203 -171 -260 q 100 -2 -40 -117 q 376 262 240 113 q 608 596 513 411 q 732 969 704 781 q 849 960 799 989 l 842 935 l 854 947 q 936 464 913 701 q 1280 811 1089 643 q 1643 1064 1471 979 q 1782 926 1710 1038 q 1524 835 1651 897 q 1289 689 1396 772 q 1100 526 1182 606 q 943 357 1018 446 q 882 51 953 115 q 758 22 804 -19 q 739 160 715 61 q 756 210 746 185 q 807 299 769 240 q 751 689 797 550 q 452 147 633 419 q 49 -325 271 -126 z "},"O":{"ha":1153,"x_min":6,"x_max":1065,"o":"m 364 39 q 543 19 454 -11 q 701 126 632 50 q 814 317 771 203 q 856 549 857 432 q 732 551 785 533 q 664 617 679 568 q 793 681 750 629 q 828 788 836 732 q 775 872 821 843 q 689 897 738 896 q 585 876 640 897 q 472 803 531 854 q 360 678 413 751 q 251 447 286 572 q 242 206 217 321 q 364 39 268 90 m 207 -72 q 53 86 100 -17 q 19 306 6 189 q 93 544 32 422 q 253 763 154 667 q 513 945 372 881 q 782 993 653 1010 q 997 824 935 972 q 997 453 1064 665 q 699 32 918 204 q 440 -115 583 -60 q 330 -112 397 -122 q 207 -72 263 -101 z "},"P":{"ha":1522,"x_min":171,"x_max":1496,"o":"m 599 -328 q 465 -353 539 -364 q 361 -300 390 -343 q 608 308 417 -50 q 1013 893 799 665 q 1086 863 1054 888 q 756 326 890 628 q 938 320 853 311 q 1088 363 1022 329 q 1201 442 1153 397 q 1274 544 1250 486 q 1299 657 1297 601 q 1272 769 1300 713 q 1190 868 1244 825 q 1064 929 1135 913 q 926 942 993 946 q 778 911 860 938 q 634 857 696 885 q 493 783 572 829 q 372 708 414 736 q 269 639 331 681 q 199 697 226 656 q 171 800 172 739 q 313 863 258 839 q 464 922 367 886 q 632 977 561 958 q 800 1013 703 996 q 977 1026 897 1029 q 1147 1005 1057 1024 q 1318 946 1238 986 q 1482 722 1469 871 q 1376 450 1494 581 q 990 254 1235 292 q 724 253 864 233 q 599 -328 583 -89 z "},"Q":{"ha":1146,"x_min":-7,"x_max":1099,"o":"m 1017 -446 q 532 -74 739 -356 q 439 -115 486 -97 q 328 -112 396 -122 q 206 -72 261 -101 q 28 152 64 1 q 56 468 -7 303 q 251 763 118 633 q 512 945 371 881 q 782 993 653 1010 q 914 939 858 983 q 996 826 969 894 q 1028 674 1022 758 q 1008 496 1035 590 q 935 310 982 401 q 805 130 888 218 q 618 -25 722 42 q 1068 -215 806 -201 q 1081 -349 1099 -278 q 1017 -446 1064 -421 m 357 678 q 249 447 283 572 q 240 206 214 321 q 364 39 267 90 q 472 17 418 10 q 389 167 426 92 q 428 236 400 208 q 553 46 483 128 q 742 263 657 107 q 854 543 828 419 q 774 872 903 790 q 688 897 736 896 q 585 876 639 897 q 471 803 531 854 q 357 678 411 751 z "},"R":{"ha":1308,"x_min":139,"x_max":1464,"o":"m 381 -194 q 232 -183 308 -215 q 139 -94 156 -151 q 586 372 421 108 q 444 422 506 379 q 425 519 382 465 q 524 551 463 556 q 661 508 585 546 q 764 892 750 696 q 926 868 836 915 q 772 438 900 718 q 807 407 792 422 q 1010 461 924 408 q 1132 588 1097 514 q 1149 746 1167 663 q 1056 889 1132 829 q 282 689 814 1076 q 217 738 243 701 q 192 829 192 775 q 369 907 300 878 q 560 974 439 936 q 775 1022 682 1011 q 982 1019 868 1032 q 1192 957 1096 1006 q 1288 882 1251 928 q 1331 784 1324 836 q 1327 676 1339 732 q 1278 568 1315 621 q 1188 472 1240 515 q 1058 396 1135 428 q 894 351 982 364 q 1107 -34 946 185 q 1464 -404 1268 -253 q 1381 -467 1435 -437 q 1256 -493 1326 -496 q 1026 -178 1153 -414 q 788 344 900 57 q 729 346 749 344 q 381 -194 557 -8 z "},"S":{"ha":1088,"x_min":-58,"x_max":1153,"o":"m 686 -212 q 546 -297 625 -268 q 387 -326 467 -326 q 228 -301 307 -325 q 89 -228 149 -278 q -12 -111 29 -179 q -56 47 -53 -43 q -24 240 -58 136 q 87 263 28 265 q 199 239 146 261 q 153 -17 106 131 q 293 -206 192 -136 q 522 -229 413 -286 q 607 -157 569 -206 q 665 -42 653 -99 q 661 68 678 14 q 620 173 644 122 q 567 296 596 224 q 525 433 538 368 q 529 594 510 515 q 592 733 549 674 q 698 839 636 793 q 826 906 760 885 q 961 922 893 926 q 1082 883 1029 918 q 1142 806 1132 851 q 1138 724 1153 761 q 1103 638 1122 686 q 1086 563 1085 590 q 974 558 1050 547 q 878 604 897 569 q 913 660 889 632 q 958 705 936 688 q 1001 744 981 722 q 1024 783 1021 767 q 1013 825 1026 800 q 882 849 974 876 q 724 729 783 819 q 708 453 643 604 q 797 190 774 303 q 797 -28 821 78 q 686 -212 772 -135 z "},"T":{"ha":1032,"x_min":181,"x_max":1554,"o":"m 476 -306 q 340 -309 410 -332 q 249 -237 269 -286 q 426 103 308 -93 q 708 510 544 299 q 1024 857 871 721 q 197 799 586 881 q 303 1014 181 894 q 1157 946 563 1068 q 1507 979 1228 960 q 1521 778 1554 844 q 1138 849 1378 826 q 696 285 888 632 q 476 -306 504 -61 z "},"U":{"ha":1229,"x_min":-83,"x_max":1292,"o":"m -18 -32 q -76 49 -69 0 q -53 160 -83 99 q 25 291 -24 221 q 131 444 74 361 q 235 610 188 528 q 310 788 282 692 q 331 969 339 883 q 517 933 465 985 q 490 799 518 871 q 420 660 463 726 q 328 528 378 594 q 235 402 278 461 q 166 292 193 343 q 142 200 139 242 q 183 133 144 158 q 324 173 231 103 q 606 422 417 243 q 636 452 625 442 q 665 480 647 463 q 699 511 683 497 q 1056 979 818 768 q 1165 878 1117 967 q 968 715 1053 808 q 841 531 883 621 q 782 358 799 440 q 780 216 765 275 q 832 135 794 157 q 1035 167 908 88 q 1231 388 1161 247 l 1292 347 q 1181 176 1249 251 q 1042 58 1114 100 q 899 -7 971 15 q 767 -25 828 -29 q 669 4 707 -21 q 613 134 621 38 q 643 367 604 231 q 534 257 585 306 q 427 158 483 208 q 323 71 371 107 q 225 5 275 35 q 133 -39 175 -25 q 53 -52 92 -53 q -18 -32 14 -51 z "},"V":{"ha":1136,"x_min":36,"x_max":1365,"o":"m 38 -87 q 160 195 106 28 q 239 511 214 363 q 260 775 264 660 q 221 913 257 890 q 321 1001 260 960 q 446 1049 382 1042 q 489 916 494 1026 q 440 652 483 806 q 324 322 396 499 q 169 -11 253 144 q 772 530 482 200 q 1132 1085 1061 860 q 1279 1061 1207 1100 q 1365 965 1351 1022 q 1046 590 1267 814 q 554 151 825 367 q 79 -165 283 -64 q 36 -93 39 -140 l 46 -87 l 38 -87 z "},"W":{"ha":1553,"x_min":35,"x_max":1892,"o":"m 36 -87 q 158 195 104 28 q 238 511 213 363 q 260 775 263 660 q 222 914 258 890 q 319 1001 258 960 q 442 1049 379 1042 q 487 917 492 1026 q 439 654 482 808 q 324 324 396 500 q 169 -7 253 149 q 485 290 342 115 q 713 626 629 465 q 846 946 796 786 q 1000 897 949 969 q 1044 797 1040 864 q 1022 649 1047 731 q 947 460 997 567 q 841 249 897 353 q 717 25 785 146 q 697 -8 704 3 q 1299 533 1010 204 q 1658 1085 1589 861 q 1806 1061 1733 1100 q 1892 965 1879 1022 q 1324 357 1735 726 q 607 -165 914 -12 q 561 -93 567 -140 l 571 -87 l 563 -87 q 733 256 653 65 q 849 596 814 447 q 79 -165 453 21 q 35 -93 38 -140 l 44 -87 l 36 -87 z "},"X":{"ha":1251,"x_min":-176,"x_max":1314,"o":"m -1 -301 q -118 -260 -62 -300 q -176 -182 -174 -219 q -46 -111 -111 -154 q 94 -1 19 -68 q 215 113 168 67 q 355 257 263 160 q 488 394 447 354 q 515 892 435 638 q 688 872 590 921 q 593 500 582 683 q 1194 893 906 797 q 1256 843 1243 875 q 614 390 890 689 q 712 227 644 294 q 872 133 779 160 q 1072 174 963 107 q 1253 386 1182 240 l 1314 347 q 1206 180 1271 254 q 1073 62 1142 106 q 934 -5 1004 18 q 806 -25 864 -28 q 710 3 747 -22 q 608 110 661 36 q 519 282 556 183 q 373 98 490 246 q 176 -136 256 -50 q -1 -301 96 -222 z "},"Y":{"ha":964,"x_min":-76,"x_max":1114,"o":"m -17 -32 q -76 67 -76 4 q -32 201 -76 129 q 76 367 13 272 q 201 553 140 461 q 301 758 263 646 q 329 969 339 871 q 517 933 464 985 q 490 799 518 871 q 419 660 463 726 q 327 528 376 594 q 235 402 278 461 q 166 292 193 343 q 141 200 139 242 q 183 133 143 158 q 321 171 229 103 q 596 414 413 239 q 933 888 765 731 q 1114 785 1043 879 q 842 490 1001 699 q 533 17 682 281 q 314 -457 383 -246 q 258 -365 257 -417 q 497 219 378 -29 q 197 -12 326 58 q -17 -32 68 -83 z "},"Z":{"ha":1206,"x_min":-86,"x_max":1378,"o":"m 671 3 q 621 43 647 18 q 575 88 594 68 q 529 131 556 108 q 478 164 503 153 q 417 181 454 175 q 342 172 381 186 q 86 -54 213 47 q -28 -12 26 -53 q -86 65 -83 29 q 127 183 18 108 q 335 342 236 258 q 532 511 433 426 q 749 681 631 596 q 979 821 867 765 q 317 731 744 821 q 421 946 297 822 q 1115 904 836 961 q 1317 972 1194 940 q 1347 765 1378 881 q 1143 811 1246 799 q 1058 768 1100 792 q 981 725 1015 744 q 903 673 947 706 q 833 622 858 640 q 760 563 807 604 q 694 507 713 522 q 624 442 675 492 q 559 381 572 393 q 488 312 546 368 q 419 246 431 256 q 550 237 488 253 q 694 185 613 221 q 835 133 775 150 q 1031 176 924 107 q 1207 388 1138 244 l 1268 347 q 1165 185 1228 258 q 1033 67 1101 111 q 894 -1 964 24 q 767 -24 825 -26 q 671 3 708 -22 z "},"[":{"ha":322,"x_min":-4165,"x_max":-39,"o":"m -4146 -325 q -2586 -144 -3732 -190 q -44 -160 -1440 -99 q -44 -178 -39 -165 q -52 -199 -49 -192 q -64 -219 -56 -207 q -74 -236 -72 -232 q -3997 -597 -3111 -143 q -3988 -506 -3975 -540 q -4034 -460 -4001 -471 q -4100 -433 -4067 -449 q -4149 -398 -4133 -418 q -4146 -325 -4165 -378 z "},"\\":{"ha":869,"x_min":165,"x_max":704,"o":"m 165 746 q 251 826 204 806 q 329 833 297 847 q 380 417 318 649 q 531 8 442 186 q 704 -251 621 -171 q 672 -314 694 -287 q 615 -339 649 -340 q 417 -42 507 -214 q 277 287 328 129 q 199 561 226 444 q 165 746 172 678 z "},"]":{"ha":322,"x_min":-2650,"x_max":-44,"o":"m -2635 -297 q -2040 -167 -2443 -212 q -1231 -118 -1637 -122 q -491 -126 -824 -114 q -50 -158 -158 -137 q -49 -183 -44 -169 q -66 -215 -54 -197 q -79 -235 -78 -232 q -456 -209 -246 -215 q -935 -217 -665 -203 q -1465 -267 -1204 -231 q -2000 -382 -1726 -304 q -2487 -569 -2274 -460 q -2474 -489 -2468 -521 q -2504 -444 -2481 -457 q -2556 -417 -2528 -431 q -2609 -394 -2585 -404 q -2642 -360 -2633 -385 q -2635 -297 -2650 -335 z "},"^":{"ha":467,"x_min":21,"x_max":418,"o":"m 21 599 q 213 779 135 676 q 301 746 286 768 q 327 678 304 711 q 418 585 350 646 q 335 504 388 519 q 253 671 303 579 q 71 503 192 610 q 21 599 22 546 z "},"_":{"ha":322,"x_min":-3385,"x_max":-53,"o":"m -3100 -200 q -2810 -262 -3010 -251 q -2361 -253 -2611 -274 q -1806 -204 -2111 -232 q -1201 -151 -1501 -176 q -601 -124 -901 -125 q -58 -158 -300 -124 q -58 -184 -53 -169 q -75 -215 -64 -199 q -87 -235 -86 -231 q -606 -196 -319 -196 q -1160 -226 -893 -196 q -1717 -297 -1426 -256 q -2249 -382 -2008 -337 q -2722 -456 -2489 -426 q -3108 -493 -2956 -486 q -3374 -465 -3260 -500 q -3308 -312 -3385 -396 q -3100 -200 -3232 -228 z "},"`":{"ha":378,"x_min":29,"x_max":329,"o":"m 326 715 q 321 684 329 701 q 300 661 313 667 q 29 761 97 681 q 78 847 38 807 q 161 885 118 886 q 326 715 196 794 z "},"a":{"ha":863,"x_min":-90,"x_max":925,"o":"m 136 17 q 45 5 86 4 q -23 24 4 6 q -68 71 -50 43 q -88 138 -86 99 q -81 221 -90 178 q -46 315 -72 264 q 21 414 -19 365 q 142 515 76 481 q 265 549 208 550 q 366 519 321 549 q 429 435 411 489 q 474 501 447 468 q 557 465 507 493 q 617 411 607 436 q 595 363 608 392 q 575 319 582 333 q 559 283 568 304 q 547 251 550 261 q 539 225 543 240 q 535 201 535 210 q 538 181 536 192 q 544 163 539 171 q 558 146 550 154 q 613 134 576 125 q 691 169 650 143 q 779 253 732 196 q 865 388 826 311 l 925 347 q 869 241 903 294 q 786 134 835 188 q 673 48 738 81 q 542 17 608 15 q 430 65 472 18 q 378 186 388 111 q 136 17 254 49 m 172 126 q 385 321 258 149 q 390 340 386 328 q 396 358 394 353 q 362 437 388 410 q 289 452 336 464 q 183 376 242 440 q 76 172 71 253 q 142 121 81 117 q 172 126 156 122 z "},"b":{"ha":693,"x_min":-25,"x_max":754,"o":"m 160 17 q -21 251 -25 39 q 140 732 -17 453 q 331 1004 226 885 q 428 962 371 1003 q 496 890 485 921 q 304 653 386 765 q 176 453 222 540 q 110 299 129 367 q 100 190 90 232 q 144 131 110 147 q 271 153 199 103 q 378 293 343 204 q 337 309 363 292 q 293 349 311 326 q 311 515 263 443 q 407 563 351 576 q 483 492 451 553 q 500 342 506 449 q 693 388 642 308 l 754 347 q 650 269 728 289 q 481 265 572 250 q 430 172 456 213 q 365 89 404 131 q 274 28 326 47 q 160 17 221 10 z "},"c":{"ha":711,"x_min":-75,"x_max":774,"o":"m 403 43 q 253 5 329 11 q 114 15 176 -1 q 6 69 51 31 q -58 158 -40 107 q -55 281 -75 210 q 26 426 -35 351 q 140 522 76 488 q 259 558 203 556 q 368 544 315 560 q 469 438 454 515 q 410 303 483 360 q 294 364 304 289 q 375 425 357 382 q 354 475 390 463 q 347 476 351 475 q 190 389 278 486 q 118 279 140 333 q 103 185 96 225 q 142 119 111 146 q 228 90 172 92 q 357 110 283 89 q 562 220 457 142 q 713 388 667 299 l 774 349 q 633 190 744 285 q 403 43 522 96 z "},"d":{"ha":865,"x_min":-100,"x_max":929,"o":"m 139 17 q -37 35 25 -17 q -85 193 -100 86 q 22 414 -71 300 q 145 517 78 482 q 269 549 213 551 q 372 516 326 547 q 435 428 418 485 q 576 744 482 581 q 785 1035 669 907 q 867 1001 815 1031 q 929 944 918 971 q 538 131 393 214 q 692 171 589 101 q 868 388 794 240 l 928 347 q 872 242 906 294 q 789 136 838 189 q 676 50 740 83 q 543 17 611 17 q 393 201 396 17 q 139 17 263 51 m 176 126 q 400 339 265 151 q 381 410 397 381 q 340 453 365 440 q 274 447 314 465 q 186 376 233 429 q 79 172 74 253 q 150 121 83 114 q 176 126 163 122 z "},"e":{"ha":715,"x_min":-69,"x_max":778,"o":"m 407 43 q 257 5 333 11 q 118 15 181 -1 q 10 69 56 31 q -52 158 -35 107 q -49 281 -69 210 q 32 426 -29 351 q 144 521 82 488 q 263 556 207 554 q 372 544 319 558 q 462 488 431 526 q 492 405 493 449 q 439 315 490 361 q 292 239 388 268 q 107 189 231 218 q 182 99 115 122 q 363 110 249 76 q 565 224 458 140 q 717 399 671 308 l 778 360 q 638 194 749 294 q 407 43 526 94 m 111 250 q 249 300 171 268 q 381 408 360 349 q 346 467 394 453 q 336 469 342 468 q 194 389 275 476 q 111 250 129 318 z "},"f":{"ha":522,"x_min":-96,"x_max":585,"o":"m 51 -374 q -61 -311 -26 -374 q -88 -143 -96 -249 q -47 89 -81 -37 q 43 358 -14 215 q -6 403 4 388 q 28 492 -7 463 q 111 515 64 522 q 404 1004 258 838 q 503 962 446 1003 q 571 890 560 921 q 224 388 382 675 q 310 346 253 364 q 431 335 367 328 q 524 388 494 342 l 585 347 q 448 262 554 278 q 253 279 342 246 q 256 135 256 217 q 242 -37 257 53 q 206 -201 228 -126 q 144 -325 185 -276 q 51 -374 103 -374 m 36 -258 q 108 -204 72 -278 q 162 3 143 -131 q 174 278 181 138 l 167 281 q 25 -79 63 71 q 36 -258 -12 -229 z "},"g":{"ha":864,"x_min":-232,"x_max":926,"o":"m 163 -274 q -7 -321 74 -317 q -133 -301 -87 -325 q -194 -240 -179 -278 q -152 -78 -232 -137 q 75 -19 -72 -18 q 286 -1 174 -19 q 364 169 340 92 q 138 17 247 47 q 47 5 88 4 q -22 24 6 6 q -67 71 -49 43 q -87 138 -85 99 q -80 221 -89 178 q -44 315 -71 264 q 22 414 -18 365 q 144 515 78 481 q 267 549 210 550 q 369 519 324 549 q 432 433 414 489 q 476 501 447 464 q 558 465 508 493 q 618 411 608 436 q 585 335 606 379 q 561 283 564 290 q 444 36 507 147 q 594 90 517 58 q 742 202 672 122 q 867 388 813 282 l 926 347 q 833 190 896 272 q 694 58 771 108 q 386 -58 569 -22 q 163 -274 275 -221 m -51 -204 q 26 -233 -29 -236 q 133 -189 82 -229 q 235 -81 182 -153 q 60 -89 136 -89 q -35 -107 -1 -89 q -70 -150 -69 -125 q -51 -204 -71 -175 m 174 126 q 389 325 257 149 l 399 356 q 375 419 392 394 q 333 454 358 444 q 269 444 307 464 q 186 376 231 425 q 79 175 75 257 q 143 121 82 117 q 174 126 157 122 z "},"h":{"ha":710,"x_min":-175,"x_max":772,"o":"m -51 -17 q -175 51 -135 -8 q 42 478 -117 114 q 196 939 200 843 q 340 894 272 961 q 282 678 347 853 q 126 308 217 503 q 319 499 232 410 q 320 500 319 500 q 321 501 321 500 q 403 465 353 493 q 463 411 454 436 q 388 232 394 258 q 406 146 374 178 q 447 133 422 135 q 505 149 471 131 q 573 197 539 168 q 644 276 607 226 q 711 388 681 326 l 772 347 q 716 241 750 294 q 633 134 682 188 q 520 48 585 81 q 388 17 456 15 q 244 113 286 21 q 232 325 201 204 q -14 38 119 222 q -51 -17 -39 -3 z "},"i":{"ha":457,"x_min":-46,"x_max":519,"o":"m 135 17 q -2 99 42 19 q -28 291 -46 178 q 67 501 -10 404 q 150 465 100 493 q 210 411 200 436 q 188 363 200 390 q 168 319 175 335 q 153 283 161 304 q 140 251 144 263 q 132 224 136 239 q 128 201 128 210 q 131 181 129 192 q 138 163 132 171 q 151 146 143 154 q 207 134 169 125 q 285 169 244 143 q 374 253 326 196 q 458 388 421 311 l 519 347 q 463 241 497 294 q 381 134 429 188 q 267 48 332 81 q 135 17 203 15 m 123 476 q 107 492 123 476 q 90 556 90 508 q 123 636 90 603 q 203 669 156 669 q 283 636 250 669 q 317 556 317 603 q 284 476 317 508 q 203 443 251 443 q 123 476 156 443 z "},"j":{"ha":450,"x_min":-486,"x_max":513,"o":"m -337 -203 q -313 -210 -331 -211 q -272 -190 -296 -210 q -235 -142 -247 -171 q -301 -153 -274 -143 q -337 -177 -328 -164 q -337 -203 -346 -190 m -453 -251 q -410 -113 -486 -171 q -194 -57 -333 -56 l -187 -57 q -52 253 -139 36 q 60 501 35 469 q 143 465 93 494 q 204 411 193 436 q 175 348 196 393 q 147 283 154 303 q 15 14 74 111 q 263 158 129 39 q 453 388 396 278 l 513 347 q 451 247 494 306 q 335 113 407 188 q 153 -29 264 38 q -81 -126 42 -96 q -176 -241 -125 -197 q -272 -299 -228 -285 q -354 -310 -315 -312 q -418 -290 -393 -307 q -453 -251 -443 -274 m 109 478 q 93 495 109 478 q 76 558 76 511 q 109 639 76 606 q 188 672 142 672 q 269 639 235 672 q 303 558 303 606 q 269 478 303 511 q 188 446 236 446 q 109 478 142 446 z "},"k":{"ha":724,"x_min":-176,"x_max":788,"o":"m -51 -17 q -176 51 -136 -8 q -50 277 -142 89 q 120 670 42 465 q 196 939 199 875 q 338 894 271 961 q 278 674 344 853 q 124 304 213 496 q 308 403 219 340 q 446 547 396 465 q 515 516 475 542 q 565 464 556 490 q 438 340 521 385 q 264 285 354 296 q 403 119 258 126 q 560 181 468 117 q 725 388 653 246 l 788 347 q 699 199 756 275 q 551 55 642 122 q 372 -18 461 -12 q 164 66 222 -26 q 122 301 106 158 q -51 -17 7 53 z "},"l":{"ha":499,"x_min":-26,"x_max":561,"o":"m 160 17 q -21 253 -26 39 q 140 733 -17 456 q 331 1004 226 885 q 429 962 372 1003 q 497 890 486 921 q 306 653 388 765 q 176 453 224 540 q 110 299 129 367 q 100 190 90 232 q 144 131 110 147 q 319 166 214 96 q 501 388 425 236 l 561 347 q 501 238 539 294 q 413 126 464 182 q 294 40 361 71 q 160 17 226 8 z "},"m":{"ha":1022,"x_min":-129,"x_max":1086,"o":"m -6 -17 q -129 50 -86 -8 q -29 253 -75 110 q 11 499 17 397 q 153 453 89 518 q 144 326 161 411 q 272 467 200 390 l 275 467 l 275 468 q 415 422 347 490 q 407 269 426 360 q 629 499 563 428 q 630 500 629 500 q 631 501 631 500 q 714 465 664 494 q 774 411 764 436 q 751 363 764 390 q 732 319 739 335 q 717 283 725 303 q 704 251 708 263 q 696 224 700 239 q 692 201 692 210 q 695 181 693 192 q 703 163 697 171 q 717 146 708 154 q 772 134 735 125 q 849 169 808 143 q 938 253 890 196 q 1024 388 985 311 l 1086 347 q 1028 241 1063 294 q 944 134 993 188 q 831 48 896 81 q 699 17 767 15 q 554 117 596 21 q 547 336 513 213 q 426 177 482 272 q 346 -17 371 82 q 222 51 264 -8 q 275 368 268 211 q 76 117 197 300 q -6 -17 40 39 z "},"n":{"ha":786,"x_min":-97,"x_max":849,"o":"m 25 -17 q -97 50 -57 -8 q -20 250 -50 106 q 3 503 10 394 q 144 457 81 522 q 133 244 158 379 q 396 499 292 390 q 397 500 396 500 q 397 501 397 500 q 480 465 429 493 q 540 411 531 436 q 518 363 531 390 q 499 319 506 335 q 483 283 492 304 q 469 251 474 263 q 462 225 465 240 q 458 201 458 210 q 460 181 458 192 q 467 163 461 171 q 481 146 472 154 q 536 134 499 125 q 615 169 574 143 q 703 253 656 196 q 789 388 751 311 l 849 347 q 793 242 828 296 q 710 134 758 188 q 597 48 661 81 q 465 17 532 15 q 322 113 364 21 q 310 326 279 204 q 60 33 186 214 q 28 -14 44 7 l 26 -15 l 25 -17 z "},"o":{"ha":690,"x_min":-61,"x_max":753,"o":"m 157 17 q -35 177 -10 36 q 34 451 -61 318 q 256 583 129 583 q 314 524 290 583 q 364 562 336 553 q 424 554 392 571 q 479 492 456 538 q 497 342 503 449 q 692 388 639 308 l 753 347 q 648 269 726 289 q 478 265 569 250 q 427 171 453 211 q 362 89 401 131 q 270 28 322 47 q 157 17 218 10 m 142 131 q 267 154 196 103 q 376 293 339 206 q 333 309 360 292 q 290 349 307 326 q 279 433 276 389 q 194 391 233 421 q 131 324 154 361 q 99 248 108 286 q 101 178 90 210 q 142 131 113 146 z "},"p":{"ha":753,"x_min":-343,"x_max":815,"o":"m -219 -435 q -343 -367 -303 -426 q -126 62 -285 -304 q 29 524 33 428 q 171 476 106 542 q 167 428 174 461 q 465 481 347 569 q 522 299 540 419 q 410 94 503 179 q 594 194 492 114 q 754 388 697 275 l 815 347 q 744 240 794 299 q 622 124 693 181 q 458 36 551 67 q 275 21 364 6 q 236 15 261 18 q 39 72 107 1 q -105 -240 -32 -94 q -219 -435 -178 -385 m 103 232 q 143 199 132 218 q 136 163 138 186 q 148 115 135 139 q 190 90 161 92 q 274 122 231 86 q 341 208 317 157 q 371 311 365 258 q 343 394 376 364 q 129 306 271 458 l 103 232 z "},"q":{"ha":806,"x_min":-103,"x_max":869,"o":"m 263 -522 q 221 -505 250 -517 q 182 -487 192 -493 q 153 -471 172 -482 q 128 -450 135 -460 q 118 -424 122 -440 q 117 -389 114 -408 l 118 -386 l 117 -385 q 153 -231 110 -351 q -72 -249 33 -258 q -56 -93 -101 -199 q 197 -108 65 -136 q 282 96 239 -3 q 136 15 207 39 q -40 34 22 -18 q -87 193 -103 86 q 19 413 -72 300 q 147 517 78 482 q 274 548 217 551 q 376 509 332 544 q 435 413 421 474 q 507 526 476 489 q 631 458 590 518 q 528 281 601 428 q 386 -32 456 133 q 807 386 601 97 l 869 347 q 655 78 779 207 q 386 -133 531 -50 q 473 -237 450 -181 q 481 -341 496 -293 q 432 -431 465 -389 q 352 -497 399 -472 q 263 -522 306 -521 m 174 126 q 389 324 254 146 l 397 342 q 377 412 393 383 q 335 453 361 440 q 270 447 310 465 q 183 376 231 428 q 78 171 71 251 q 150 121 82 113 q 174 126 161 122 m 254 -433 l 260 -439 q 369 -374 332 -419 q 398 -273 407 -328 q 332 -174 389 -218 l 331 -171 q 258 -432 254 -371 l 254 -433 z "},"r":{"ha":613,"x_min":-3,"x_max":676,"o":"m 4 390 q 42 474 31 444 q 4 536 17 503 q 36 660 -3 610 q 126 694 75 711 q 166 645 157 685 q 165 563 175 606 q 136 492 156 521 l 136 490 q 219 500 164 479 l 221 499 l 222 500 q 305 465 254 493 q 365 408 356 436 q 338 347 354 383 q 314 295 321 311 q 297 255 307 279 q 286 219 288 231 q 285 192 285 207 q 290 166 285 176 q 307 144 296 156 q 362 133 325 124 q 440 168 399 142 q 528 253 481 194 q 614 386 576 311 l 676 347 q 618 240 653 293 q 535 133 583 188 q 422 47 486 79 q 289 15 357 14 q 133 147 168 19 q 168 414 97 275 q 110 428 139 417 q 67 351 88 385 l 13 336 l 4 390 z "},"s":{"ha":497,"x_min":-240,"x_max":304,"o":"m 288 79 q 158 -13 258 1 q -51 3 58 -28 q -240 89 -160 35 q -189 154 -226 131 q -115 106 -167 126 q -4 90 -64 85 q 86 140 56 96 q 97 203 107 164 q 69 272 88 242 q 27 344 50 301 q -1 415 4 386 q 6 537 -14 479 q 63 626 25 594 q 149 667 101 657 q 242 643 197 676 q 276 599 269 625 q 269 545 282 572 q 231 494 256 518 q 170 454 207 469 q 94 438 133 439 q 126 345 99 388 q 187 279 154 303 q 251 224 219 256 q 293 163 282 193 q 288 79 304 133 z "},"t":{"ha":500,"x_min":-232,"x_max":888,"o":"m 160 19 q 16 101 61 32 q -19 274 -29 169 q 33 497 -10 378 q 146 742 75 617 q -232 794 -168 763 l -208 869 q 193 819 -81 822 q 332 1008 257 921 q 429 967 374 1007 q 497 893 485 926 l 444 831 q 818 932 704 858 q 868 873 849 917 q 879 793 888 829 q 364 733 719 728 q 206 505 268 610 q 118 325 143 400 q 100 201 93 250 q 146 133 107 153 q 252 133 190 111 q 383 222 314 154 q 501 390 451 289 l 564 351 q 503 242 542 299 q 414 131 465 186 q 294 43 363 75 q 160 19 226 11 z "},"u":{"ha":850,"x_min":-60,"x_max":914,"o":"m 97 19 q -27 124 6 32 q -22 336 -60 215 q 111 550 17 457 q 199 503 153 542 q 256 435 244 465 q 106 249 147 329 q 113 136 65 169 q 242 183 160 108 q 403 410 325 258 q 461 504 426 460 q 544 468 493 497 q 604 413 594 439 q 583 365 596 393 q 563 322 569 336 q 547 286 556 307 q 534 254 538 265 q 526 228 531 243 q 523 204 522 213 q 525 185 524 196 q 532 165 526 174 q 546 149 538 157 q 601 137 564 128 q 678 172 638 146 q 767 257 719 199 q 851 390 814 315 l 914 351 q 856 244 890 297 q 774 138 822 192 q 660 51 725 83 q 528 19 596 18 q 410 76 453 22 q 361 213 367 129 q 97 19 236 1 z "},"v":{"ha":750,"x_min":-39,"x_max":813,"o":"m 97 -17 q -39 40 -7 -7 q 5 267 0 131 q -19 482 10 403 q 168 457 111 517 q 147 147 189 340 q 215 199 165 161 q 303 269 265 238 q 374 333 340 300 q 340 440 326 369 q 485 596 400 568 q 578 574 549 618 q 571 453 608 528 q 506 357 550 410 q 593 334 549 340 q 683 340 638 328 q 751 388 729 353 l 813 347 q 724 274 790 296 q 583 258 658 251 q 444 293 508 265 q 277 148 401 251 q 101 -12 153 44 l 101 -6 q 99 -11 100 -8 q 97 -17 97 -14 z "},"w":{"ha":1075,"x_min":-39,"x_max":1138,"o":"m 96 -14 q -39 43 -6 -4 q 6 270 0 135 q -19 485 11 406 q 70 497 6 499 q 168 461 135 494 q 147 151 188 336 q 210 199 161 163 q 292 263 258 235 q 356 321 325 290 q 343 454 360 403 q 433 465 368 467 q 529 429 497 463 q 488 163 543 346 q 537 200 497 171 q 595 244 576 229 q 644 286 614 260 q 699 338 675 313 q 665 444 651 374 q 811 600 726 572 q 903 578 874 621 q 896 456 933 532 q 831 360 875 413 q 917 337 872 343 q 1007 343 961 331 q 1075 390 1053 356 l 1138 351 q 1048 278 1114 300 q 907 263 982 256 q 771 297 832 269 q 603 150 726 253 q 428 -10 479 47 l 428 -1 q 425 -8 428 -4 q 422 -14 422 -12 q 286 43 318 -4 q 336 201 319 122 q 100 -10 156 50 l 100 -3 q 96 -14 97 -11 z "},"x":{"ha":688,"x_min":-392,"x_max":750,"o":"m -232 -231 q -320 -197 -265 -236 q -392 -121 -375 -157 q 32 275 -296 42 q -12 497 -11 378 q 84 542 8 533 q 172 519 160 550 q 175 374 167 443 q 490 551 404 525 l 518 475 q 190 294 371 431 q 378 122 235 135 q 528 181 439 115 q 690 390 618 247 l 750 351 q 694 245 728 299 q 611 138 660 192 q 497 51 563 83 q 364 19 432 18 q 201 69 278 22 q 71 199 124 115 q -232 -231 -171 -14 z "},"y":{"ha":850,"x_min":-247,"x_max":914,"o":"m 147 -271 q -22 -318 58 -314 q -149 -299 -103 -322 q -208 -236 -194 -275 q -167 -74 -247 -133 q 61 -17 -86 -14 q 271 1 158 -17 q 357 200 338 114 q 99 19 235 3 q -6 87 31 29 q -40 222 -42 144 q 2 390 -37 300 q 113 550 42 481 q 201 503 154 542 q 258 435 247 465 q 109 250 150 331 q 115 136 68 169 q 238 178 160 110 q 392 386 317 246 q 460 504 418 451 q 542 469 492 497 q 603 413 593 440 q 574 349 594 393 q 546 286 554 304 q 431 40 490 146 q 579 94 507 64 q 728 206 657 126 q 851 390 799 286 l 914 351 q 817 193 879 275 q 679 61 756 111 q 371 -56 556 -19 q 147 -271 260 -218 m -67 -201 q 11 -231 -43 -235 q 118 -186 65 -226 q 218 -78 168 -149 q 44 -86 119 -86 q -75 -124 -46 -87 q -67 -201 -104 -160 z "},"z":{"ha":711,"x_min":-42,"x_max":775,"o":"m 4 394 q 15 417 6 397 q 26 439 25 436 q 37 461 28 442 q 46 483 46 481 q 53 505 46 485 q 60 528 61 525 q 67 553 60 532 q 71 579 74 574 q 72 608 68 585 q 72 638 76 631 q 106 654 83 650 q 154 638 129 658 q 156 560 164 604 q 335 524 261 528 q 514 551 410 521 q 528 505 515 546 q 549 440 542 464 q 178 174 242 376 q 222 184 197 182 q 265 184 246 186 q 328 177 285 182 q 401 169 371 172 q 576 198 517 158 q 714 390 636 238 l 775 351 q 717 246 751 299 q 635 140 683 193 q 522 53 586 86 q 389 19 457 19 q 305 35 356 19 q 216 63 254 50 q 126 67 178 75 q 25 19 74 58 q -25 68 -8 32 q -28 140 -42 104 q 83 249 24 183 q 196 362 143 315 q 324 444 249 408 q 115 443 224 425 q 67 356 89 392 l 13 340 l 4 394 z "},"{":{"ha":558,"x_min":-3628,"x_max":96,"o":"m 0 425 q 49 394 14 425 q 89 353 83 364 q -47 -160 -75 147 q 44 -190 21 -168 q 61 -282 94 -233 q -29 -324 31 -325 q -104 -292 -71 -322 q -131 -232 -126 -269 q -1213 -206 -729 -203 q -2058 -233 -1697 -210 q -2699 -309 -2419 -257 q -3169 -428 -2979 -361 q -3501 -583 -3358 -494 q -3610 -457 -3593 -533 q -3586 -281 -3628 -381 q -2405 -138 -3289 -172 q -124 -158 -1521 -104 q -123 139 -167 -50 q 0 425 -79 328 z "},"|":{"ha":417,"x_min":10,"x_max":518,"o":"m 354 894 q 466 925 426 931 q 518 889 506 919 q 226 224 343 629 q 121 -383 110 -181 q 63 -425 92 -414 q 10 -418 35 -436 q 53 -17 11 -235 q 156 383 96 200 q 267 694 217 567 q 354 894 318 822 z "},"}":{"ha":560,"x_min":-2558,"x_max":96,"o":"m 0 425 q 49 394 14 425 q 89 353 83 364 q -47 -160 -75 147 q 44 -190 21 -168 q 61 -282 94 -233 q -29 -324 31 -325 q -104 -292 -71 -322 q -131 -232 -126 -269 q -1456 -263 -831 -164 q -2432 -583 -2081 -362 q -2541 -457 -2524 -533 q -2517 -281 -2558 -381 q -1467 -137 -2229 -176 q -122 -158 -706 -99 q -123 138 -167 -51 q 0 425 -79 328 z "},"~":{"ha":782,"x_min":24,"x_max":724,"o":"m 36 324 q 183 431 121 399 q 276 456 244 463 q 332 426 308 449 q 367 376 356 404 q 394 329 378 347 q 429 319 410 311 q 529 429 504 349 q 620 449 575 446 q 694 424 665 451 q 715 346 724 397 q 510 194 624 243 q 346 158 397 146 q 313 191 326 163 q 296 251 300 219 q 283 306 292 282 q 261 329 274 331 q 204 268 235 326 q 167 156 174 210 q 64 203 104 140 q 36 324 24 265 z "},"ย":{"ha":414,"x_min":0,"x_max":0,"o":""},"ยก":{"ha":375,"x_min":-87,"x_max":369,"o":"m 219 433 q 133 549 156 489 q 194 594 154 556 q 260 667 235 632 q 369 583 342 635 q 219 433 325 492 m -87 -229 q 60 34 -19 -133 q 168 339 139 201 q 228 361 200 365 q 108 -268 249 89 q 4 -276 64 -287 q -87 -229 -56 -264 z "},"ยข":{"ha":693,"x_min":-3,"x_max":693,"o":"m 550 685 q 650 688 615 699 q 693 656 685 678 q 610 572 650 617 q 639 488 639 533 q 610 404 639 442 q 540 367 581 367 q 505 380 514 367 q 496 425 496 393 q 307 67 381 253 q 601 149 453 44 q 619 121 618 139 q 617 86 621 103 q 271 -37 486 -29 q 249 -164 249 -121 q 149 -171 179 -203 q 175 -32 156 -97 q 15 117 32 -8 q 96 378 -3 236 q 350 585 199 526 q 493 613 422 613 q 550 685 529 661 m 219 111 q 447 544 304 333 q 341 501 393 538 q 254 414 289 465 q 199 306 219 363 q 183 197 178 250 q 219 111 188 144 z "},"ยฃ":{"ha":942,"x_min":-71,"x_max":958,"o":"m 663 258 q 618 147 676 196 q 574 192 601 171 q 508 60 544 113 q 653 27 572 18 q 776 74 735 36 q 810 8 810 53 q 790 -74 810 -36 q 603 -124 707 -140 q 443 -10 500 -107 q 175 -83 325 -106 q -1 15 56 -65 q 14 225 -69 113 q 32 247 22 236 q 137 314 78 300 q 253 306 196 328 q 363 239 310 283 q 453 136 415 194 q 508 238 479 164 q 365 289 432 276 q 413 361 374 325 q 538 326 471 354 l 550 376 q 463 418 500 388 q 407 485 425 449 q 381 556 389 522 q 376 617 374 590 q 460 669 419 657 q 513 665 500 682 q 512 531 494 583 q 575 457 529 478 q 617 569 597 524 q 669 660 638 615 q 743 726 700 706 q 842 744 786 747 q 947 663 936 739 q 883 496 958 583 q 640 372 786 383 q 628 371 633 371 q 607 293 617 321 q 663 258 635 279 m 179 167 q 193 81 150 118 q 329 64 243 36 q 392 94 361 74 q 313 178 357 151 q 233 201 268 206 q 179 167 197 196 m 649 446 q 781 539 738 453 q 794 636 811 600 q 774 650 788 650 q 702 599 729 650 q 649 446 675 547 z "},"ยค":{"ha":742,"x_min":-10,"x_max":772,"o":"m 356 556 q 483 592 424 593 q 574 551 543 590 q 626 608 579 558 q 689 682 674 658 q 760 620 747 674 q 746 511 772 567 q 639 413 728 492 q 581 229 633 332 q 646 76 629 135 q 587 13 614 31 q 518 -12 560 -4 q 498 31 513 -1 q 474 85 483 64 q 375 28 426 40 q 215 43 281 0 q 75 -50 128 -19 q 13 -20 29 -37 q -10 33 -4 -3 q 146 147 79 93 q 199 404 115 269 q 219 433 201 410 q 99 567 158 514 q 193 645 140 622 q 288 654 246 668 q 319 609 293 644 q 356 556 344 574 m 310 440 q 273 333 278 392 q 285 231 268 275 q 342 165 303 188 q 432 161 382 143 q 517 269 476 178 q 546 439 557 361 q 504 414 507 415 q 416 494 482 483 q 310 440 350 504 z "},"ยฅ":{"ha":854,"x_min":26,"x_max":901,"o":"m 272 58 q 443 128 356 97 q 510 290 490 254 q 292 146 358 125 q 253 229 246 157 q 292 381 261 301 q 347 533 324 460 q 356 618 371 606 q 294 605 336 633 q 197 531 253 576 q 106 474 142 486 q 58 615 26 542 q 174 642 111 621 q 273 679 236 664 q 359 702 310 694 q 436 689 408 710 q 471 474 513 647 q 457 424 467 457 q 447 326 433 335 q 478 336 456 322 q 565 426 508 354 q 629 572 586 475 q 701 735 672 669 q 749 853 729 801 q 833 965 782 942 q 885 943 874 983 q 840 767 901 886 q 678 506 769 632 q 590 175 613 296 q 754 206 679 199 q 772 160 771 181 q 763 117 774 140 q 581 74 678 101 q 649 -82 581 -17 q 542 -219 606 -151 q 458 -293 479 -287 q 406 8 331 -261 q 236 -81 313 -31 q 227 -12 215 -47 q 272 58 239 24 z "},"ยฆ":{"ha":417,"x_min":10,"x_max":518,"o":"m 257 213 q 219 77 244 168 q 179 -66 193 -14 q 149 -186 165 -118 q 125 -302 132 -254 q 121 -383 118 -350 q 63 -425 92 -414 q 10 -418 35 -436 q 29 -242 10 -340 q 84 -15 49 -144 q 131 163 119 115 l 257 213 m 150 274 q 354 894 299 781 q 466 925 426 931 q 518 889 506 919 q 471 808 494 854 q 431 723 447 761 q 390 620 414 685 q 354 524 365 556 q 317 417 343 492 q 285 322 292 343 l 150 274 z "},"ยง":{"ha":826,"x_min":-32,"x_max":815,"o":"m 118 -43 q 181 -120 132 -93 q 283 -147 231 -147 q 379 -119 336 -146 q 425 -44 422 -92 q 381 21 426 -8 q 275 69 336 50 q 155 121 214 89 q 71 193 96 153 q 72 304 46 233 q 238 503 124 418 q 203 674 157 572 q 339 789 238 746 q 572 828 440 832 q 815 772 704 825 q 758 706 808 747 q 664 656 707 664 q 618 722 653 696 q 542 754 583 749 q 459 753 500 760 q 390 720 418 746 q 360 657 361 694 q 402 592 357 621 q 508 543 447 563 q 627 492 568 524 q 712 421 686 461 q 711 310 738 381 q 543 110 663 194 q 581 -60 628 42 q 444 -175 546 -132 q 210 -215 342 -218 q -32 -160 79 -212 q 25 -93 -25 -135 q 118 -43 75 -51 m 254 386 q 228 338 235 360 q 231 297 222 315 q 251 265 239 279 q 290 237 264 251 q 338 213 317 222 q 394 188 360 203 q 450 164 429 174 q 529 228 503 193 q 554 275 549 253 q 551 315 560 297 q 531 346 543 332 q 491 374 518 360 q 443 399 464 389 q 387 423 422 408 q 332 447 351 438 q 254 386 283 422 z "},"ยจ":{"ha":553,"x_min":32,"x_max":532,"o":"m 401 896 q 532 806 451 831 q 354 647 444 697 q 271 736 306 688 q 138 628 201 664 q 32 754 58 700 q 64 778 39 760 q 122 822 89 796 q 185 876 154 847 q 282 799 217 835 q 401 896 358 854 z "},"ยฉ":{"ha":1164,"x_min":-90,"x_max":1136,"o":"m 653 768 q 1046 624 935 782 q 1081 313 1135 496 q 856 -7 1026 126 q 411 -165 665 -156 q -3 -14 106 -176 q -25 299 -90 115 q 215 611 39 481 q 653 768 408 756 m 400 -14 q 213 111 239 -8 q 278 353 189 218 q 510 549 368 492 q 657 576 583 578 q 733 553 706 574 q 774 586 743 564 q 803 578 789 590 q 815 544 818 567 q 765 515 786 532 q 763 410 790 465 q 688 354 736 354 q 648 374 658 354 q 647 428 638 394 q 686 501 657 461 q 629 519 665 519 q 438 411 524 519 q 361 210 360 311 q 468 82 367 103 q 744 154 607 54 q 757 97 765 140 q 400 -14 619 -24 m 418 -106 q 856 83 694 -90 q 981 376 979 215 q 868 619 982 532 q 629 689 775 689 q 271 531 438 689 q 86 236 129 399 q 138 -32 39 61 q 418 -106 226 -117 z "},"ยช":{"ha":669,"x_min":4,"x_max":640,"o":"m 388 789 q 245 759 313 796 q 144 653 178 722 q 140 575 125 613 q 192 530 156 538 q 274 553 228 522 q 408 772 318 703 q 461 786 454 808 q 411 678 469 763 q 407 561 393 600 q 455 538 421 535 q 538 572 489 540 q 625 653 586 604 q 636 647 632 653 q 638 633 640 640 q 538 511 588 564 q 446 428 488 458 q 369 383 404 397 q 308 374 333 369 q 269 399 283 378 q 264 503 249 428 q 128 415 190 431 q 35 431 65 400 q 7 525 4 461 q 56 658 10 589 q 257 844 138 785 q 458 879 376 904 q 388 789 442 824 z "},"ยซ":{"ha":857,"x_min":33,"x_max":872,"o":"m 303 -35 q 212 122 301 25 q 33 265 122 218 q 190 411 46 300 q 457 574 335 522 q 538 544 514 564 q 575 479 561 524 q 746 574 676 543 q 835 538 811 563 q 872 449 858 513 q 703 399 810 457 q 514 267 597 342 q 765 47 621 196 q 708 -4 742 11 q 592 -35 675 -19 q 503 121 593 24 q 322 265 413 218 q 397 342 331 286 q 544 446 463 397 q 387 384 478 438 q 225 267 296 331 q 476 47 318 206 q 419 -4 453 11 q 303 -35 386 -19 z "},"ยฌ":{"ha":929,"x_min":86,"x_max":871,"o":"m 615 164 q 643 228 622 194 q 99 185 333 253 q 116 265 86 225 q 196 333 146 304 q 732 331 506 372 q 769 351 754 344 q 871 297 836 329 q 777 201 818 264 q 744 71 736 138 q 665 110 700 83 q 615 164 631 138 z "},"ยญ":{"ha":736,"x_min":79,"x_max":628,"o":"m 182 365 q 439 386 318 392 q 628 349 560 381 q 586 200 626 265 q 450 226 529 219 q 269 217 371 232 q 83 161 167 201 q 109 272 79 217 q 182 365 139 326 z "},"ยฎ":{"ha":1164,"x_min":-90,"x_max":1136,"o":"m 653 768 q 1046 624 935 782 q 1081 313 1135 496 q 856 -7 1026 126 q 411 -165 665 -156 q -3 -14 107 -176 q -24 300 -89 115 q 218 614 42 482 q 653 768 410 756 m 239 -10 q 243 69 236 26 q 258 141 250 111 q 289 226 265 171 q 322 302 313 281 q 365 390 332 324 q 406 468 399 456 q 453 479 438 488 q 392 7 342 196 q 239 -10 332 -24 m 332 506 q 378 560 332 544 q 465 567 396 561 q 811 465 825 600 q 720 369 806 415 q 546 306 635 322 q 638 178 564 269 q 747 21 713 86 q 674 -7 728 0 q 569 -3 621 -14 q 521 141 564 46 q 471 304 478 236 q 458 307 461 304 q 438 364 414 325 q 488 399 456 396 q 526 361 519 403 q 528 353 526 358 q 529 343 529 347 q 642 385 600 354 q 689 456 683 417 q 642 514 693 499 q 454 519 592 529 q 332 506 410 517 m 418 -106 q 856 83 694 -90 q 981 376 979 215 q 868 619 982 532 q 629 689 775 689 q 271 531 438 689 q 86 236 129 399 q 138 -32 39 61 q 418 -106 226 -117 z "},"ยฏ":{"ha":464,"x_min":31,"x_max":442,"o":"m 69 813 q 424 811 307 789 q 434 749 442 785 q 408 683 426 713 q 190 685 303 663 q 31 729 78 707 q 69 813 31 760 z "},"ยฐ":{"ha":486,"x_min":0,"x_max":507,"o":"m 315 799 q 478 751 446 828 q 444 594 506 686 q 225 440 368 481 l 192 432 q 24 482 51 404 q 69 642 0 549 q 299 794 154 756 l 315 799 m 199 489 q 292 569 240 493 q 335 704 351 657 q 276 732 324 736 q 169 640 208 725 q 156 515 135 565 q 199 489 168 486 z "},"ยฑ":{"ha":811,"x_min":-54,"x_max":771,"o":"m 579 732 q 525 526 550 600 q 758 499 664 522 q 732 393 771 444 q 488 411 618 411 q 372 149 436 263 q 308 135 328 133 q 269 154 289 138 q 372 408 329 279 q 82 363 194 396 q 98 443 68 403 q 179 511 128 483 q 408 528 293 525 q 453 797 449 678 q 533 797 500 818 q 579 732 567 776 m -42 -96 q -24 -17 -54 -57 q 56 51 6 22 q 386 68 228 72 q 638 39 544 64 q 637 -19 643 3 q 608 -67 631 -42 q 426 -49 529 -54 q 191 -56 322 -44 q -42 -96 60 -67 z "},"ยฒ":{"ha":488,"x_min":-44,"x_max":536,"o":"m 169 294 q 403 325 326 339 q 385 261 406 301 q 335 203 365 221 q 110 240 204 254 q -22 215 17 194 q -25 251 -44 228 q 18 283 -8 271 q 58 297 44 294 q 104 301 72 299 q 322 484 244 389 q 364 618 399 579 q 283 615 339 646 q 157 496 226 585 q 116 531 132 504 q 115 597 100 557 q 337 748 224 711 q 488 726 450 785 q 439 524 536 657 q 169 294 342 392 z "},"ยณ":{"ha":472,"x_min":-4,"x_max":513,"o":"m 154 756 q 397 726 307 724 q 471 757 442 753 q 510 740 513 761 q 458 696 506 715 q 407 683 435 686 q 390 682 401 682 q 340 633 378 671 q 283 578 303 596 q 425 503 421 594 q 372 367 425 439 q 242 249 319 294 q 100 213 164 204 q 23 252 50 219 q -3 319 -4 285 q 6 382 -1 354 q 80 428 36 411 q 133 436 124 446 q 106 340 107 379 q 119 285 104 300 q 158 271 135 269 q 243 325 199 272 q 288 454 288 378 q 228 526 288 504 q 220 522 225 525 q 213 516 215 518 q 207 513 210 514 q 135 504 151 483 q 158 544 121 521 q 200 563 175 554 l 215 567 l 324 671 q 117 644 144 640 q 154 756 108 694 z "},"ยด":{"ha":374,"x_min":0,"x_max":360,"o":"m 11 685 q 274 921 188 794 q 340 881 319 926 q 343 775 360 836 q 11 618 232 667 q 1 645 0 624 q 11 685 1 667 z "},"ยต":{"ha":668,"x_min":-347,"x_max":719,"o":"m 699 272 q 713 264 707 274 q 717 246 719 254 q 515 53 638 129 q 321 13 393 -24 q 286 139 274 39 q 151 28 222 63 q 43 18 81 -7 q 11 54 24 33 q -167 -282 -111 -150 q -276 -278 -228 -306 q -347 -200 -324 -251 q -183 -42 -292 -153 q 1 165 -74 68 q 84 378 17 260 q 260 611 151 496 q 290 573 283 610 q 286 510 297 536 q 178 338 211 429 q 176 218 144 247 q 300 214 224 176 q 489 521 351 392 q 540 465 538 518 q 481 367 507 425 q 451 259 456 308 q 478 190 447 210 q 586 185 524 163 q 699 272 649 207 z "},"ยถ":{"ha":846,"x_min":106,"x_max":1003,"o":"m 407 924 q 442 915 425 918 q 728 939 528 938 q 1001 917 928 940 q 939 778 1003 882 q 789 808 844 800 q 533 171 633 540 q 443 -383 432 -199 q 385 -425 414 -414 q 332 -418 357 -436 q 392 59 333 -206 q 514 499 451 324 q 640 819 576 675 q 569 821 610 824 q 307 178 410 553 q 217 -383 204 -196 q 159 -425 188 -414 q 106 -418 131 -436 q 326 604 107 13 q 217 760 256 675 q 256 790 218 761 q 332 851 294 818 q 407 924 369 883 z "},"ยท":{"ha":589,"x_min":138,"x_max":421,"o":"m 290 449 q 421 358 340 383 q 243 200 333 250 q 138 326 168 269 q 169 349 144 332 q 227 392 194 367 q 290 449 260 418 z "},"ยธ":{"ha":469,"x_min":-8,"x_max":429,"o":"m 236 -86 q 373 -126 321 -89 q 427 -215 425 -164 q 390 -321 429 -267 q 200 -407 328 -396 q -8 -354 72 -418 q 18 -310 -8 -325 q 135 -322 78 -333 q 229 -264 193 -310 q 249 -201 250 -231 q 209 -153 247 -172 q 107 -139 171 -135 l 133 -92 l 279 3 l 315 -21 l 236 -86 z "},"ยน":{"ha":444,"x_min":60,"x_max":374,"o":"m 240 740 q 324 762 281 763 q 374 736 367 761 q 254 456 308 608 q 194 226 200 303 q 160 206 181 211 q 126 203 139 201 q 108 207 113 204 q 179 597 129 417 q 99 508 140 544 q 70 540 81 514 q 63 597 60 565 q 213 689 119 606 q 240 740 239 738 z "},"ยบ":{"ha":556,"x_min":0,"x_max":511,"o":"m 119 608 q 283 722 197 690 q 422 731 368 754 q 475 643 476 707 q 488 642 481 643 q 497 642 494 642 q 463 492 511 589 q 327 313 414 394 q 163 226 240 232 q 51 255 92 221 q 5 345 10 289 q 29 473 0 401 q 119 608 58 544 m 217 624 q 147 499 164 571 q 156 378 129 426 q 244 342 182 331 q 345 428 286 349 q 413 583 404 508 q 371 564 385 568 q 320 655 372 633 q 217 624 268 676 z "},"ยป":{"ha":857,"x_min":-15,"x_max":824,"o":"m 554 572 q 645 416 556 513 q 824 272 735 319 q 666 126 811 238 q 400 -36 521 15 q 319 -6 343 -26 q 282 58 296 14 q 111 -36 185 -4 q 22 0 44 -25 q -15 89 0 25 q 153 138 47 81 q 342 271 258 194 q 92 490 228 347 q 148 542 114 526 q 265 572 182 557 q 353 417 264 514 q 533 272 443 319 q 460 197 525 251 q 313 93 394 142 q 469 153 378 100 q 631 271 561 207 q 381 490 524 343 q 438 542 404 526 q 554 572 471 557 z "},"ยผ":{"ha":907,"x_min":22,"x_max":897,"o":"m 775 674 q 860 637 833 665 q 883 581 888 608 q 467 243 707 471 q 113 -139 226 15 q 22 -104 35 -154 q 410 358 158 113 q 775 674 661 603 m 113 597 q 263 689 168 604 q 290 740 278 721 q 374 762 331 763 q 424 736 418 761 q 304 456 358 608 q 244 226 250 303 q 209 206 231 211 q 174 203 188 201 q 158 207 161 204 q 231 596 181 435 q 149 508 181 535 q 121 540 132 514 q 113 597 110 565 m 385 -61 q 338 -49 343 -75 q 382 15 331 -18 q 410 31 394 24 q 476 167 447 94 q 508 267 504 239 q 587 322 543 301 q 657 343 631 343 q 696 336 683 343 q 616 206 681 313 q 515 54 551 100 q 625 54 565 61 q 771 396 697 299 q 853 409 811 415 q 897 374 896 403 q 722 38 800 219 q 785 14 768 25 q 740 -54 783 -18 q 717 -47 735 -53 q 692 -39 700 -42 q 656 -151 664 -108 q 569 -164 622 -182 q 604 -18 588 -75 q 467 -6 538 -6 q 385 -61 428 -44 z "},"ยฝ":{"ha":929,"x_min":22,"x_max":929,"o":"m 776 674 q 860 637 833 665 q 883 581 888 608 q 469 244 708 471 q 113 -139 229 17 q 22 -104 35 -154 q 280 222 117 44 q 577 516 443 399 q 776 674 711 633 m 113 597 q 263 689 169 606 q 290 740 289 738 q 374 762 331 763 q 424 736 418 761 q 304 454 358 607 q 244 226 250 301 q 210 206 231 211 q 176 203 189 201 q 158 207 163 204 q 232 594 181 436 q 149 508 171 526 q 119 540 131 514 q 113 597 108 567 m 368 -124 q 380 -110 374 -117 q 394 -100 386 -104 q 408 -92 401 -96 q 424 -86 414 -89 q 438 -82 433 -83 q 453 -78 443 -81 q 468 -76 464 -76 q 483 -75 472 -76 q 497 -74 494 -74 q 715 110 639 15 q 757 244 792 206 q 676 242 732 272 q 550 121 619 211 q 508 157 525 131 q 506 222 492 183 q 658 342 579 299 q 792 387 736 386 q 879 353 847 388 q 831 152 929 285 q 563 -79 733 19 q 796 -47 715 -35 q 778 -112 799 -71 q 728 -171 757 -154 q 503 -135 597 -122 q 371 -158 411 -179 q 368 -124 349 -147 z "},"ยพ":{"ha":931,"x_min":47,"x_max":926,"o":"m 719 336 q 635 197 694 297 q 542 54 575 97 q 650 54 586 61 q 794 396 724 303 q 878 409 836 415 q 921 374 919 403 q 746 38 826 221 q 808 14 786 28 q 764 -54 807 -18 q 741 -47 758 -53 q 715 -39 724 -42 q 681 -151 688 -112 q 593 -164 651 -178 q 628 -18 597 -144 q 492 -6 560 -6 q 408 -61 450 -46 q 361 -49 367 -75 q 407 15 356 -18 q 435 31 419 24 q 531 267 508 153 q 150 -139 268 21 q 60 -104 72 -154 q 447 357 196 111 q 814 674 699 603 q 899 637 871 665 q 922 581 926 608 q 611 338 792 497 q 719 336 704 349 m 56 382 q 130 428 86 411 q 185 436 174 446 q 157 340 158 379 q 171 285 156 300 q 210 271 186 269 q 294 325 250 272 q 340 454 339 378 q 279 526 340 506 q 190 507 210 489 q 214 544 175 521 q 265 567 235 557 l 376 669 q 315 660 358 667 q 256 651 272 653 q 206 644 240 649 q 168 644 171 640 q 178 707 164 672 q 206 756 193 742 q 449 726 356 724 q 547 749 514 768 q 550 714 569 736 q 457 682 525 685 q 402 629 439 665 q 349 578 365 593 q 475 503 474 593 q 424 367 476 439 q 293 249 371 294 q 151 213 215 204 q 74 252 101 219 q 49 319 47 285 q 56 382 50 354 z "},"ยฟ":{"ha":600,"x_min":-106,"x_max":525,"o":"m 375 461 q 288 576 310 515 q 351 622 310 583 q 415 694 392 660 q 525 610 492 664 q 375 461 479 519 m -104 -169 q -81 -53 -106 -107 q -17 38 -57 0 q 70 108 22 75 q 166 172 118 142 q 253 231 214 201 q 314 300 292 261 q 333 385 336 339 q 401 389 376 404 q 395 287 413 333 q 343 210 378 240 q 265 146 308 179 q 181 85 221 113 q 114 15 142 57 q 85 -75 86 -26 q 140 -162 83 -153 q 247 -117 196 -171 q 296 22 306 -58 q 458 78 383 88 q 310 -162 456 -53 q 54 -269 185 -256 q -99 -203 -74 -282 q -104 -169 -104 -187 z "},"ร":{"ha":1376,"x_min":-165,"x_max":1438,"o":"m 68 -287 q -79 -264 -7 -303 q -165 -167 -151 -225 q 332 376 -25 46 q 26 338 168 372 q 93 494 13 404 q 449 482 201 522 q 1121 963 842 825 q 1164 892 1161 938 l 1156 886 l 1161 886 q 1044 642 1093 768 q 974 414 994 517 q 960 235 953 311 q 1004 135 967 158 q 1193 166 1079 88 q 1376 388 1307 244 l 1438 347 q 1331 176 1394 251 q 1199 58 1267 100 q 1063 -7 1131 15 q 937 -25 994 -29 q 842 4 879 -21 q 817 317 747 67 q 526 374 707 358 q 232 18 356 194 q 68 -287 108 -158 m 604 453 q 842 396 724 428 q 1028 807 904 576 q 604 453 814 660 m 1053 1122 q 1101 1208 1061 1168 q 1185 1246 1142 1247 q 1350 1076 1219 1156 q 1344 1045 1353 1063 q 1324 1022 1336 1028 q 1053 1122 1121 1042 z "},"ร":{"ha":1376,"x_min":-165,"x_max":1438,"o":"m 68 -287 q -79 -264 -7 -303 q -165 -167 -151 -225 q 332 376 -25 46 q 26 338 168 372 q 93 494 13 404 q 449 482 201 522 q 1121 963 842 825 q 1164 892 1161 938 l 1156 886 l 1161 886 q 1044 642 1093 768 q 974 414 994 517 q 960 235 953 311 q 1004 135 967 158 q 1193 166 1079 88 q 1376 388 1307 244 l 1438 347 q 1331 176 1394 251 q 1199 58 1267 100 q 1063 -7 1131 15 q 937 -25 994 -29 q 842 4 879 -21 q 817 317 747 67 q 526 374 707 358 q 232 18 356 194 q 68 -287 108 -158 m 604 453 q 842 396 724 428 q 1028 807 904 576 q 604 453 814 660 m 1051 1011 q 1041 1038 1040 1017 q 1051 1078 1042 1060 q 1314 1314 1228 1188 q 1380 1274 1360 1319 q 1383 1168 1400 1229 q 1051 1011 1272 1060 z "},"ร":{"ha":1376,"x_min":-165,"x_max":1438,"o":"m 68 -287 q -79 -264 -7 -303 q -165 -167 -151 -225 q 332 376 -25 46 q 26 338 168 372 q 93 494 13 404 q 449 482 201 522 q 1121 963 842 825 q 1164 892 1161 938 l 1156 886 l 1161 886 q 1044 642 1093 768 q 974 414 994 517 q 960 235 953 311 q 1004 135 967 158 q 1193 166 1079 88 q 1376 388 1307 244 l 1438 347 q 1331 176 1394 251 q 1199 58 1267 100 q 1063 -7 1131 15 q 937 -25 994 -29 q 842 4 879 -21 q 817 317 747 67 q 526 374 707 358 q 232 18 356 194 q 68 -287 108 -158 m 604 453 q 842 396 724 428 q 1028 807 904 576 q 604 453 814 660 m 986 1071 q 1178 1251 1100 1149 q 1267 1218 1251 1240 q 1292 1151 1269 1183 q 1383 1057 1315 1118 q 1300 976 1353 992 q 1218 1143 1268 1051 q 1036 975 1157 1082 q 986 1071 988 1018 z "},"ร":{"ha":1376,"x_min":-165,"x_max":1463,"o":"m 68 -287 q -79 -264 -7 -303 q -165 -167 -151 -225 q 332 376 -25 46 q 26 338 168 372 q 93 494 13 404 q 449 482 201 522 q 1121 963 842 825 q 1164 892 1161 938 l 1156 886 l 1161 886 q 1044 642 1093 768 q 974 414 994 517 q 960 235 953 311 q 1004 135 967 158 q 1193 166 1079 88 q 1376 388 1307 244 l 1438 347 q 1331 176 1394 251 q 1199 58 1267 100 q 1063 -7 1131 15 q 937 -25 994 -29 q 842 4 879 -21 q 817 317 747 67 q 526 374 707 358 q 232 18 356 194 q 68 -287 108 -158 m 604 453 q 842 396 724 428 q 1028 807 904 576 q 604 453 814 660 m 975 1153 q 1078 1228 1035 1206 q 1144 1245 1122 1250 q 1183 1224 1167 1240 q 1208 1188 1200 1208 q 1226 1155 1215 1167 q 1253 1149 1238 1143 q 1324 1226 1307 1169 q 1417 1236 1371 1250 q 1454 1168 1463 1222 q 1310 1062 1390 1096 q 1194 1038 1231 1028 q 1165 1072 1175 1040 q 1151 1131 1156 1103 q 1135 1158 1146 1160 q 1092 1115 1114 1156 q 1065 1035 1069 1074 q 995 1067 1022 1024 q 975 1153 968 1111 z "},"ร":{"ha":1376,"x_min":-165,"x_max":1451,"o":"m 68 -287 q -79 -264 -7 -303 q -165 -167 -151 -225 q 332 376 -25 46 q 26 338 168 372 q 93 494 13 404 q 449 482 201 522 q 1121 963 842 825 q 1164 892 1161 938 l 1156 886 l 1161 886 q 1044 642 1093 768 q 974 414 994 517 q 960 235 953 311 q 1004 135 967 158 q 1193 166 1079 88 q 1376 388 1307 244 l 1438 347 q 1331 176 1394 251 q 1199 58 1267 100 q 1063 -7 1131 15 q 937 -25 994 -29 q 842 4 879 -21 q 817 317 747 67 q 526 374 707 358 q 232 18 356 194 q 68 -287 108 -158 m 604 453 q 842 396 724 428 q 1028 807 904 576 q 604 453 814 660 m 951 1124 q 983 1147 958 1129 q 1041 1191 1008 1165 q 1104 1246 1074 1217 q 1201 1168 1136 1204 q 1321 1265 1278 1224 q 1451 1175 1371 1200 q 1274 1017 1364 1067 q 1190 1106 1225 1057 q 1057 997 1121 1033 q 951 1124 978 1069 z "},"ร":{"ha":1376,"x_min":-165,"x_max":1496,"o":"m 68 -287 q -79 -264 -7 -303 q -165 -167 -151 -225 q 332 376 -25 46 q 26 338 168 372 q 93 494 13 404 q 449 482 201 522 q 1121 963 842 825 q 1164 892 1161 938 l 1156 886 l 1161 886 q 1044 642 1093 768 q 974 414 994 517 q 960 235 953 311 q 1004 135 967 158 q 1193 166 1079 88 q 1376 388 1307 244 l 1438 347 q 1331 176 1394 251 q 1199 58 1267 100 q 1063 -7 1131 15 q 937 -25 994 -29 q 842 4 879 -21 q 817 317 747 67 q 526 374 707 358 q 232 18 356 194 q 68 -287 108 -158 m 604 453 q 842 396 724 428 q 1028 807 904 576 q 604 453 814 660 m 1190 1029 q 1018 1061 1042 1000 q 1071 1181 997 1111 q 1301 1297 1158 1264 q 1472 1267 1443 1328 q 1429 1149 1494 1218 q 1190 1029 1344 1060 m 1199 1086 q 1293 1144 1243 1090 q 1317 1222 1346 1200 q 1263 1231 1303 1233 q 1156 1164 1188 1222 q 1158 1096 1129 1118 q 1199 1086 1172 1083 z "},"ร":{"ha":1872,"x_min":-165,"x_max":1939,"o":"m 68 -287 q -79 -264 -7 -303 q -165 -167 -151 -225 q 332 376 -25 46 q 26 338 168 372 q 93 494 13 404 q 449 482 201 522 q 1121 963 842 825 q 1157 919 1149 946 q 1429 991 1283 986 q 1676 933 1575 996 q 1747 841 1735 894 q 1742 743 1760 788 q 1701 642 1724 699 q 1681 554 1679 586 q 1550 551 1639 538 q 1438 604 1461 564 q 1489 684 1451 643 q 1556 748 1526 725 q 1603 804 1586 771 q 1596 864 1621 838 q 1515 905 1569 899 q 1396 886 1460 911 q 1273 816 1332 861 q 1174 694 1214 771 q 1131 531 1133 618 q 1349 525 1278 549 q 1404 443 1421 501 q 1334 382 1393 404 q 1197 372 1275 360 q 1064 431 1118 383 q 950 309 983 389 q 947 147 917 229 q 1067 18 978 64 q 1223 -17 1132 -15 q 1410 11 1314 -18 q 1598 91 1507 40 q 1764 219 1689 142 q 1878 386 1839 297 l 1939 349 q 1793 135 1888 232 q 1585 -22 1699 38 q 1348 -114 1471 -82 q 1106 -138 1225 -146 q 894 -85 988 -131 q 771 7 817 -46 q 714 117 725 60 q 715 228 703 174 q 761 335 728 283 q 526 374 656 364 q 232 18 356 194 q 68 -287 108 -158 m 604 453 q 818 403 719 428 q 1008 489 907 485 q 1007 793 915 657 q 604 453 806 650 z "},"ร":{"ha":1156,"x_min":3,"x_max":1219,"o":"m 221 -69 q 18 294 3 57 q 192 693 29 494 q 547 958 347 881 q 957 933 781 1049 q 1020 833 1015 894 q 997 716 1025 771 q 940 597 969 661 q 910 500 910 532 q 779 497 869 483 q 667 551 689 510 q 726 639 682 590 q 811 722 771 688 q 874 795 851 756 q 875 864 896 835 q 777 917 840 910 q 643 897 714 924 q 499 812 572 869 q 371 678 425 754 q 265 451 299 574 q 258 213 232 328 q 378 40 285 97 q 526 -3 439 3 q 705 18 613 -8 q 885 94 797 44 q 1045 220 972 143 q 1157 388 1118 297 l 1219 349 q 1001 62 1147 182 q 688 -106 856 -58 q 368 -124 519 -154 l 304 -176 q 441 -217 389 -179 q 495 -306 493 -254 q 458 -411 497 -357 q 268 -497 396 -486 q 61 -444 140 -508 q 86 -400 58 -417 q 203 -412 146 -424 q 297 -354 261 -400 q 317 -292 318 -321 q 277 -244 315 -262 q 175 -229 239 -225 l 201 -182 l 313 -110 q 221 -69 267 -96 z "},"ร":{"ha":1135,"x_min":-37,"x_max":1197,"o":"m 153 -85 q 19 19 67 -42 q -33 141 -28 79 q -16 265 -37 203 q 49 376 6 328 q 149 455 92 424 q 267 489 207 486 q 220 646 221 569 q 257 779 219 722 q 355 882 294 836 q 494 953 415 928 q 651 988 572 979 q 805 983 729 997 q 935 933 881 968 q 1006 841 993 894 q 1000 743 1018 788 q 960 642 982 699 q 939 554 938 586 q 808 551 897 538 q 696 604 719 564 q 747 684 710 643 q 815 748 785 725 q 862 804 844 771 q 854 864 879 838 q 773 905 828 899 q 654 886 718 911 q 531 816 590 861 q 432 694 472 771 q 389 531 392 618 q 608 525 536 549 q 663 443 679 501 q 592 382 651 404 q 455 372 533 360 q 322 431 376 383 q 208 309 242 389 q 206 147 175 229 q 325 18 236 64 q 481 -17 390 -15 q 669 11 572 -18 q 856 91 765 40 q 1022 219 947 142 q 1136 386 1097 297 l 1197 349 q 1051 135 1146 232 q 843 -22 957 38 q 606 -114 729 -82 q 365 -138 483 -146 q 153 -85 246 -131 m 668 1147 q 717 1233 676 1193 q 800 1271 757 1272 q 965 1101 835 1181 q 960 1070 968 1088 q 939 1047 951 1053 q 668 1147 736 1067 z "},"ร":{"ha":1135,"x_min":-37,"x_max":1197,"o":"m 153 -85 q 19 19 67 -42 q -33 141 -28 79 q -16 265 -37 203 q 49 376 6 328 q 149 455 92 424 q 267 489 207 486 q 220 646 221 569 q 257 779 219 722 q 355 882 294 836 q 494 953 415 928 q 651 988 572 979 q 805 983 729 997 q 935 933 881 968 q 1006 841 993 894 q 1000 743 1018 788 q 960 642 982 699 q 939 554 938 586 q 808 551 897 538 q 696 604 719 564 q 747 684 710 643 q 815 748 785 725 q 862 804 844 771 q 854 864 879 838 q 773 905 828 899 q 654 886 718 911 q 531 816 590 861 q 432 694 472 771 q 389 531 392 618 q 608 525 536 549 q 663 443 679 501 q 592 382 651 404 q 455 372 533 360 q 322 431 376 383 q 208 309 242 389 q 206 147 175 229 q 325 18 236 64 q 481 -17 390 -15 q 669 11 572 -18 q 856 91 765 40 q 1022 219 947 142 q 1136 386 1097 297 l 1197 349 q 1051 135 1146 232 q 843 -22 957 38 q 606 -114 729 -82 q 365 -138 483 -146 q 153 -85 246 -131 m 667 1036 q 656 1063 656 1042 q 667 1103 657 1085 q 929 1339 843 1213 q 995 1299 975 1344 q 999 1193 1015 1254 q 667 1036 888 1085 z "},"ร":{"ha":1135,"x_min":-37,"x_max":1197,"o":"m 153 -85 q 19 19 67 -42 q -33 141 -28 79 q -16 265 -37 203 q 49 376 6 328 q 149 455 92 424 q 267 489 207 486 q 220 646 221 569 q 257 779 219 722 q 355 882 294 836 q 494 953 415 928 q 651 988 572 979 q 805 983 729 997 q 935 933 881 968 q 1006 841 993 894 q 1000 743 1018 788 q 960 642 982 699 q 939 554 938 586 q 808 551 897 538 q 696 604 719 564 q 747 684 710 643 q 815 748 785 725 q 862 804 844 771 q 854 864 879 838 q 773 905 828 899 q 654 886 718 911 q 531 816 590 861 q 432 694 472 771 q 389 531 392 618 q 608 525 536 549 q 663 443 679 501 q 592 382 651 404 q 455 372 533 360 q 322 431 376 383 q 208 309 242 389 q 206 147 175 229 q 325 18 236 64 q 481 -17 390 -15 q 669 11 572 -18 q 856 91 765 40 q 1022 219 947 142 q 1136 386 1097 297 l 1197 349 q 1051 135 1146 232 q 843 -22 957 38 q 606 -114 729 -82 q 365 -138 483 -146 q 153 -85 246 -131 m 601 1096 q 793 1276 715 1174 q 882 1243 867 1265 q 908 1176 885 1208 q 999 1082 931 1143 q 915 1001 968 1017 q 833 1168 883 1076 q 651 1000 772 1107 q 601 1096 603 1043 z "},"ร":{"ha":1135,"x_min":-37,"x_max":1197,"o":"m 153 -85 q 19 19 67 -42 q -33 141 -28 79 q -16 265 -37 203 q 49 376 6 328 q 149 455 92 424 q 267 489 207 486 q 220 646 221 569 q 257 779 219 722 q 355 882 294 836 q 494 953 415 928 q 651 988 572 979 q 805 983 729 997 q 935 933 881 968 q 1006 841 993 894 q 1000 743 1018 788 q 960 642 982 699 q 939 554 938 586 q 808 551 897 538 q 696 604 719 564 q 747 684 710 643 q 815 748 785 725 q 862 804 844 771 q 854 864 879 838 q 773 905 828 899 q 654 886 718 911 q 531 816 590 861 q 432 694 472 771 q 389 531 392 618 q 608 525 536 549 q 663 443 679 501 q 592 382 651 404 q 455 372 533 360 q 322 431 376 383 q 208 309 242 389 q 206 147 175 229 q 325 18 236 64 q 481 -17 390 -15 q 669 11 572 -18 q 856 91 765 40 q 1022 219 947 142 q 1136 386 1097 297 l 1197 349 q 1051 135 1146 232 q 843 -22 957 38 q 606 -114 729 -82 q 365 -138 483 -146 q 153 -85 246 -131 m 567 1149 q 599 1172 574 1154 q 656 1216 624 1190 q 719 1271 689 1242 q 817 1193 751 1229 q 936 1290 893 1249 q 1067 1200 986 1225 q 889 1042 979 1092 q 806 1131 840 1082 q 672 1022 736 1058 q 567 1149 593 1094 z "},"ร":{"ha":729,"x_min":-93,"x_max":790,"o":"m -25 -160 q -92 -15 -92 -103 q -44 188 -93 74 q 67 424 6 303 q 192 706 129 544 q 276 1013 256 868 q 474 901 346 999 q 419 721 461 824 q 328 526 378 618 q 226 335 279 435 q 139 164 174 235 q 91 31 104 93 q 107 -49 78 -32 q 299 -37 169 -100 q 551 147 428 25 q 731 388 674 269 l 790 347 q 641 131 746 247 q 413 -70 536 15 q 170 -190 290 -156 q -25 -160 50 -224 m 299 1135 q 347 1220 307 1181 q 431 1258 388 1260 q 596 1089 465 1168 q 590 1058 599 1075 q 569 1035 582 1040 q 299 1135 367 1054 z "},"ร":{"ha":729,"x_min":-93,"x_max":790,"o":"m -25 -160 q -92 -15 -92 -103 q -44 188 -93 74 q 67 424 6 303 q 192 706 129 544 q 276 1013 256 868 q 474 901 346 999 q 419 721 461 824 q 328 526 378 618 q 226 335 279 435 q 139 164 174 235 q 91 31 104 93 q 107 -49 78 -32 q 299 -37 169 -100 q 551 147 428 25 q 731 388 674 269 l 790 347 q 641 131 746 247 q 413 -70 536 15 q 170 -190 290 -156 q -25 -160 50 -224 m 297 1024 q 287 1051 286 1029 q 297 1090 288 1072 q 560 1326 474 1200 q 626 1287 606 1332 q 629 1181 646 1242 q 297 1024 518 1072 z "},"ร":{"ha":729,"x_min":-94,"x_max":790,"o":"m -25 -160 q -93 -17 -92 -104 q -46 183 -94 69 q 63 415 3 296 q 187 694 124 533 q 274 996 250 854 q 232 1083 233 1036 q 424 1264 346 1161 q 513 1231 497 1253 q 538 1163 515 1196 q 629 1069 561 1131 q 546 989 599 1004 q 464 1156 514 1064 q 301 1006 414 1106 q 474 901 376 976 q 419 721 461 824 q 328 526 378 618 q 226 335 279 435 q 139 164 174 235 q 91 31 104 93 q 107 -49 78 -32 q 299 -37 169 -100 q 551 147 428 25 q 731 388 674 269 l 790 347 q 641 131 746 247 q 413 -70 536 15 q 170 -190 290 -156 q -25 -160 50 -224 z "},"ร":{"ha":729,"x_min":-93,"x_max":790,"o":"m -25 -160 q -92 -15 -92 -103 q -44 188 -93 74 q 67 424 6 303 q 192 706 129 544 q 276 1013 256 868 q 474 901 346 999 q 419 721 461 824 q 328 526 378 618 q 226 335 279 435 q 139 164 174 235 q 91 31 104 93 q 107 -49 78 -32 q 299 -37 169 -100 q 551 147 428 25 q 731 388 674 269 l 790 347 q 641 131 746 247 q 413 -70 536 15 q 170 -190 290 -156 q -25 -160 50 -224 m 197 1136 q 229 1160 204 1142 q 287 1203 254 1178 q 350 1258 319 1229 q 447 1181 382 1217 q 567 1278 524 1236 q 697 1188 617 1213 q 519 1029 610 1079 q 436 1118 471 1069 q 303 1010 367 1046 q 197 1136 224 1082 z "},"ร":{"ha":1529,"x_min":67,"x_max":1426,"o":"m 533 -22 q 434 -3 489 -33 q 371 65 379 26 q 517 357 392 160 q 356 306 431 342 q 381 416 351 361 q 454 510 411 471 q 624 531 539 526 q 796 893 738 726 q 885 890 825 901 q 953 864 946 878 q 933 803 946 833 q 897 735 919 774 q 860 673 875 696 q 811 598 846 650 q 764 526 776 546 q 900 493 844 518 q 858 344 899 410 q 669 371 779 371 q 533 -22 563 176 m 72 200 q 156 231 103 222 q 257 226 210 240 q 347 -40 211 63 q 731 -89 482 -142 q 912 -11 826 -68 q 1055 125 997 46 q 1154 297 1113 204 q 1208 485 1196 389 q 1209 665 1219 581 q 1154 819 1199 750 q 1039 924 1110 888 q 873 960 964 961 q 708 935 782 958 q 542 860 635 913 q 400 775 449 808 q 282 690 351 742 q 192 831 192 722 q 369 908 300 879 q 560 975 439 938 q 775 1023 682 1013 q 982 1020 868 1033 q 1192 958 1096 1007 q 1368 797 1310 899 q 1424 582 1426 696 q 1369 346 1421 468 q 1228 121 1317 224 q 1015 -59 1140 18 q 750 -162 889 -136 q 396 -167 549 -196 q 155 -42 243 -139 q 72 200 67 56 z "},"ร":{"ha":1299,"x_min":-185,"x_max":1782,"o":"m 49 -325 q -98 -299 -25 -339 q -185 -203 -171 -260 q 100 -2 -40 -117 q 376 262 240 113 q 608 596 513 411 q 732 969 704 781 q 849 960 799 989 l 842 935 l 854 947 q 936 464 913 701 q 1280 811 1089 643 q 1643 1064 1471 979 q 1782 926 1710 1038 q 1524 835 1651 897 q 1289 689 1396 772 q 1100 526 1182 606 q 943 357 1018 446 q 882 51 953 115 q 758 22 804 -19 q 739 160 715 61 q 756 210 746 185 q 807 299 769 240 q 751 689 797 550 q 452 147 633 419 q 49 -325 271 -126 m 946 1060 q 1049 1135 1006 1113 q 1115 1152 1093 1157 q 1154 1131 1138 1147 q 1178 1094 1171 1115 q 1197 1062 1186 1074 q 1224 1056 1208 1050 q 1294 1133 1278 1076 q 1388 1143 1342 1157 q 1425 1075 1433 1129 q 1281 969 1361 1003 q 1165 944 1201 935 q 1136 978 1146 947 q 1122 1038 1126 1010 q 1106 1065 1117 1067 q 1063 1022 1085 1063 q 1036 942 1040 981 q 966 974 993 931 q 946 1060 939 1018 z "},"ร":{"ha":1153,"x_min":6,"x_max":1065,"o":"m 364 39 q 543 19 454 -11 q 701 126 632 50 q 814 317 771 203 q 856 549 857 432 q 732 551 785 533 q 664 617 679 568 q 793 681 750 629 q 828 788 836 732 q 775 872 821 843 q 689 897 738 896 q 585 876 640 897 q 472 803 531 854 q 360 678 413 751 q 251 447 286 572 q 242 206 217 321 q 364 39 268 90 m 207 -72 q 53 86 100 -17 q 19 306 6 189 q 93 544 32 422 q 253 763 154 667 q 513 945 372 881 q 782 993 653 1010 q 997 824 935 972 q 997 453 1064 665 q 699 32 918 204 q 440 -115 583 -60 q 330 -112 397 -122 q 207 -72 263 -101 m 667 1156 q 715 1241 675 1201 q 799 1279 756 1281 q 964 1110 833 1189 q 958 1078 967 1096 q 938 1056 950 1061 q 667 1156 735 1075 z "},"ร":{"ha":1153,"x_min":6,"x_max":1065,"o":"m 364 39 q 543 19 454 -11 q 701 126 632 50 q 814 317 771 203 q 856 549 857 432 q 732 551 785 533 q 664 617 679 568 q 793 681 750 629 q 828 788 836 732 q 775 872 821 843 q 689 897 738 896 q 585 876 640 897 q 472 803 531 854 q 360 678 413 751 q 251 447 286 572 q 242 206 217 321 q 364 39 268 90 m 207 -72 q 53 86 100 -17 q 19 306 6 189 q 93 544 32 422 q 253 763 154 667 q 513 945 372 881 q 782 993 653 1010 q 997 824 935 972 q 997 453 1064 665 q 699 32 918 204 q 440 -115 583 -60 q 330 -112 397 -122 q 207 -72 263 -101 m 665 1044 q 655 1072 654 1050 q 665 1111 656 1093 q 928 1347 842 1221 q 994 1308 974 1353 q 997 1201 1014 1263 q 665 1044 886 1093 z "},"ร":{"ha":1153,"x_min":6,"x_max":1065,"o":"m 364 39 q 543 19 454 -11 q 701 126 632 50 q 814 317 771 203 q 856 549 857 432 q 732 551 785 533 q 664 617 679 568 q 793 681 750 629 q 828 788 836 732 q 775 872 821 843 q 689 897 738 896 q 585 876 640 897 q 472 803 531 854 q 360 678 413 751 q 251 447 286 572 q 242 206 217 321 q 364 39 268 90 m 207 -72 q 53 86 100 -17 q 19 306 6 189 q 93 544 32 422 q 253 763 154 667 q 513 945 372 881 q 782 993 653 1010 q 997 824 935 972 q 997 453 1064 665 q 699 32 918 204 q 440 -115 583 -60 q 330 -112 397 -122 q 207 -72 263 -101 m 600 1104 q 792 1285 714 1182 q 881 1251 865 1274 q 906 1184 883 1217 q 997 1090 929 1151 q 914 1010 967 1025 q 832 1176 882 1085 q 650 1008 771 1115 q 600 1104 601 1051 z "},"ร":{"ha":1153,"x_min":6,"x_max":1076,"o":"m 364 39 q 543 19 454 -11 q 701 126 632 50 q 814 317 771 203 q 856 549 857 432 q 732 551 785 533 q 664 617 679 568 q 793 681 750 629 q 828 788 836 732 q 775 872 821 843 q 689 897 738 896 q 585 876 640 897 q 472 803 531 854 q 360 678 413 751 q 251 447 286 572 q 242 206 217 321 q 364 39 268 90 m 207 -72 q 53 86 100 -17 q 19 306 6 189 q 93 544 32 422 q 253 763 154 667 q 513 945 372 881 q 782 993 653 1010 q 997 824 935 972 q 997 453 1064 665 q 699 32 918 204 q 440 -115 583 -60 q 330 -112 397 -122 q 207 -72 263 -101 m 589 1186 q 692 1261 649 1239 q 758 1278 736 1283 q 797 1258 781 1274 q 822 1221 814 1242 q 840 1188 829 1200 q 867 1182 851 1176 q 938 1260 921 1203 q 1031 1269 985 1283 q 1068 1201 1076 1256 q 924 1095 1004 1129 q 808 1071 844 1061 q 779 1105 789 1074 q 765 1165 769 1136 q 749 1192 760 1193 q 706 1148 728 1189 q 679 1068 683 1107 q 609 1101 636 1057 q 589 1186 582 1144 z "},"ร":{"ha":1153,"x_min":6,"x_max":1065,"o":"m 364 39 q 543 19 454 -11 q 701 126 632 50 q 814 317 771 203 q 856 549 857 432 q 732 551 785 533 q 664 617 679 568 q 793 681 750 629 q 828 788 836 732 q 775 872 821 843 q 689 897 738 896 q 585 876 640 897 q 472 803 531 854 q 360 678 413 751 q 251 447 286 572 q 242 206 217 321 q 364 39 268 90 m 207 -72 q 53 86 100 -17 q 19 306 6 189 q 93 544 32 422 q 253 763 154 667 q 513 945 372 881 q 782 993 653 1010 q 997 824 935 972 q 997 453 1064 665 q 699 32 918 204 q 440 -115 583 -60 q 330 -112 397 -122 q 207 -72 263 -101 m 565 1157 q 597 1181 572 1163 q 655 1224 622 1199 q 718 1279 688 1250 q 815 1201 750 1238 q 935 1299 892 1257 q 1065 1208 985 1233 q 888 1050 978 1100 q 804 1139 839 1090 q 671 1031 735 1067 q 565 1157 592 1103 z "},"ร":{"ha":785,"x_min":78,"x_max":665,"o":"m 644 447 q 500 301 568 363 q 604 74 578 164 q 559 22 581 36 q 506 1 538 7 q 401 208 457 115 q 142 6 246 69 q 94 29 107 15 q 78 72 82 43 q 346 296 192 150 q 143 529 244 447 q 217 588 167 576 q 308 579 268 599 q 444 393 399 468 q 604 586 542 493 q 657 535 649 578 q 644 447 665 493 z "},"ร":{"ha":1153,"x_min":-17,"x_max":1165,"o":"m 364 39 q 543 19 454 -11 q 701 126 632 50 q 814 317 771 203 q 856 549 857 432 q 715 558 769 529 q 286 106 483 344 q 364 39 317 63 m -11 -143 q 97 15 39 -64 q 31 378 -17 163 q 253 763 79 594 q 513 945 372 881 q 782 993 653 1010 q 944 910 879 981 q 1050 994 1014 968 q 1140 965 1115 996 q 1153 896 1165 933 q 1007 799 1078 851 q 1029 652 1029 732 q 1008 487 1029 572 q 938 314 986 401 q 822 148 890 226 q 656 0 754 69 q 440 -115 557 -69 q 330 -112 397 -122 q 207 -72 263 -101 q 165 -47 186 -61 q 86 -169 111 -125 q 24 -181 56 -186 q -11 -143 -8 -175 m 242 203 q 824 806 490 507 q 775 872 813 850 q 689 897 738 896 q 585 876 640 897 q 472 803 531 854 q 360 678 413 751 q 251 440 286 572 q 242 203 217 308 z "},"ร":{"ha":1229,"x_min":-83,"x_max":1292,"o":"m -18 -32 q -76 49 -69 0 q -53 160 -83 99 q 25 291 -24 221 q 131 444 74 361 q 235 610 188 528 q 310 788 282 692 q 331 969 339 883 q 517 933 465 985 q 490 799 518 871 q 420 660 463 726 q 328 528 378 594 q 235 402 278 461 q 166 292 193 343 q 142 200 139 242 q 183 133 144 158 q 324 173 231 103 q 606 422 417 243 q 636 452 625 442 q 665 480 647 463 q 699 511 683 497 q 1056 979 818 768 q 1165 878 1117 967 q 968 715 1053 808 q 841 531 883 621 q 782 358 799 440 q 780 216 765 275 q 832 135 794 157 q 1035 167 908 88 q 1231 388 1161 247 l 1292 347 q 1181 176 1249 251 q 1042 58 1114 100 q 899 -7 971 15 q 767 -25 828 -29 q 669 4 707 -21 q 613 134 621 38 q 643 367 604 231 q 534 257 585 306 q 427 158 483 208 q 323 71 371 107 q 225 5 275 35 q 133 -39 175 -25 q 53 -52 92 -53 q -18 -32 14 -51 m 642 1072 q 690 1158 650 1118 q 774 1196 731 1197 q 939 1026 808 1106 q 933 995 942 1013 q 913 972 925 978 q 642 1072 710 992 z "},"ร":{"ha":1229,"x_min":-83,"x_max":1292,"o":"m -18 -32 q -76 49 -69 0 q -53 160 -83 99 q 25 291 -24 221 q 131 444 74 361 q 235 610 188 528 q 310 788 282 692 q 331 969 339 883 q 517 933 465 985 q 490 799 518 871 q 420 660 463 726 q 328 528 378 594 q 235 402 278 461 q 166 292 193 343 q 142 200 139 242 q 183 133 144 158 q 324 173 231 103 q 606 422 417 243 q 636 452 625 442 q 665 480 647 463 q 699 511 683 497 q 1056 979 818 768 q 1165 878 1117 967 q 968 715 1053 808 q 841 531 883 621 q 782 358 799 440 q 780 216 765 275 q 832 135 794 157 q 1035 167 908 88 q 1231 388 1161 247 l 1292 347 q 1181 176 1249 251 q 1042 58 1114 100 q 899 -7 971 15 q 767 -25 828 -29 q 669 4 707 -21 q 613 134 621 38 q 643 367 604 231 q 534 257 585 306 q 427 158 483 208 q 323 71 371 107 q 225 5 275 35 q 133 -39 175 -25 q 53 -52 92 -53 q -18 -32 14 -51 m 640 961 q 630 988 629 967 q 640 1028 631 1010 q 903 1264 817 1138 q 969 1224 949 1269 q 972 1118 989 1179 q 640 961 861 1010 z "},"ร":{"ha":1229,"x_min":-83,"x_max":1292,"o":"m -18 -32 q -76 49 -69 0 q -53 160 -83 99 q 25 291 -24 221 q 131 444 74 361 q 235 610 188 528 q 310 788 282 692 q 331 969 339 883 q 517 933 465 985 q 490 799 518 871 q 420 660 463 726 q 328 528 378 594 q 235 402 278 461 q 166 292 193 343 q 142 200 139 242 q 183 133 144 158 q 324 173 231 103 q 606 422 417 243 q 636 452 625 442 q 665 480 647 463 q 699 511 683 497 q 1056 979 818 768 q 1165 878 1117 967 q 968 715 1053 808 q 841 531 883 621 q 782 358 799 440 q 780 216 765 275 q 832 135 794 157 q 1035 167 908 88 q 1231 388 1161 247 l 1292 347 q 1181 176 1249 251 q 1042 58 1114 100 q 899 -7 971 15 q 767 -25 828 -29 q 669 4 707 -21 q 613 134 621 38 q 643 367 604 231 q 534 257 585 306 q 427 158 483 208 q 323 71 371 107 q 225 5 275 35 q 133 -39 175 -25 q 53 -52 92 -53 q -18 -32 14 -51 m 575 1021 q 767 1201 689 1099 q 856 1168 840 1190 q 881 1101 858 1133 q 972 1007 904 1068 q 889 926 942 942 q 807 1093 857 1001 q 625 925 746 1032 q 575 1021 576 968 z "},"ร":{"ha":1229,"x_min":-83,"x_max":1292,"o":"m -18 -32 q -76 49 -69 0 q -53 160 -83 99 q 25 291 -24 221 q 131 444 74 361 q 235 610 188 528 q 310 788 282 692 q 331 969 339 883 q 517 933 465 985 q 490 799 518 871 q 420 660 463 726 q 328 528 378 594 q 235 402 278 461 q 166 292 193 343 q 142 200 139 242 q 183 133 144 158 q 324 173 231 103 q 606 422 417 243 q 636 452 625 442 q 665 480 647 463 q 699 511 683 497 q 1056 979 818 768 q 1165 878 1117 967 q 968 715 1053 808 q 841 531 883 621 q 782 358 799 440 q 780 216 765 275 q 832 135 794 157 q 1035 167 908 88 q 1231 388 1161 247 l 1292 347 q 1181 176 1249 251 q 1042 58 1114 100 q 899 -7 971 15 q 767 -25 828 -29 q 669 4 707 -21 q 613 134 621 38 q 643 367 604 231 q 534 257 585 306 q 427 158 483 208 q 323 71 371 107 q 225 5 275 35 q 133 -39 175 -25 q 53 -52 92 -53 q -18 -32 14 -51 m 540 1074 q 572 1097 547 1079 q 630 1141 597 1115 q 693 1196 663 1167 q 790 1118 725 1154 q 910 1215 867 1174 q 1040 1125 960 1150 q 863 967 953 1017 q 779 1056 814 1007 q 646 947 710 983 q 540 1074 567 1019 z "},"ร":{"ha":964,"x_min":-76,"x_max":1114,"o":"m -17 -32 q -76 67 -76 4 q -32 201 -76 129 q 76 367 13 272 q 201 553 140 461 q 301 758 263 646 q 329 969 339 871 q 517 933 464 985 q 490 799 518 871 q 419 660 463 726 q 327 528 376 594 q 235 402 278 461 q 166 292 193 343 q 141 200 139 242 q 183 133 143 158 q 321 171 229 103 q 596 414 413 239 q 933 888 765 731 q 1114 785 1043 879 q 842 490 1001 699 q 533 17 682 281 q 314 -457 383 -246 q 258 -365 257 -417 q 497 219 378 -29 q 197 -12 326 58 q -17 -32 68 -83 m 618 994 q 608 1022 607 1000 q 618 1061 608 1043 q 881 1297 794 1171 q 947 1258 926 1303 q 950 1151 967 1213 q 618 994 839 1043 z "},"ร":{"ha":1522,"x_min":54,"x_max":1378,"o":"m 599 -328 q 465 -353 539 -364 q 361 -300 390 -343 q 530 157 401 -118 q 817 671 658 432 q 741 660 781 668 q 669 644 701 653 q 592 616 636 635 q 521 586 549 597 q 447 549 493 575 q 380 513 400 524 q 313 472 360 501 q 256 436 267 443 q 199 399 244 429 q 153 368 154 368 q 54 529 54 406 q 240 610 165 579 q 431 681 315 642 q 659 739 547 721 q 875 754 771 757 q 1042 961 951 865 q 1115 931 1083 956 q 978 744 1047 849 q 1200 675 1096 728 q 1364 453 1350 600 q 1260 179 1378 311 q 875 -18 1118 21 q 635 -22 760 -36 q 599 -328 590 -206 m 656 53 q 833 51 750 40 q 978 97 915 63 q 1089 176 1042 131 q 1158 277 1136 221 q 1182 389 1181 333 q 1156 500 1183 444 q 1074 597 1128 556 q 928 664 1008 646 q 656 53 749 367 z "},"ร":{"ha":654,"x_min":-306,"x_max":715,"o":"m -304 -171 q -55 277 -224 -57 q 149 668 114 611 q 349 850 218 783 q 590 908 481 917 q 614 832 607 869 q 610 733 621 794 q 561 610 599 672 q 438 465 524 549 q 222 294 351 381 q 333 305 294 310 q 388 283 372 300 q 397 237 404 267 q 371 174 390 207 q 319 101 351 140 q 503 202 404 124 q 656 388 601 281 l 715 347 q 494 117 674 251 q 179 -35 315 -17 q 71 -107 133 -68 q 71 49 1 -74 q 214 167 175 106 q 161 236 257 232 q 50 226 118 238 q -104 -217 -36 25 q -177 -233 -129 -231 q -265 -220 -225 -236 q -304 -171 -306 -204 m 92 324 q 335 508 231 371 q 424 749 439 644 q 92 324 285 743 z "},"ร":{"ha":863,"x_min":-90,"x_max":925,"o":"m 136 17 q 45 5 86 4 q -23 24 4 6 q -68 71 -50 43 q -88 138 -86 99 q -81 221 -90 178 q -46 315 -72 264 q 21 414 -19 365 q 142 515 76 481 q 265 549 208 550 q 366 519 321 549 q 429 435 411 489 q 474 501 447 468 q 557 465 507 493 q 617 411 607 436 q 595 363 608 392 q 575 319 582 333 q 559 283 568 304 q 547 251 550 261 q 539 225 543 240 q 535 201 535 210 q 538 181 536 192 q 544 163 539 171 q 558 146 550 154 q 613 134 576 125 q 691 169 650 143 q 779 253 732 196 q 865 388 826 311 l 925 347 q 869 241 903 294 q 786 134 835 188 q 673 48 738 81 q 542 17 608 15 q 430 65 472 18 q 378 186 388 111 q 136 17 254 49 m 172 126 q 385 321 258 149 q 390 340 386 328 q 396 358 394 353 q 362 437 388 410 q 289 452 336 464 q 183 376 242 440 q 76 172 71 253 q 142 121 81 117 q 172 126 156 122 m 286 756 q 335 841 294 801 q 418 879 375 881 q 583 710 453 789 q 578 678 586 696 q 557 656 569 661 q 286 756 354 675 z "},"รก":{"ha":863,"x_min":-90,"x_max":925,"o":"m 136 17 q 45 5 86 4 q -23 24 4 6 q -68 71 -50 43 q -88 138 -86 99 q -81 221 -90 178 q -46 315 -72 264 q 21 414 -19 365 q 142 515 76 481 q 265 549 208 550 q 366 519 321 549 q 429 435 411 489 q 474 501 447 468 q 557 465 507 493 q 617 411 607 436 q 595 363 608 392 q 575 319 582 333 q 559 283 568 304 q 547 251 550 261 q 539 225 543 240 q 535 201 535 210 q 538 181 536 192 q 544 163 539 171 q 558 146 550 154 q 613 134 576 125 q 691 169 650 143 q 779 253 732 196 q 865 388 826 311 l 925 347 q 869 241 903 294 q 786 134 835 188 q 673 48 738 81 q 542 17 608 15 q 430 65 472 18 q 378 186 388 111 q 136 17 254 49 m 172 126 q 385 321 258 149 q 390 340 386 328 q 396 358 394 353 q 362 437 388 410 q 289 452 336 464 q 183 376 242 440 q 76 172 71 253 q 142 121 81 117 q 172 126 156 122 m 285 644 q 274 672 274 650 q 285 711 275 693 q 547 947 461 821 q 613 908 593 953 q 617 801 633 863 q 285 644 506 693 z "},"รข":{"ha":863,"x_min":-90,"x_max":925,"o":"m 136 17 q 45 5 86 4 q -23 24 4 6 q -68 71 -50 43 q -88 138 -86 99 q -81 221 -90 178 q -46 315 -72 264 q 21 414 -19 365 q 142 515 76 481 q 265 549 208 550 q 366 519 321 549 q 429 435 411 489 q 474 501 447 468 q 557 465 507 493 q 617 411 607 436 q 595 363 608 392 q 575 319 582 333 q 559 283 568 304 q 547 251 550 261 q 539 225 543 240 q 535 201 535 210 q 538 181 536 192 q 544 163 539 171 q 558 146 550 154 q 613 134 576 125 q 691 169 650 143 q 779 253 732 196 q 865 388 826 311 l 925 347 q 869 241 903 294 q 786 134 835 188 q 673 48 738 81 q 542 17 608 15 q 430 65 472 18 q 378 186 388 111 q 136 17 254 49 m 172 126 q 385 321 258 149 q 390 340 386 328 q 396 358 394 353 q 362 437 388 410 q 289 452 336 464 q 183 376 242 440 q 76 172 71 253 q 142 121 81 117 q 172 126 156 122 m 219 704 q 411 885 333 782 q 500 851 485 874 q 526 784 503 817 q 617 690 549 751 q 533 610 586 625 q 451 776 501 685 q 269 608 390 715 q 219 704 221 651 z "},"รฃ":{"ha":863,"x_min":-90,"x_max":925,"o":"m 136 17 q 45 5 86 4 q -23 24 4 6 q -68 71 -50 43 q -88 138 -86 99 q -81 221 -90 178 q -46 315 -72 264 q 21 414 -19 365 q 142 515 76 481 q 265 549 208 550 q 366 519 321 549 q 429 435 411 489 q 474 501 447 468 q 557 465 507 493 q 617 411 607 436 q 595 363 608 392 q 575 319 582 333 q 559 283 568 304 q 547 251 550 261 q 539 225 543 240 q 535 201 535 210 q 538 181 536 192 q 544 163 539 171 q 558 146 550 154 q 613 134 576 125 q 691 169 650 143 q 779 253 732 196 q 865 388 826 311 l 925 347 q 869 241 903 294 q 786 134 835 188 q 673 48 738 81 q 542 17 608 15 q 430 65 472 18 q 378 186 388 111 q 136 17 254 49 m 172 126 q 385 321 258 149 q 390 340 386 328 q 396 358 394 353 q 362 437 388 410 q 289 452 336 464 q 183 376 242 440 q 76 172 71 253 q 142 121 81 117 q 172 126 156 122 m 208 786 q 312 861 268 839 q 378 878 356 883 q 417 858 400 874 q 441 821 433 842 q 460 788 449 800 q 486 782 471 776 q 557 860 540 803 q 650 869 604 883 q 688 801 696 856 q 544 695 624 729 q 428 671 464 661 q 399 705 408 674 q 384 765 389 736 q 368 792 379 793 q 325 748 347 789 q 299 668 303 707 q 228 701 256 657 q 208 786 201 744 z "},"รค":{"ha":863,"x_min":-90,"x_max":925,"o":"m 136 17 q 45 5 86 4 q -23 24 4 6 q -68 71 -50 43 q -88 138 -86 99 q -81 221 -90 178 q -46 315 -72 264 q 21 414 -19 365 q 142 515 76 481 q 265 549 208 550 q 366 519 321 549 q 429 435 411 489 q 474 501 447 468 q 557 465 507 493 q 617 411 607 436 q 595 363 608 392 q 575 319 582 333 q 559 283 568 304 q 547 251 550 261 q 539 225 543 240 q 535 201 535 210 q 538 181 536 192 q 544 163 539 171 q 558 146 550 154 q 613 134 576 125 q 691 169 650 143 q 779 253 732 196 q 865 388 826 311 l 925 347 q 869 241 903 294 q 786 134 835 188 q 673 48 738 81 q 542 17 608 15 q 430 65 472 18 q 378 186 388 111 q 136 17 254 49 m 172 126 q 385 321 258 149 q 390 340 386 328 q 396 358 394 353 q 362 437 388 410 q 289 452 336 464 q 183 376 242 440 q 76 172 71 253 q 142 121 81 117 q 172 126 156 122 m 185 757 q 217 781 192 763 q 274 824 242 799 q 338 879 307 850 q 435 801 369 838 q 554 899 511 857 q 685 808 604 833 q 507 650 597 700 q 424 739 458 690 q 290 631 354 667 q 185 757 211 703 z "},"รฅ":{"ha":863,"x_min":-90,"x_max":925,"o":"m 136 17 q 45 5 86 4 q -23 24 4 6 q -68 71 -50 43 q -88 138 -86 99 q -81 221 -90 178 q -46 315 -72 264 q 21 414 -19 365 q 142 515 76 481 q 265 549 208 550 q 366 519 321 549 q 429 435 411 489 q 474 501 447 468 q 557 465 507 493 q 617 411 607 436 q 595 363 608 392 q 575 319 582 333 q 559 283 568 304 q 547 251 550 261 q 539 225 543 240 q 535 201 535 210 q 538 181 536 192 q 544 163 539 171 q 558 146 550 154 q 613 134 576 125 q 691 169 650 143 q 779 253 732 196 q 865 388 826 311 l 925 347 q 869 241 903 294 q 786 134 835 188 q 673 48 738 81 q 542 17 608 15 q 430 65 472 18 q 378 186 388 111 q 136 17 254 49 m 172 126 q 385 321 258 149 q 390 340 386 328 q 396 358 394 353 q 362 437 388 410 q 289 452 336 464 q 183 376 242 440 q 76 172 71 253 q 142 121 81 117 q 172 126 156 122 m 424 663 q 251 694 275 633 q 304 814 231 744 q 535 931 390 897 q 706 900 676 961 q 663 782 728 851 q 424 663 578 693 m 432 719 q 526 778 476 724 q 550 856 579 833 q 496 864 536 867 q 389 797 421 856 q 392 729 363 751 q 432 719 406 717 z "},"รฆ":{"ha":1135,"x_min":-90,"x_max":1204,"o":"m 136 17 q 45 5 86 4 q -23 24 4 6 q -68 71 -50 43 q -88 138 -86 99 q -81 221 -90 178 q -46 315 -72 264 q 21 414 -19 365 q 151 520 81 486 q 281 549 222 554 q 384 505 340 544 q 438 400 428 465 l 458 426 q 571 521 508 488 q 690 556 633 554 q 799 544 746 558 q 888 488 857 526 q 918 405 919 449 q 865 315 917 361 q 718 239 814 268 q 533 189 657 218 q 608 99 542 122 q 789 110 675 76 q 991 224 885 140 q 1143 399 1097 308 l 1204 360 q 1064 194 1175 294 q 833 43 953 94 q 627 3 725 0 q 457 53 529 6 q 371 178 385 101 q 136 17 251 49 m 172 126 q 399 340 265 151 q 368 430 393 397 q 294 453 343 463 q 183 376 246 443 q 76 172 71 253 q 142 121 81 117 q 172 126 156 122 m 538 250 q 675 300 597 268 q 807 408 786 349 q 772 467 821 453 q 763 469 768 468 q 621 389 701 476 q 538 250 556 318 z "},"รง":{"ha":711,"x_min":-125,"x_max":774,"o":"m 403 43 q 190 3 297 -1 l 119 -56 q 256 -96 204 -58 q 310 -185 308 -133 q 274 -290 313 -236 q 83 -376 211 -365 q -125 -324 -44 -387 q -99 -279 -125 -294 q 19 -291 -39 -303 q 113 -233 76 -279 q 132 -171 133 -200 q 92 -123 131 -142 q -11 -108 54 -104 l 17 -61 l 129 11 q 14 63 61 26 q -54 153 -33 100 q -56 277 -75 206 q 26 426 -36 349 q 140 522 76 488 q 259 558 203 556 q 368 544 315 560 q 469 438 454 515 q 410 303 483 360 q 294 364 304 289 q 375 425 357 382 q 354 475 390 463 q 347 476 351 475 q 190 389 278 486 q 118 279 140 333 q 103 185 96 225 q 142 119 111 146 q 228 90 172 92 q 357 110 283 89 q 562 220 457 142 q 713 388 667 299 l 774 349 q 633 190 744 285 q 403 43 522 96 z "},"รจ":{"ha":715,"x_min":-69,"x_max":778,"o":"m 407 43 q 257 5 333 11 q 118 15 181 -1 q 10 69 56 31 q -52 158 -35 107 q -49 281 -69 210 q 32 426 -29 351 q 144 521 82 488 q 263 556 207 554 q 372 544 319 558 q 462 488 431 526 q 492 405 493 449 q 439 315 490 361 q 292 239 388 268 q 107 189 231 218 q 182 99 115 122 q 363 110 249 76 q 565 224 458 140 q 717 399 671 308 l 778 360 q 638 194 749 294 q 407 43 526 94 m 111 250 q 249 300 171 268 q 381 408 360 349 q 346 467 394 453 q 336 469 342 468 q 194 389 275 476 q 111 250 129 318 m 271 763 q 319 848 279 808 q 403 886 360 888 q 568 717 438 796 q 563 685 571 703 q 542 663 554 668 q 271 763 339 682 z "},"รฉ":{"ha":715,"x_min":-69,"x_max":778,"o":"m 407 43 q 257 5 333 11 q 118 15 181 -1 q 10 69 56 31 q -52 158 -35 107 q -49 281 -69 210 q 32 426 -29 351 q 144 521 82 488 q 263 556 207 554 q 372 544 319 558 q 462 488 431 526 q 492 405 493 449 q 439 315 490 361 q 292 239 388 268 q 107 189 231 218 q 182 99 115 122 q 363 110 249 76 q 565 224 458 140 q 717 399 671 308 l 778 360 q 638 194 749 294 q 407 43 526 94 m 111 250 q 249 300 171 268 q 381 408 360 349 q 346 467 394 453 q 336 469 342 468 q 194 389 275 476 q 111 250 129 318 m 269 651 q 259 678 258 657 q 269 718 260 700 q 532 954 446 828 q 598 915 578 960 q 601 808 618 869 q 269 651 490 700 z "},"รช":{"ha":715,"x_min":-69,"x_max":778,"o":"m 407 43 q 257 5 333 11 q 118 15 181 -1 q 10 69 56 31 q -52 158 -35 107 q -49 281 -69 210 q 32 426 -29 351 q 144 521 82 488 q 263 556 207 554 q 372 544 319 558 q 462 488 431 526 q 492 405 493 449 q 439 315 490 361 q 292 239 388 268 q 107 189 231 218 q 182 99 115 122 q 363 110 249 76 q 565 224 458 140 q 717 399 671 308 l 778 360 q 638 194 749 294 q 407 43 526 94 m 111 250 q 249 300 171 268 q 381 408 360 349 q 346 467 394 453 q 336 469 342 468 q 194 389 275 476 q 111 250 129 318 m 204 711 q 396 892 318 789 q 485 858 469 881 q 510 791 488 824 q 601 697 533 758 q 518 617 571 632 q 436 783 486 692 q 254 615 375 722 q 204 711 206 658 z "},"รซ":{"ha":715,"x_min":-69,"x_max":778,"o":"m 407 43 q 257 5 333 11 q 118 15 181 -1 q 10 69 56 31 q -52 158 -35 107 q -49 281 -69 210 q 32 426 -29 351 q 144 521 82 488 q 263 556 207 554 q 372 544 319 558 q 462 488 431 526 q 492 405 493 449 q 439 315 490 361 q 292 239 388 268 q 107 189 231 218 q 182 99 115 122 q 363 110 249 76 q 565 224 458 140 q 717 399 671 308 l 778 360 q 638 194 749 294 q 407 43 526 94 m 111 250 q 249 300 171 268 q 381 408 360 349 q 346 467 394 453 q 336 469 342 468 q 194 389 275 476 q 111 250 129 318 m 169 764 q 201 788 176 769 q 259 831 226 806 q 322 886 292 857 q 419 808 354 844 q 539 906 496 864 q 669 815 589 840 q 492 657 582 707 q 408 746 443 697 q 275 638 339 674 q 169 764 196 710 z "},"รฌ":{"ha":457,"x_min":-46,"x_max":519,"o":"m 135 17 q -2 99 42 19 q -28 291 -46 178 q 67 501 -10 404 q 150 465 100 493 q 210 411 200 436 q 188 363 200 390 q 168 319 175 335 q 153 283 161 304 q 140 251 144 263 q 132 224 136 239 q 128 201 128 210 q 131 181 129 192 q 138 163 132 171 q 151 146 143 154 q 207 134 169 125 q 285 169 244 143 q 374 253 326 196 q 458 388 421 311 l 519 347 q 463 241 497 294 q 381 134 429 188 q 267 48 332 81 q 135 17 203 15 m 74 686 q 122 772 82 732 q 206 810 163 811 q 371 640 240 719 q 365 609 374 626 q 344 586 357 592 q 74 686 142 606 z "},"รญ":{"ha":457,"x_min":-46,"x_max":519,"o":"m 135 17 q -2 99 42 19 q -28 291 -46 178 q 67 501 -10 404 q 150 465 100 493 q 210 411 200 436 q 188 363 200 390 q 168 319 175 335 q 153 283 161 304 q 140 251 144 263 q 132 224 136 239 q 128 201 128 210 q 131 181 129 192 q 138 163 132 171 q 151 146 143 154 q 207 134 169 125 q 285 169 244 143 q 374 253 326 196 q 458 388 421 311 l 519 347 q 463 241 497 294 q 381 134 429 188 q 267 48 332 81 q 135 17 203 15 m 72 575 q 62 602 61 581 q 72 642 63 624 q 335 878 249 751 q 401 838 381 883 q 404 732 421 793 q 72 575 293 624 z "},"รฎ":{"ha":457,"x_min":-46,"x_max":519,"o":"m 135 17 q -2 99 42 19 q -28 291 -46 178 q 67 501 -10 404 q 150 465 100 493 q 210 411 200 436 q 188 363 200 390 q 168 319 175 335 q 153 283 161 304 q 140 251 144 263 q 132 224 136 239 q 128 201 128 210 q 131 181 129 192 q 138 163 132 171 q 151 146 143 154 q 207 134 169 125 q 285 169 244 143 q 374 253 326 196 q 458 388 421 311 l 519 347 q 463 241 497 294 q 381 134 429 188 q 267 48 332 81 q 135 17 203 15 m 7 635 q 199 815 121 713 q 288 782 272 804 q 313 715 290 747 q 404 621 336 682 q 321 540 374 556 q 239 707 289 615 q 57 539 178 646 q 7 635 8 582 z "},"รฏ":{"ha":457,"x_min":-46,"x_max":519,"o":"m 135 17 q -2 99 42 19 q -28 291 -46 178 q 67 501 -10 404 q 150 465 100 493 q 210 411 200 436 q 188 363 200 390 q 168 319 175 335 q 153 283 161 304 q 140 251 144 263 q 132 224 136 239 q 128 201 128 210 q 131 181 129 192 q 138 163 132 171 q 151 146 143 154 q 207 134 169 125 q 285 169 244 143 q 374 253 326 196 q 458 388 421 311 l 519 347 q 463 241 497 294 q 381 134 429 188 q 267 48 332 81 q 135 17 203 15 m -28 688 q 4 711 -21 693 q 62 755 29 729 q 125 810 94 781 q 222 732 157 768 q 342 829 299 788 q 472 739 392 764 q 294 581 385 631 q 211 669 246 621 q 78 561 142 597 q -28 688 -1 633 z "},"รฐ":{"ha":654,"x_min":-87,"x_max":715,"o":"m 250 63 q 88 -42 160 -31 q -11 0 38 -49 q -74 128 -60 49 q -36 313 -87 208 q 261 582 65 494 q 307 558 279 581 q 286 669 303 624 q 140 618 194 632 q 129 693 124 636 q 247 754 169 713 q 176 840 219 800 q 200 883 169 858 q 246 908 231 908 q 332 803 289 867 q 489 910 435 867 q 550 821 553 886 q 385 715 483 767 q 344 208 496 479 q 510 236 421 194 q 656 388 600 278 l 715 347 q 596 198 678 260 q 429 110 514 136 q 267 86 344 85 l 250 63 m 136 151 q 250 269 193 154 q 308 521 307 385 q 82 311 138 438 q 82 175 44 225 q 136 151 101 150 z "},"รฑ":{"ha":786,"x_min":-97,"x_max":849,"o":"m 25 -17 q -97 50 -57 -8 q -20 250 -50 106 q 3 503 10 394 q 144 457 81 522 q 133 244 158 379 q 396 499 292 390 q 397 500 396 500 q 397 501 397 500 q 480 465 429 493 q 540 411 531 436 q 518 363 531 390 q 499 319 506 335 q 483 283 492 304 q 469 251 474 263 q 462 225 465 240 q 458 201 458 210 q 460 181 458 192 q 467 163 461 171 q 481 146 472 154 q 536 134 499 125 q 615 169 574 143 q 703 253 656 196 q 789 388 751 311 l 849 347 q 793 242 828 296 q 710 134 758 188 q 597 48 661 81 q 465 17 532 15 q 322 113 364 21 q 310 326 279 204 q 60 33 186 214 q 28 -14 44 7 l 26 -15 l 25 -17 m 121 694 q 224 769 181 747 q 290 787 268 792 q 329 766 313 782 q 353 729 346 750 q 372 697 361 708 q 399 690 383 685 q 469 768 453 711 q 563 778 517 792 q 600 710 608 764 q 456 603 536 638 q 340 579 376 569 q 311 613 321 582 q 297 673 301 644 q 281 700 292 701 q 238 656 260 697 q 211 576 215 615 q 141 609 168 565 q 121 694 114 653 z "},"รฒ":{"ha":690,"x_min":-61,"x_max":753,"o":"m 157 17 q -35 177 -10 36 q 34 451 -61 318 q 256 583 129 583 q 314 524 290 583 q 364 562 336 553 q 424 554 392 571 q 479 492 456 538 q 497 342 503 449 q 692 388 639 308 l 753 347 q 648 269 726 289 q 478 265 569 250 q 427 171 453 211 q 362 89 401 131 q 270 28 322 47 q 157 17 218 10 m 142 131 q 267 154 196 103 q 376 293 339 206 q 333 309 360 292 q 290 349 307 326 q 279 433 276 389 q 194 391 233 421 q 131 324 154 361 q 99 248 108 286 q 101 178 90 210 q 142 131 113 146 m 233 768 q 282 853 242 814 q 365 892 322 893 q 531 722 400 801 q 525 691 533 708 q 504 668 517 674 q 233 768 301 688 z "},"รณ":{"ha":690,"x_min":-61,"x_max":753,"o":"m 157 17 q -35 177 -10 36 q 34 451 -61 318 q 256 583 129 583 q 314 524 290 583 q 364 562 336 553 q 424 554 392 571 q 479 492 456 538 q 497 342 503 449 q 692 388 639 308 l 753 347 q 648 269 726 289 q 478 265 569 250 q 427 171 453 211 q 362 89 401 131 q 270 28 322 47 q 157 17 218 10 m 142 131 q 267 154 196 103 q 376 293 339 206 q 333 309 360 292 q 290 349 307 326 q 279 433 276 389 q 194 391 233 421 q 131 324 154 361 q 99 248 108 286 q 101 178 90 210 q 142 131 113 146 m 232 657 q 222 684 221 663 q 232 724 222 706 q 494 960 408 833 q 560 920 540 965 q 564 814 581 875 q 232 657 453 706 z "},"รด":{"ha":690,"x_min":-61,"x_max":753,"o":"m 157 17 q -35 177 -10 36 q 34 451 -61 318 q 256 583 129 583 q 314 524 290 583 q 364 562 336 553 q 424 554 392 571 q 479 492 456 538 q 497 342 503 449 q 692 388 639 308 l 753 347 q 648 269 726 289 q 478 265 569 250 q 427 171 453 211 q 362 89 401 131 q 270 28 322 47 q 157 17 218 10 m 142 131 q 267 154 196 103 q 376 293 339 206 q 333 309 360 292 q 290 349 307 326 q 279 433 276 389 q 194 391 233 421 q 131 324 154 361 q 99 248 108 286 q 101 178 90 210 q 142 131 113 146 m 167 717 q 358 897 281 794 q 447 864 432 886 q 473 797 450 829 q 564 703 496 764 q 481 622 533 638 q 399 789 449 697 q 217 621 338 728 q 167 717 168 664 z "},"รต":{"ha":690,"x_min":-61,"x_max":753,"o":"m 157 17 q -35 177 -10 36 q 34 451 -61 318 q 256 583 129 583 q 314 524 290 583 q 364 562 336 553 q 424 554 392 571 q 479 492 456 538 q 497 342 503 449 q 692 388 639 308 l 753 347 q 648 269 726 289 q 478 265 569 250 q 427 171 453 211 q 362 89 401 131 q 270 28 322 47 q 157 17 218 10 m 142 131 q 267 154 196 103 q 376 293 339 206 q 333 309 360 292 q 290 349 307 326 q 279 433 276 389 q 194 391 233 421 q 131 324 154 361 q 99 248 108 286 q 101 178 90 210 q 142 131 113 146 m 156 799 q 259 874 215 851 q 325 891 303 896 q 364 870 347 886 q 388 833 381 854 q 407 801 396 813 q 433 794 418 789 q 504 872 488 815 q 597 882 551 896 q 635 814 643 868 q 491 708 571 742 q 375 683 411 674 q 346 717 356 686 q 331 777 336 749 q 315 804 326 806 q 272 760 294 801 q 246 681 250 719 q 176 713 203 669 q 156 799 149 757 z "},"รถ":{"ha":690,"x_min":-61,"x_max":753,"o":"m 157 17 q -35 177 -10 36 q 34 451 -61 318 q 256 583 129 583 q 314 524 290 583 q 364 562 336 553 q 424 554 392 571 q 479 492 456 538 q 497 342 503 449 q 692 388 639 308 l 753 347 q 648 269 726 289 q 478 265 569 250 q 427 171 453 211 q 362 89 401 131 q 270 28 322 47 q 157 17 218 10 m 132 769 q 164 793 139 775 q 222 837 189 811 q 285 892 254 863 q 382 814 317 850 q 501 911 458 869 q 632 821 551 846 q 454 663 544 713 q 371 751 406 703 q 238 643 301 679 q 132 769 158 715 m 142 131 q 267 154 196 103 q 376 293 339 206 q 333 309 360 292 q 290 349 307 326 q 279 433 276 389 q 194 391 233 421 q 131 324 154 361 q 99 248 108 286 q 101 178 90 210 q 142 131 113 146 z "},"รท":{"ha":806,"x_min":33,"x_max":729,"o":"m 357 193 q 446 75 425 136 q 384 34 426 72 q 318 -40 342 -4 q 208 43 239 -10 q 357 193 251 133 m 46 186 q 63 265 33 225 q 143 333 93 304 q 474 350 317 354 q 724 321 632 346 q 724 263 729 282 q 696 215 718 243 q 400 233 604 238 q 46 186 196 229 m 328 489 q 476 639 371 579 q 565 521 544 582 q 503 480 546 518 q 438 406 461 442 q 328 489 358 436 z "},"รธ":{"ha":690,"x_min":-204,"x_max":765,"o":"m 157 17 q 75 39 108 24 q -124 -244 -64 -133 q -176 -253 -150 -258 q -204 -221 -203 -249 q 10 86 -119 -78 q -37 196 -29 131 q -24 327 -46 261 q 38 451 -1 393 q 136 547 78 510 q 256 583 194 583 q 314 524 290 583 q 367 562 336 554 q 431 550 399 569 q 669 765 565 682 q 744 740 724 767 q 756 681 765 713 q 488 474 628 601 q 497 342 503 428 q 692 388 639 308 l 753 347 q 648 269 726 289 q 478 265 569 250 q 427 171 453 211 q 362 89 401 131 q 270 28 322 47 q 157 17 218 10 m 97 193 q 281 397 188 300 q 279 433 279 410 q 140 335 193 411 q 97 193 86 258 m 150 126 q 272 157 204 106 q 376 293 340 208 q 324 317 360 292 q 150 126 231 222 z "},"รน":{"ha":850,"x_min":-60,"x_max":914,"o":"m 97 19 q -27 124 6 32 q -22 336 -60 215 q 111 550 17 457 q 199 503 153 542 q 256 435 244 465 q 106 249 147 329 q 113 136 65 169 q 242 183 160 108 q 403 410 325 258 q 461 504 426 460 q 544 468 493 497 q 604 413 594 439 q 583 365 596 393 q 563 322 569 336 q 547 286 556 307 q 534 254 538 265 q 526 228 531 243 q 523 204 522 213 q 525 185 524 196 q 532 165 526 174 q 546 149 538 157 q 601 137 564 128 q 678 172 638 146 q 767 257 719 199 q 851 390 814 315 l 914 351 q 856 244 890 297 q 774 138 822 192 q 660 51 725 83 q 528 19 596 18 q 410 76 453 22 q 361 213 367 129 q 97 19 236 1 m 243 703 q 292 788 251 749 q 375 826 332 828 q 540 657 410 736 q 535 626 543 643 q 514 603 526 608 q 243 703 311 622 z "},"รบ":{"ha":850,"x_min":-60,"x_max":914,"o":"m 97 19 q -27 124 6 32 q -22 336 -60 215 q 111 550 17 457 q 199 503 153 542 q 256 435 244 465 q 106 249 147 329 q 113 136 65 169 q 242 183 160 108 q 403 410 325 258 q 461 504 426 460 q 544 468 493 497 q 604 413 594 439 q 583 365 596 393 q 563 322 569 336 q 547 286 556 307 q 534 254 538 265 q 526 228 531 243 q 523 204 522 213 q 525 185 524 196 q 532 165 526 174 q 546 149 538 157 q 601 137 564 128 q 678 172 638 146 q 767 257 719 199 q 851 390 814 315 l 914 351 q 856 244 890 297 q 774 138 822 192 q 660 51 725 83 q 528 19 596 18 q 410 76 453 22 q 361 213 367 129 q 97 19 236 1 m 242 592 q 231 619 231 597 q 242 658 232 640 q 504 894 418 768 q 570 855 550 900 q 574 749 590 810 q 242 592 463 640 z "},"รป":{"ha":850,"x_min":-60,"x_max":914,"o":"m 97 19 q -27 124 6 32 q -22 336 -60 215 q 111 550 17 457 q 199 503 153 542 q 256 435 244 465 q 106 249 147 329 q 113 136 65 169 q 242 183 160 108 q 403 410 325 258 q 461 504 426 460 q 544 468 493 497 q 604 413 594 439 q 583 365 596 393 q 563 322 569 336 q 547 286 556 307 q 534 254 538 265 q 526 228 531 243 q 523 204 522 213 q 525 185 524 196 q 532 165 526 174 q 546 149 538 157 q 601 137 564 128 q 678 172 638 146 q 767 257 719 199 q 851 390 814 315 l 914 351 q 856 244 890 297 q 774 138 822 192 q 660 51 725 83 q 528 19 596 18 q 410 76 453 22 q 361 213 367 129 q 97 19 236 1 m 176 651 q 368 832 290 729 q 457 799 442 821 q 483 731 460 764 q 574 638 506 699 q 490 557 543 572 q 408 724 458 632 q 226 556 347 663 q 176 651 178 599 z "},"รผ":{"ha":850,"x_min":-60,"x_max":914,"o":"m 97 19 q -27 124 6 32 q -22 336 -60 215 q 111 550 17 457 q 199 503 153 542 q 256 435 244 465 q 106 249 147 329 q 113 136 65 169 q 242 183 160 108 q 403 410 325 258 q 461 504 426 460 q 544 468 493 497 q 604 413 594 439 q 583 365 596 393 q 563 322 569 336 q 547 286 556 307 q 534 254 538 265 q 526 228 531 243 q 523 204 522 213 q 525 185 524 196 q 532 165 526 174 q 546 149 538 157 q 601 137 564 128 q 678 172 638 146 q 767 257 719 199 q 851 390 814 315 l 914 351 q 856 244 890 297 q 774 138 822 192 q 660 51 725 83 q 528 19 596 18 q 410 76 453 22 q 361 213 367 129 q 97 19 236 1 m 142 704 q 174 728 149 710 q 231 772 199 746 q 294 826 264 797 q 392 749 326 785 q 511 846 468 804 q 642 756 561 781 q 464 597 554 647 q 381 686 415 638 q 247 578 311 614 q 142 704 168 650 z "},"รฝ":{"ha":850,"x_min":-247,"x_max":914,"o":"m 147 -271 q -22 -318 58 -314 q -149 -299 -103 -322 q -208 -236 -194 -275 q -167 -74 -247 -133 q 61 -17 -86 -14 q 271 1 158 -17 q 357 200 338 114 q 99 19 235 3 q -6 87 31 29 q -40 222 -42 144 q 2 390 -37 300 q 113 550 42 481 q 201 503 154 542 q 258 435 247 465 q 109 250 150 331 q 115 136 68 169 q 238 178 160 110 q 392 386 317 246 q 460 504 418 451 q 542 469 492 497 q 603 413 593 440 q 574 349 594 393 q 546 286 554 304 q 431 40 490 146 q 579 94 507 64 q 728 206 657 126 q 851 390 799 286 l 914 351 q 817 193 879 275 q 679 61 756 111 q 371 -56 556 -19 q 147 -271 260 -218 m -67 -201 q 11 -231 -43 -235 q 118 -186 65 -226 q 218 -78 168 -149 q 44 -86 119 -86 q -75 -124 -46 -87 q -67 -201 -104 -160 m 235 599 q 224 626 224 604 q 235 665 225 647 q 497 901 411 775 q 563 862 543 907 q 567 756 583 817 q 235 599 456 647 z "},"รพ":{"ha":753,"x_min":-343,"x_max":815,"o":"m -219 -435 q -343 -368 -304 -426 q -169 -16 -307 -329 q 94 625 -31 297 q 215 1015 219 953 q 356 968 293 1035 q 178 438 365 911 q 465 481 354 565 q 522 299 540 419 q 410 94 503 179 q 594 194 492 114 q 754 388 697 275 l 815 347 q 744 240 794 299 q 622 124 693 181 q 458 36 551 67 q 275 21 364 6 q 236 15 261 18 q 31 79 101 1 q -219 -435 -157 -358 m 97 235 q 143 199 129 221 q 136 163 138 186 q 148 115 135 139 q 190 90 161 92 q 274 122 231 86 q 341 208 317 157 q 371 311 365 258 q 343 394 376 364 q 122 296 268 461 l 97 235 z "},"รฟ":{"ha":850,"x_min":-247,"x_max":914,"o":"m 147 -271 q -22 -318 58 -314 q -149 -299 -103 -322 q -208 -236 -194 -275 q -167 -74 -247 -133 q 61 -17 -86 -14 q 271 1 158 -17 q 357 200 338 114 q 99 19 235 3 q -6 87 31 29 q -40 222 -42 144 q 2 390 -37 300 q 113 550 42 481 q 201 503 154 542 q 258 435 247 465 q 109 250 150 331 q 115 136 68 169 q 238 178 160 110 q 392 386 317 246 q 460 504 418 451 q 542 469 492 497 q 603 413 593 440 q 574 349 594 393 q 546 286 554 304 q 431 40 490 146 q 579 94 507 64 q 728 206 657 126 q 851 390 799 286 l 914 351 q 817 193 879 275 q 679 61 756 111 q 371 -56 556 -19 q 147 -271 260 -218 m -67 -201 q 11 -231 -43 -235 q 118 -186 65 -226 q 218 -78 168 -149 q 44 -86 119 -86 q -75 -124 -46 -87 q -67 -201 -104 -160 m 135 711 q 167 735 142 717 q 224 778 192 753 q 288 833 257 804 q 385 756 319 792 q 504 853 461 811 q 635 763 554 788 q 457 604 547 654 q 374 693 408 644 q 240 585 304 621 q 135 711 161 657 z "},"ฤ":{"ha":1376,"x_min":-165,"x_max":1438,"o":"m 68 -287 q -79 -264 -7 -303 q -165 -167 -151 -225 q 332 376 -25 46 q 26 338 168 372 q 93 494 13 404 q 449 482 201 522 q 1121 963 842 825 q 1164 892 1161 938 l 1156 886 l 1161 886 q 1044 642 1093 768 q 974 414 994 517 q 960 235 953 311 q 1004 135 967 158 q 1193 166 1079 88 q 1376 388 1307 244 l 1438 347 q 1331 176 1394 251 q 1199 58 1267 100 q 1063 -7 1131 15 q 937 -25 994 -29 q 842 4 879 -21 q 817 317 747 67 q 526 374 707 358 q 232 18 356 194 q 68 -287 108 -158 m 604 453 q 842 396 724 428 q 1028 807 904 576 q 604 453 814 660 m 958 1072 q 997 1156 958 1103 q 1351 1154 1235 1132 q 1362 1092 1369 1128 q 1336 1026 1354 1056 q 1118 1028 1231 1006 q 958 1072 1006 1050 z "},"ฤ":{"ha":863,"x_min":-90,"x_max":925,"o":"m 136 17 q 45 5 86 4 q -23 24 4 6 q -68 71 -50 43 q -88 138 -86 99 q -81 221 -90 178 q -46 315 -72 264 q 21 414 -19 365 q 142 515 76 481 q 265 549 208 550 q 366 519 321 549 q 429 435 411 489 q 474 501 447 468 q 557 465 507 493 q 617 411 607 436 q 595 363 608 392 q 575 319 582 333 q 559 283 568 304 q 547 251 550 261 q 539 225 543 240 q 535 201 535 210 q 538 181 536 192 q 544 163 539 171 q 558 146 550 154 q 613 134 576 125 q 691 169 650 143 q 779 253 732 196 q 865 388 826 311 l 925 347 q 869 241 903 294 q 786 134 835 188 q 673 48 738 81 q 542 17 608 15 q 430 65 472 18 q 378 186 388 111 q 136 17 254 49 m 172 126 q 385 321 258 149 q 390 340 386 328 q 396 358 394 353 q 362 437 388 410 q 289 452 336 464 q 183 376 242 440 q 76 172 71 253 q 142 121 81 117 q 172 126 156 122 m 192 706 q 231 789 192 736 q 585 788 468 765 q 595 725 603 761 q 569 660 588 689 q 351 661 464 639 q 192 706 239 683 z "},"ฤ":{"ha":1376,"x_min":-165,"x_max":1438,"o":"m 68 -287 q -79 -264 -7 -303 q -165 -167 -151 -225 q 332 376 -25 46 q 26 338 168 372 q 93 494 13 404 q 449 482 201 522 q 1121 963 842 825 q 1164 892 1161 938 l 1156 886 l 1161 886 q 1044 642 1093 768 q 974 414 994 517 q 960 235 953 311 q 1004 135 967 158 q 1193 166 1079 88 q 1376 388 1307 244 l 1438 347 q 1331 176 1394 251 q 1199 58 1267 100 q 1063 -7 1131 15 q 937 -25 994 -29 q 842 4 879 -21 q 817 317 747 67 q 526 374 707 358 q 232 18 356 194 q 68 -287 108 -158 m 604 453 q 842 396 724 428 q 1028 807 904 576 q 604 453 814 660 m 963 1174 q 1042 1223 999 1210 q 1114 1228 1085 1236 q 1146 1203 1143 1221 q 1169 1104 1142 1135 q 1243 1098 1197 1074 q 1329 1200 1289 1122 q 1384 1216 1357 1215 q 1424 1206 1411 1217 q 1433 1181 1438 1196 q 1274 1035 1379 1079 q 1076 1027 1169 990 q 963 1174 983 1064 z "},"ฤ":{"ha":863,"x_min":-90,"x_max":925,"o":"m 136 17 q 45 5 86 4 q -23 24 4 6 q -68 71 -50 43 q -88 138 -86 99 q -81 221 -90 178 q -46 315 -72 264 q 21 414 -19 365 q 142 515 76 481 q 265 549 208 550 q 366 519 321 549 q 429 435 411 489 q 474 501 447 468 q 557 465 507 493 q 617 411 607 436 q 595 363 608 392 q 575 319 582 333 q 559 283 568 304 q 547 251 550 261 q 539 225 543 240 q 535 201 535 210 q 538 181 536 192 q 544 163 539 171 q 558 146 550 154 q 613 134 576 125 q 691 169 650 143 q 779 253 732 196 q 865 388 826 311 l 925 347 q 869 241 903 294 q 786 134 835 188 q 673 48 738 81 q 542 17 608 15 q 430 65 472 18 q 378 186 388 111 q 136 17 254 49 m 172 126 q 385 321 258 149 q 390 340 386 328 q 396 358 394 353 q 362 437 388 410 q 289 452 336 464 q 183 376 242 440 q 76 172 71 253 q 142 121 81 117 q 172 126 156 122 m 196 807 q 275 856 232 843 q 347 862 318 869 q 379 836 376 854 q 403 738 375 768 q 476 731 431 707 q 563 833 522 756 q 617 849 590 849 q 658 840 644 850 q 667 814 671 829 q 508 668 613 713 q 310 660 403 624 q 196 807 217 697 z "},"ฤ":{"ha":1376,"x_min":-165,"x_max":1438,"o":"m 68 -287 q -79 -264 -7 -303 q -165 -167 -151 -225 q 332 376 -25 46 q 26 338 168 372 q 93 494 13 404 q 449 482 201 522 q 1121 963 842 825 q 1164 892 1161 938 l 1156 886 l 1161 886 q 1044 642 1093 768 q 974 414 994 517 q 960 235 953 311 q 1004 135 967 158 q 1193 166 1079 88 q 1376 388 1307 244 l 1438 347 q 1249 95 1367 189 q 1013 -19 1132 1 q 903 -83 949 -47 q 838 -149 857 -118 q 812 -209 818 -181 q 821 -253 806 -237 q 936 -267 861 -299 q 949 -300 957 -275 q 785 -387 867 -372 q 660 -350 703 -401 q 638 -284 633 -325 q 666 -199 642 -243 q 752 -107 690 -156 q 901 -19 814 -58 q 842 4 868 -12 q 817 317 747 67 q 526 374 707 358 q 232 18 356 194 q 68 -287 108 -158 m 604 453 q 842 396 724 428 q 1028 807 904 576 q 604 453 814 660 z "},"ฤ":{"ha":863,"x_min":-90,"x_max":925,"o":"m 136 17 q 45 5 86 4 q -23 24 4 6 q -68 71 -50 43 q -88 138 -86 99 q -81 221 -90 178 q -46 315 -72 264 q 21 414 -19 365 q 142 515 76 481 q 265 549 208 550 q 366 519 321 549 q 429 435 411 489 q 474 501 447 468 q 557 465 507 493 q 617 411 607 436 q 595 363 608 392 q 575 319 582 333 q 559 283 568 304 q 547 251 550 261 q 539 225 543 240 q 535 201 535 210 q 538 181 536 192 q 544 163 539 171 q 558 146 550 154 q 613 134 576 125 q 691 169 650 143 q 779 253 732 196 q 865 388 826 311 l 925 347 q 870 244 903 296 q 792 141 838 193 q 685 54 746 89 q 560 17 624 19 q 461 -45 503 -11 q 402 -109 419 -79 q 379 -166 385 -139 q 389 -207 374 -193 q 504 -221 429 -253 q 517 -254 525 -229 q 353 -341 435 -326 q 228 -304 271 -356 q 240 -145 176 -244 q 479 31 304 -46 q 378 186 393 68 q 136 17 254 49 m 172 126 q 385 321 258 149 q 390 340 386 328 q 396 358 394 353 q 362 437 388 410 q 289 452 336 464 q 183 376 242 440 q 76 172 71 253 q 142 121 81 117 q 172 126 156 122 z "},"ฤ":{"ha":1156,"x_min":3,"x_max":1219,"o":"m 221 -69 q 18 294 3 57 q 192 693 29 494 q 547 958 347 881 q 957 933 781 1049 q 1020 833 1015 894 q 997 716 1025 771 q 940 597 969 661 q 910 500 910 532 q 779 497 869 483 q 667 551 689 510 q 726 639 682 590 q 811 722 771 688 q 874 795 851 756 q 875 864 896 835 q 777 917 840 910 q 643 897 714 924 q 499 812 572 869 q 371 678 425 754 q 265 451 299 574 q 258 213 232 328 q 378 40 285 97 q 526 -3 439 3 q 705 18 613 -8 q 885 94 797 44 q 1045 220 972 143 q 1157 388 1118 297 l 1219 349 q 1031 90 1156 203 q 767 -79 907 -24 q 479 -135 626 -135 q 221 -69 332 -135 m 714 1017 q 703 1044 703 1022 q 714 1083 704 1065 q 976 1319 890 1193 q 1042 1280 1022 1325 q 1046 1174 1063 1235 q 714 1017 935 1065 z "},"ฤ":{"ha":711,"x_min":-75,"x_max":774,"o":"m 403 43 q 253 5 329 11 q 114 15 176 -1 q 6 69 51 31 q -58 158 -40 107 q -55 281 -75 210 q 26 426 -35 351 q 140 522 76 488 q 259 558 203 556 q 368 544 315 560 q 469 438 454 515 q 410 303 483 360 q 294 364 304 289 q 375 425 357 382 q 354 475 390 463 q 347 476 351 475 q 190 389 278 486 q 118 279 140 333 q 103 185 96 225 q 142 119 111 146 q 228 90 172 92 q 357 110 283 89 q 562 220 457 142 q 713 388 667 299 l 774 349 q 633 190 744 285 q 403 43 522 96 m 215 611 q 205 638 204 617 q 215 678 206 660 q 478 914 392 788 q 544 874 524 919 q 547 768 564 829 q 215 611 436 660 z "},"ฤ":{"ha":1156,"x_min":4,"x_max":1219,"o":"m 221 -69 q 53 104 103 -1 q 19 322 4 210 q 97 549 35 433 q 250 757 158 664 q 458 915 342 850 q 686 993 574 979 q 649 1076 650 1031 q 840 1257 763 1154 q 929 1224 914 1246 q 955 1156 932 1189 q 1046 1063 978 1124 q 963 982 1015 997 q 881 1149 931 1057 q 715 996 829 1097 q 957 933 850 1003 q 1020 833 1015 894 q 997 716 1025 771 q 940 597 969 661 q 910 500 910 532 q 779 497 869 483 q 667 551 689 510 q 726 639 682 590 q 811 722 771 688 q 874 795 851 756 q 875 864 896 835 q 777 917 840 910 q 643 897 714 924 q 499 812 572 869 q 371 678 425 754 q 265 451 299 574 q 258 213 232 328 q 378 40 285 97 q 526 -3 439 3 q 705 18 613 -8 q 885 94 797 44 q 1045 220 972 143 q 1157 388 1118 297 l 1219 349 q 1031 90 1156 203 q 767 -79 907 -24 q 479 -135 626 -135 q 221 -69 332 -135 z "},"ฤ":{"ha":711,"x_min":-75,"x_max":774,"o":"m 403 43 q 253 5 329 11 q 114 15 176 -1 q 6 69 51 31 q -58 158 -40 107 q -55 281 -75 210 q 26 426 -35 351 q 140 522 76 488 q 259 558 203 556 q 368 544 315 560 q 469 438 454 515 q 410 303 483 360 q 294 364 304 289 q 375 425 357 382 q 354 475 390 463 q 347 476 351 475 q 190 389 278 486 q 118 279 140 333 q 103 185 96 225 q 142 119 111 146 q 228 90 172 92 q 357 110 283 89 q 562 220 457 142 q 713 388 667 299 l 774 349 q 633 190 744 285 q 403 43 522 96 m 150 671 q 342 851 264 749 q 431 818 415 840 q 456 751 433 783 q 547 657 479 718 q 464 576 517 592 q 382 743 432 651 q 200 575 321 682 q 150 671 151 618 z "},"ฤ":{"ha":1156,"x_min":3,"x_max":1219,"o":"m 221 -69 q 18 294 3 57 q 192 693 29 494 q 547 958 347 881 q 957 933 781 1049 q 1020 833 1015 894 q 997 716 1025 771 q 940 597 969 661 q 910 500 910 532 q 779 497 869 483 q 667 551 689 510 q 726 639 682 590 q 811 722 771 688 q 874 795 851 756 q 875 864 896 835 q 777 917 840 910 q 643 897 714 924 q 499 812 572 869 q 371 678 425 754 q 265 451 299 574 q 258 213 232 328 q 378 40 285 97 q 526 -3 439 3 q 705 18 613 -8 q 885 94 797 44 q 1045 220 972 143 q 1157 388 1118 297 l 1219 349 q 1031 90 1156 203 q 767 -79 907 -24 q 479 -135 626 -135 q 221 -69 332 -135 m 733 1157 q 765 1180 740 1163 q 823 1223 790 1197 q 886 1279 856 1249 q 1017 1189 936 1214 q 839 1031 929 1081 q 733 1157 764 1100 z "},"ฤ":{"ha":711,"x_min":-75,"x_max":774,"o":"m 403 43 q 253 5 329 11 q 114 15 176 -1 q 6 69 51 31 q -58 158 -40 107 q -55 281 -75 210 q 26 426 -35 351 q 140 522 76 488 q 259 558 203 556 q 368 544 315 560 q 469 438 454 515 q 410 303 483 360 q 294 364 304 289 q 375 425 357 382 q 354 475 390 463 q 347 476 351 475 q 190 389 278 486 q 118 279 140 333 q 103 185 96 225 q 142 119 111 146 q 228 90 172 92 q 357 110 283 89 q 562 220 457 142 q 713 388 667 299 l 774 349 q 633 190 744 285 q 403 43 522 96 m 235 751 q 267 774 242 757 q 324 817 292 792 q 388 874 357 843 q 518 783 438 808 q 340 625 431 675 q 235 751 265 694 z "},"ฤ":{"ha":1156,"x_min":3,"x_max":1219,"o":"m 221 -69 q 18 294 3 57 q 192 693 29 494 q 547 958 347 881 q 957 933 781 1049 q 1020 833 1015 894 q 997 716 1025 771 q 940 597 969 661 q 910 500 910 532 q 779 497 869 483 q 667 551 689 510 q 726 639 682 590 q 811 722 771 688 q 874 795 851 756 q 875 864 896 835 q 777 917 840 910 q 643 897 714 924 q 499 812 572 869 q 371 678 425 754 q 265 451 299 574 q 258 213 232 328 q 378 40 285 97 q 526 -3 439 3 q 705 18 613 -8 q 885 94 797 44 q 1045 220 972 143 q 1157 388 1118 297 l 1219 349 q 1031 90 1156 203 q 767 -79 907 -24 q 479 -135 626 -135 q 221 -69 332 -135 m 650 1200 q 735 1279 683 1267 q 818 1111 764 1211 q 999 1281 879 1175 q 1050 1185 1046 1239 q 857 1004 935 1108 q 769 1038 785 1015 q 742 1105 765 1072 q 650 1200 718 1138 z "},"ฤ":{"ha":711,"x_min":-75,"x_max":774,"o":"m 403 43 q 253 5 329 11 q 114 15 176 -1 q 6 69 51 31 q -58 158 -40 107 q -55 281 -75 210 q 26 426 -35 351 q 140 522 76 488 q 259 558 203 556 q 368 544 315 560 q 469 438 454 515 q 410 303 483 360 q 294 364 304 289 q 375 425 357 382 q 354 475 390 463 q 347 476 351 475 q 190 389 278 486 q 118 279 140 333 q 103 185 96 225 q 142 119 111 146 q 228 90 172 92 q 357 110 283 89 q 562 220 457 142 q 713 388 667 299 l 774 349 q 633 190 744 285 q 403 43 522 96 m 151 794 q 236 874 185 861 q 319 706 265 806 q 500 875 381 769 q 551 779 547 833 q 358 599 436 703 q 271 632 286 610 q 243 699 267 667 q 151 794 219 732 z "},"ฤ":{"ha":1529,"x_min":67,"x_max":1426,"o":"m 533 -22 q 434 -3 489 -33 q 371 65 379 26 q 437 225 385 131 q 549 409 489 319 q 680 632 608 499 q 796 893 751 765 q 885 890 825 901 q 953 864 946 878 q 894 729 938 804 q 799 577 851 654 q 692 413 746 500 q 595 211 639 325 q 533 -22 551 97 m 72 200 q 156 231 103 222 q 257 226 210 240 q 347 -40 211 63 q 731 -89 482 -142 q 912 -11 826 -68 q 1055 125 997 46 q 1154 297 1113 204 q 1208 485 1196 389 q 1209 665 1219 581 q 1154 819 1199 750 q 1039 924 1110 888 q 873 960 964 961 q 708 935 782 958 q 542 860 635 913 q 400 775 449 808 q 282 690 351 742 q 192 831 192 722 q 369 908 300 879 q 560 975 439 938 q 775 1023 682 1013 q 982 1020 868 1033 q 1192 958 1096 1007 q 1368 797 1310 899 q 1424 582 1426 696 q 1369 346 1421 468 q 1228 121 1317 224 q 1015 -59 1140 18 q 750 -162 889 -136 q 396 -167 549 -196 q 155 -42 243 -139 q 72 200 67 56 m 915 1203 q 1000 1282 949 1269 q 1083 1114 1029 1214 q 1264 1283 1144 1178 q 1315 1188 1311 1242 q 1122 1007 1200 1111 q 1035 1040 1050 1018 q 1007 1108 1031 1075 q 915 1203 983 1140 z "},"ฤ":{"ha":865,"x_min":-100,"x_max":1217,"o":"m 139 17 q -37 35 25 -17 q -85 193 -100 86 q 22 414 -71 300 q 145 517 78 482 q 269 549 213 551 q 372 516 326 547 q 435 428 418 485 q 576 744 482 581 q 785 1035 669 907 q 867 1001 815 1031 q 929 944 918 971 q 538 131 393 214 q 692 171 589 101 q 868 388 794 240 l 928 347 q 872 242 906 294 q 789 136 838 189 q 676 50 740 83 q 543 17 611 17 q 393 201 396 17 q 139 17 263 51 m 176 126 q 400 339 265 151 q 381 410 397 381 q 340 453 365 440 q 274 447 314 465 q 186 376 233 429 q 79 172 74 253 q 150 121 83 114 q 176 126 163 122 m 983 988 q 1217 990 1113 1079 q 1126 848 1171 953 q 1086 669 1081 743 q 994 654 1056 642 q 978 714 986 671 q 967 832 971 757 q 983 988 964 907 z "},"ฤ":{"ha":1529,"x_min":67,"x_max":1426,"o":"m 533 -22 q 434 -3 489 -33 q 371 65 379 26 q 517 357 392 160 q 356 306 431 342 q 381 416 351 361 q 454 510 411 471 q 624 531 539 526 q 796 893 738 726 q 885 890 825 901 q 953 864 946 878 q 933 803 946 833 q 897 735 919 774 q 860 673 875 696 q 811 598 846 650 q 764 526 776 546 q 900 493 844 518 q 858 344 899 410 q 669 371 779 371 q 533 -22 563 176 m 72 200 q 156 231 103 222 q 257 226 210 240 q 347 -40 211 63 q 731 -89 482 -142 q 912 -11 826 -68 q 1055 125 997 46 q 1154 297 1113 204 q 1208 485 1196 389 q 1209 665 1219 581 q 1154 819 1199 750 q 1039 924 1110 888 q 873 960 964 961 q 708 935 782 958 q 542 860 635 913 q 400 775 449 808 q 282 690 351 742 q 192 831 192 722 q 369 908 300 879 q 560 975 439 938 q 775 1023 682 1013 q 982 1020 868 1033 q 1192 958 1096 1007 q 1368 797 1310 899 q 1424 582 1426 696 q 1369 346 1421 468 q 1228 121 1317 224 q 1015 -59 1140 18 q 750 -162 889 -136 q 396 -167 549 -196 q 155 -42 243 -139 q 72 200 67 56 z "},"ฤ":{"ha":865,"x_min":-100,"x_max":929,"o":"m 139 17 q -37 35 25 -17 q -85 193 -100 86 q 22 414 -71 300 q 145 517 78 482 q 269 549 213 551 q 372 516 326 547 q 435 428 418 485 q 549 694 475 558 q 339 635 429 678 q 365 745 335 690 q 438 839 394 800 q 649 861 531 858 q 785 1035 717 961 q 867 1001 815 1031 q 929 944 918 971 l 850 835 q 883 822 869 828 q 842 674 882 739 q 753 693 804 688 q 538 131 421 199 q 692 171 589 101 q 868 388 794 240 l 928 347 q 872 242 906 294 q 789 136 838 189 q 676 50 740 83 q 543 17 611 17 q 393 201 396 17 q 139 17 263 51 m 176 126 q 400 339 265 151 q 381 410 397 381 q 340 453 365 440 q 274 447 314 465 q 186 376 233 429 q 79 172 74 253 q 150 121 83 114 q 176 126 163 122 z "},"ฤ":{"ha":1135,"x_min":-37,"x_max":1197,"o":"m 153 -85 q 19 19 67 -42 q -33 141 -28 79 q -16 265 -37 203 q 49 376 6 328 q 149 455 92 424 q 267 489 207 486 q 220 646 221 569 q 257 779 219 722 q 355 882 294 836 q 494 953 415 928 q 651 988 572 979 q 805 983 729 997 q 935 933 881 968 q 1006 841 993 894 q 1000 743 1018 788 q 960 642 982 699 q 939 554 938 586 q 808 551 897 538 q 696 604 719 564 q 747 684 710 643 q 815 748 785 725 q 862 804 844 771 q 854 864 879 838 q 773 905 828 899 q 654 886 718 911 q 531 816 590 861 q 432 694 472 771 q 389 531 392 618 q 608 525 536 549 q 663 443 679 501 q 592 382 651 404 q 455 372 533 360 q 322 431 376 383 q 208 309 242 389 q 206 147 175 229 q 325 18 236 64 q 481 -17 390 -15 q 669 11 572 -18 q 856 91 765 40 q 1022 219 947 142 q 1136 386 1097 297 l 1197 349 q 1051 135 1146 232 q 843 -22 957 38 q 606 -114 729 -82 q 365 -138 483 -146 q 153 -85 246 -131 m 574 1097 q 613 1181 574 1128 q 967 1179 850 1157 q 977 1117 985 1153 q 951 1051 969 1081 q 733 1053 846 1031 q 574 1097 621 1075 z "},"ฤ":{"ha":715,"x_min":-69,"x_max":778,"o":"m 407 43 q 257 5 333 11 q 118 15 181 -1 q 10 69 56 31 q -52 158 -35 107 q -49 281 -69 210 q 32 426 -29 351 q 144 521 82 488 q 263 556 207 554 q 372 544 319 558 q 462 488 431 526 q 492 405 493 449 q 439 315 490 361 q 292 239 388 268 q 107 189 231 218 q 182 99 115 122 q 363 110 249 76 q 565 224 458 140 q 717 399 671 308 l 778 360 q 638 194 749 294 q 407 43 526 94 m 111 250 q 249 300 171 268 q 381 408 360 349 q 346 467 394 453 q 336 469 342 468 q 194 389 275 476 q 111 250 129 318 m 176 713 q 215 796 176 743 q 569 794 453 772 q 580 732 588 768 q 554 667 572 696 q 336 668 449 646 q 176 713 224 690 z "},"ฤ":{"ha":1135,"x_min":-37,"x_max":1197,"o":"m 153 -85 q 19 19 67 -42 q -33 141 -28 79 q -16 265 -37 203 q 49 376 6 328 q 149 455 92 424 q 267 489 207 486 q 220 646 221 569 q 257 779 219 722 q 355 882 294 836 q 494 953 415 928 q 651 988 572 979 q 805 983 729 997 q 935 933 881 968 q 1006 841 993 894 q 1000 743 1018 788 q 960 642 982 699 q 939 554 938 586 q 808 551 897 538 q 696 604 719 564 q 747 684 710 643 q 815 748 785 725 q 862 804 844 771 q 854 864 879 838 q 773 905 828 899 q 654 886 718 911 q 531 816 590 861 q 432 694 472 771 q 389 531 392 618 q 608 525 536 549 q 663 443 679 501 q 592 382 651 404 q 455 372 533 360 q 322 431 376 383 q 208 309 242 389 q 206 147 175 229 q 325 18 236 64 q 481 -17 390 -15 q 669 11 572 -18 q 856 91 765 40 q 1022 219 947 142 q 1136 386 1097 297 l 1197 349 q 1051 135 1146 232 q 843 -22 957 38 q 606 -114 729 -82 q 365 -138 483 -146 q 153 -85 246 -131 m 686 1176 q 718 1199 693 1182 q 776 1242 743 1217 q 839 1299 808 1268 q 969 1208 889 1233 q 792 1050 882 1100 q 686 1176 717 1119 z "},"ฤ":{"ha":715,"x_min":-69,"x_max":778,"o":"m 407 43 q 257 5 333 11 q 118 15 181 -1 q 10 69 56 31 q -52 158 -35 107 q -49 281 -69 210 q 32 426 -29 351 q 144 521 82 488 q 263 556 207 554 q 372 544 319 558 q 462 488 431 526 q 492 405 493 449 q 439 315 490 361 q 292 239 388 268 q 107 189 231 218 q 182 99 115 122 q 363 110 249 76 q 565 224 458 140 q 717 399 671 308 l 778 360 q 638 194 749 294 q 407 43 526 94 m 111 250 q 249 300 171 268 q 381 408 360 349 q 346 467 394 453 q 336 469 342 468 q 194 389 275 476 q 111 250 129 318 m 289 792 q 321 815 296 797 q 378 858 346 832 q 442 914 411 883 q 572 824 492 849 q 394 665 485 715 q 289 792 319 735 z "},"ฤ":{"ha":1135,"x_min":-37,"x_max":1197,"o":"m 153 -85 q 19 19 67 -42 q -33 141 -28 79 q -16 265 -37 203 q 49 376 6 328 q 149 455 92 424 q 267 489 207 486 q 220 646 221 569 q 257 779 219 722 q 355 882 294 836 q 494 953 415 928 q 651 988 572 979 q 805 983 729 997 q 935 933 881 968 q 1006 841 993 894 q 1000 743 1018 788 q 960 642 982 699 q 939 554 938 586 q 808 551 897 538 q 696 604 719 564 q 747 684 710 643 q 815 748 785 725 q 862 804 844 771 q 854 864 879 838 q 773 905 828 899 q 654 886 718 911 q 531 816 590 861 q 432 694 472 771 q 389 531 392 618 q 608 525 536 549 q 663 443 679 501 q 592 382 651 404 q 455 372 533 360 q 322 431 376 383 q 208 309 242 389 q 206 147 175 229 q 325 18 236 64 q 481 -17 390 -15 q 669 11 572 -18 q 856 91 765 40 q 1022 219 947 142 q 1136 386 1097 297 l 1197 349 q 897 10 1106 142 q 464 -136 689 -121 q 372 -186 413 -158 q 308 -240 331 -214 q 272 -292 286 -265 q 259 -337 257 -318 q 269 -371 261 -357 q 385 -385 310 -417 q 397 -418 406 -393 q 233 -505 315 -490 q 108 -468 151 -519 q 120 -310 58 -408 q 353 -136 182 -212 q 153 -85 240 -128 z "},"ฤ":{"ha":715,"x_min":-144,"x_max":778,"o":"m 407 43 q 238 3 325 7 q 144 -47 185 -19 q 81 -101 103 -75 q 44 -153 58 -126 q 31 -199 29 -179 q 42 -232 33 -218 q 157 -246 82 -278 q 169 -279 178 -254 q 6 -366 88 -351 q -119 -329 -76 -381 q -142 -276 -139 -307 q -128 -210 -144 -246 q -80 -136 -112 -174 q 10 -60 -47 -99 q 143 10 68 -22 q 24 60 74 24 q -49 149 -26 96 q -51 274 -71 201 q 32 426 -32 347 q 144 521 82 488 q 263 556 207 554 q 372 544 319 558 q 462 488 431 526 q 492 405 493 449 q 439 315 490 361 q 292 239 388 268 q 107 189 231 218 q 182 99 115 122 q 363 110 249 76 q 565 224 458 140 q 717 399 671 308 l 778 360 q 638 194 749 294 q 407 43 526 94 m 111 250 q 249 300 171 268 q 381 408 360 349 q 346 467 394 453 q 336 469 342 468 q 194 389 275 476 q 111 250 129 318 z "},"ฤ":{"ha":1135,"x_min":-37,"x_max":1197,"o":"m 153 -85 q 19 19 67 -42 q -33 141 -28 79 q -16 265 -37 203 q 49 376 6 328 q 149 455 92 424 q 267 489 207 486 q 220 646 221 569 q 257 779 219 722 q 355 882 294 836 q 494 953 415 928 q 651 988 572 979 q 805 983 729 997 q 935 933 881 968 q 1006 841 993 894 q 1000 743 1018 788 q 960 642 982 699 q 939 554 938 586 q 808 551 897 538 q 696 604 719 564 q 747 684 710 643 q 815 748 785 725 q 862 804 844 771 q 854 864 879 838 q 773 905 828 899 q 654 886 718 911 q 531 816 590 861 q 432 694 472 771 q 389 531 392 618 q 608 525 536 549 q 663 443 679 501 q 592 382 651 404 q 455 372 533 360 q 322 431 376 383 q 208 309 242 389 q 206 147 175 229 q 325 18 236 64 q 481 -17 390 -15 q 669 11 572 -18 q 856 91 765 40 q 1022 219 947 142 q 1136 386 1097 297 l 1197 349 q 1051 135 1146 232 q 843 -22 957 38 q 606 -114 729 -82 q 365 -138 483 -146 q 153 -85 246 -131 m 603 1219 q 688 1299 636 1286 q 771 1131 717 1231 q 951 1300 832 1194 q 1003 1204 999 1258 q 810 1024 888 1128 q 722 1057 738 1035 q 694 1124 718 1092 q 603 1219 671 1157 z "},"ฤ":{"ha":715,"x_min":-69,"x_max":778,"o":"m 407 43 q 257 5 333 11 q 118 15 181 -1 q 10 69 56 31 q -52 158 -35 107 q -49 281 -69 210 q 32 426 -29 351 q 144 521 82 488 q 263 556 207 554 q 372 544 319 558 q 462 488 431 526 q 492 405 493 449 q 439 315 490 361 q 292 239 388 268 q 107 189 231 218 q 182 99 115 122 q 363 110 249 76 q 565 224 458 140 q 717 399 671 308 l 778 360 q 638 194 749 294 q 407 43 526 94 m 111 250 q 249 300 171 268 q 381 408 360 349 q 346 467 394 453 q 336 469 342 468 q 194 389 275 476 q 111 250 129 318 m 206 835 q 290 914 239 901 q 374 746 319 846 q 554 915 435 810 q 606 819 601 874 q 413 639 490 743 q 325 672 340 650 q 297 740 321 707 q 206 835 274 772 z "},"ฤ":{"ha":1074,"x_min":-46,"x_max":1075,"o":"m 354 -664 q 294 -575 299 -617 q 456 -43 365 -274 q 256 -119 349 -103 q 97 -103 164 -136 q -12 11 21 -61 q -35 170 -46 83 q 16 353 -24 257 q 125 545 56 450 q 277 723 194 640 q 458 869 360 806 q 651 964 556 933 q 608 1054 610 1006 q 800 1235 722 1132 q 889 1201 874 1224 q 915 1134 892 1167 q 1006 1040 938 1101 q 940 968 982 990 q 1008 933 976 953 q 1071 833 1067 894 q 1047 715 1075 771 q 990 596 1019 660 q 961 500 960 532 q 830 497 919 483 q 718 551 740 510 q 763 623 731 585 q 828 690 796 661 q 892 752 861 718 q 932 810 924 786 q 925 864 940 835 q 827 917 890 910 q 694 897 764 924 q 550 812 624 869 q 422 678 476 754 q 319 510 365 597 q 242 335 272 424 q 217 172 211 246 q 271 60 222 97 q 365 32 306 33 q 501 63 425 31 q 743 428 614 313 q 915 317 840 410 q 592 -89 775 221 q 354 -664 410 -399 m 672 971 q 915 976 806 1008 q 840 1126 875 1064 q 672 971 789 1075 z "},"ฤ":{"ha":864,"x_min":-232,"x_max":926,"o":"m 163 -274 q -7 -321 74 -317 q -133 -301 -87 -325 q -194 -240 -179 -278 q -152 -78 -232 -137 q 75 -19 -72 -18 q 286 -1 174 -19 q 364 169 340 92 q 138 17 247 47 q 47 5 88 4 q -22 24 6 6 q -67 71 -49 43 q -87 138 -85 99 q -80 221 -89 178 q -44 315 -71 264 q 22 414 -18 365 q 144 515 78 481 q 267 549 210 550 q 369 519 324 549 q 432 433 414 489 q 476 501 447 464 q 558 465 508 493 q 618 411 608 436 q 585 335 606 379 q 561 283 564 290 q 444 36 507 147 q 594 90 517 58 q 742 202 672 122 q 867 388 813 282 l 926 347 q 833 190 896 272 q 694 58 771 108 q 386 -58 569 -22 q 163 -274 275 -221 m -51 -204 q 26 -233 -29 -236 q 133 -189 82 -229 q 235 -81 182 -153 q 60 -89 136 -89 q -35 -107 -1 -89 q -70 -150 -69 -125 q -51 -204 -71 -175 m 171 668 q 363 849 285 746 q 451 815 436 838 q 477 748 454 781 q 568 654 500 715 q 485 574 538 589 q 403 740 453 649 q 221 572 342 679 q 171 668 172 615 m 174 126 q 389 325 257 149 l 399 356 q 375 419 392 394 q 333 454 358 444 q 269 444 307 464 q 186 376 231 425 q 79 175 75 257 q 143 121 82 117 q 174 126 157 122 z "},"ฤ":{"ha":1074,"x_min":-71,"x_max":1075,"o":"m 354 -664 q 294 -575 299 -617 q 456 -43 365 -274 q 256 -119 349 -103 q 97 -103 164 -136 q -29 210 -71 -14 q 188 626 7 411 q 585 939 371 843 q 1008 933 832 1047 q 1071 833 1067 894 q 1047 715 1075 771 q 990 596 1019 660 q 961 500 960 532 q 830 497 919 483 q 718 551 740 510 q 763 623 731 585 q 828 690 796 661 q 892 752 861 718 q 932 810 924 786 q 925 864 940 835 q 827 917 890 910 q 694 897 764 924 q 550 812 624 869 q 422 678 476 754 q 319 510 365 597 q 242 335 272 424 q 217 172 211 246 q 271 60 222 97 q 365 32 306 33 q 501 63 425 31 q 743 428 614 313 q 915 317 840 410 q 592 -89 775 221 q 354 -664 410 -399 m 585 1157 q 664 1206 621 1193 q 736 1212 707 1219 q 768 1186 765 1204 q 792 1088 764 1118 q 865 1081 819 1057 q 951 1183 911 1106 q 1006 1199 979 1199 q 1047 1190 1033 1200 q 1056 1164 1060 1179 q 897 1018 1001 1063 q 699 1010 792 974 q 585 1157 606 1047 z "},"ฤ":{"ha":864,"x_min":-232,"x_max":926,"o":"m 163 -274 q -7 -321 74 -317 q -133 -301 -87 -325 q -194 -240 -179 -278 q -152 -78 -232 -137 q 75 -19 -72 -18 q 286 -1 174 -19 q 364 169 340 92 q 138 17 247 47 q 47 5 88 4 q -22 24 6 6 q -67 71 -49 43 q -87 138 -85 99 q -80 221 -89 178 q -44 315 -71 264 q 22 414 -18 365 q 144 515 78 481 q 267 549 210 550 q 369 519 324 549 q 432 433 414 489 q 476 501 447 464 q 558 465 508 493 q 618 411 608 436 q 585 335 606 379 q 561 283 564 290 q 444 36 507 147 q 594 90 517 58 q 742 202 672 122 q 867 388 813 282 l 926 347 q 833 190 896 272 q 694 58 771 108 q 386 -58 569 -22 q 163 -274 275 -221 m -51 -204 q 26 -233 -29 -236 q 133 -189 82 -229 q 235 -81 182 -153 q 60 -89 136 -89 q -35 -107 -1 -89 q -70 -150 -69 -125 q -51 -204 -71 -175 m 147 771 q 226 820 183 807 q 299 826 269 833 q 331 800 328 818 q 354 701 326 732 q 428 695 382 671 q 514 797 474 719 q 569 813 542 813 q 609 803 596 814 q 618 778 622 793 q 459 632 564 676 q 261 624 354 588 q 147 771 168 661 m 174 126 q 389 325 257 149 l 399 356 q 375 419 392 394 q 333 454 358 444 q 269 444 307 464 q 186 376 231 425 q 79 175 75 257 q 143 121 82 117 q 174 126 157 122 z "},"ฤ":{"ha":1074,"x_min":-71,"x_max":1075,"o":"m 354 -664 q 294 -575 299 -617 q 456 -43 365 -274 q 256 -119 349 -103 q 97 -103 164 -136 q -29 210 -71 -14 q 188 626 7 411 q 585 939 371 843 q 1008 933 832 1047 q 1071 833 1067 894 q 1047 715 1075 771 q 990 596 1019 660 q 961 500 960 532 q 830 497 919 483 q 718 551 740 510 q 763 623 731 585 q 828 690 796 661 q 892 752 861 718 q 932 810 924 786 q 925 864 940 835 q 827 917 890 910 q 694 897 764 924 q 550 812 624 869 q 422 678 476 754 q 319 510 365 597 q 242 335 272 424 q 217 172 211 246 q 271 60 222 97 q 365 32 306 33 q 501 63 425 31 q 743 428 614 313 q 915 317 840 410 q 592 -89 775 221 q 354 -664 410 -399 m 693 1135 q 725 1158 700 1140 q 783 1201 750 1175 q 846 1257 815 1226 q 976 1167 896 1192 q 799 1008 889 1058 q 693 1135 724 1078 z "},"ฤก":{"ha":864,"x_min":-232,"x_max":926,"o":"m 163 -274 q -7 -321 74 -317 q -133 -301 -87 -325 q -194 -240 -179 -278 q -152 -78 -232 -137 q 75 -19 -72 -18 q 286 -1 174 -19 q 364 169 340 92 q 138 17 247 47 q 47 5 88 4 q -22 24 6 6 q -67 71 -49 43 q -87 138 -85 99 q -80 221 -89 178 q -44 315 -71 264 q 22 414 -18 365 q 144 515 78 481 q 267 549 210 550 q 369 519 324 549 q 432 433 414 489 q 476 501 447 464 q 558 465 508 493 q 618 411 608 436 q 585 335 606 379 q 561 283 564 290 q 444 36 507 147 q 594 90 517 58 q 742 202 672 122 q 867 388 813 282 l 926 347 q 833 190 896 272 q 694 58 771 108 q 386 -58 569 -22 q 163 -274 275 -221 m -51 -204 q 26 -233 -29 -236 q 133 -189 82 -229 q 235 -81 182 -153 q 60 -89 136 -89 q -35 -107 -1 -89 q -70 -150 -69 -125 q -51 -204 -71 -175 m 174 126 q 389 325 257 149 l 399 356 q 375 419 392 394 q 333 454 358 444 q 269 444 307 464 q 186 376 231 425 q 79 175 75 257 q 143 121 82 117 q 174 126 157 122 m 256 749 q 288 772 263 754 q 345 815 313 789 q 408 871 378 840 q 539 781 458 806 q 361 622 451 672 q 256 749 286 692 z "},"ฤข":{"ha":1074,"x_min":-71,"x_max":1075,"o":"m 354 -664 q 294 -575 299 -617 q 456 -43 365 -274 q 256 -119 349 -103 q 97 -103 164 -136 q -29 210 -71 -14 q 188 626 7 411 q 585 939 371 843 q 1008 933 832 1047 q 1071 833 1067 894 q 1047 715 1075 771 q 990 596 1019 660 q 961 500 960 532 q 830 497 919 483 q 718 551 740 510 q 763 623 731 585 q 828 690 796 661 q 892 752 861 718 q 932 810 924 786 q 925 864 940 835 q 827 917 890 910 q 694 897 764 924 q 550 812 624 869 q 422 678 476 754 q 319 510 365 597 q 242 335 272 424 q 217 172 211 246 q 271 60 222 97 q 365 32 306 33 q 501 63 425 31 q 743 428 614 313 q 915 317 840 410 q 592 -89 775 221 q 354 -664 410 -399 m -50 -461 q 56 -362 13 -417 q -8 -301 11 -336 q 142 -151 36 -210 q 229 -268 208 -207 q -26 -507 169 -400 q -50 -461 -56 -485 z "},"ฤฃ":{"ha":864,"x_min":-232,"x_max":926,"o":"m 163 -274 q -7 -321 74 -317 q -133 -301 -87 -325 q -194 -240 -179 -278 q -152 -78 -232 -137 q 75 -19 -72 -18 q 286 -1 174 -19 q 364 169 340 92 q 138 17 247 47 q 47 5 88 4 q -22 24 6 6 q -67 71 -49 43 q -87 138 -85 99 q -80 221 -89 178 q -44 315 -71 264 q 22 414 -18 365 q 144 515 78 481 q 267 549 210 550 q 369 519 324 549 q 432 433 414 489 q 476 501 447 464 q 558 465 508 493 q 618 411 608 436 q 585 335 606 379 q 561 283 564 290 q 444 36 507 147 q 594 90 517 58 q 742 202 672 122 q 867 388 813 282 l 926 347 q 833 190 896 272 q 694 58 771 108 q 386 -58 569 -22 q 163 -274 275 -221 m -51 -204 q 26 -233 -29 -236 q 133 -189 82 -229 q 235 -81 182 -153 q 60 -89 136 -89 q -35 -107 -1 -89 q -70 -150 -69 -125 q -51 -204 -71 -175 m 174 126 q 389 325 257 149 l 399 356 q 375 419 392 394 q 333 454 358 444 q 269 444 307 464 q 186 376 231 425 q 79 175 75 257 q 143 121 82 117 q 174 126 157 122 m 236 689 q 531 964 304 839 q 560 911 564 940 q 439 797 478 851 q 511 728 486 767 q 338 554 457 619 q 236 689 264 614 z "},"ฤค":{"ha":1465,"x_min":-183,"x_max":1528,"o":"m 53 -322 q -95 -297 -22 -336 q -183 -200 -168 -257 q 164 52 -10 -97 q 471 378 338 201 q 121 338 283 375 q 188 494 107 404 q 543 482 296 522 q 733 972 699 726 q 894 936 806 990 q 678 457 839 729 q 892 407 761 442 q 1292 979 1000 719 q 1401 878 1353 967 q 1204 715 1289 808 q 1077 531 1119 621 q 1018 358 1035 440 q 1016 216 1001 275 q 1068 135 1031 157 q 1271 167 1144 88 q 1467 388 1397 247 l 1528 347 q 1417 176 1485 251 q 1278 58 1350 100 q 1135 -7 1207 15 q 1003 -25 1064 -29 q 906 4 943 -21 q 850 122 861 35 q 869 332 839 210 q 628 372 768 361 q 53 -322 371 -37 m 913 1096 q 1104 1276 1026 1174 q 1193 1243 1178 1265 q 1219 1176 1196 1208 q 1310 1082 1242 1143 q 1226 1001 1279 1017 q 1144 1168 1194 1076 q 963 1000 1083 1107 q 913 1096 914 1043 z "},"ฤฅ":{"ha":710,"x_min":-175,"x_max":772,"o":"m -51 -17 q -175 51 -135 -8 q 42 478 -117 114 q 196 939 200 843 q 340 894 272 961 q 282 678 347 853 q 126 308 217 503 q 319 499 232 410 q 320 500 319 500 q 321 501 321 500 q 403 465 353 493 q 463 411 454 436 q 388 232 394 258 q 406 146 374 178 q 447 133 422 135 q 505 149 471 131 q 573 197 539 168 q 644 276 607 226 q 711 388 681 326 l 772 347 q 716 241 750 294 q 633 134 682 188 q 520 48 585 81 q 388 17 456 15 q 244 113 286 21 q 232 325 201 204 q -14 38 119 222 q -51 -17 -39 -3 m 353 996 q 544 1176 467 1074 q 633 1143 618 1165 q 659 1076 636 1108 q 750 982 682 1043 q 667 901 719 917 q 585 1068 635 976 q 403 900 524 1007 q 353 996 354 943 z "},"ฤฆ":{"ha":1465,"x_min":-183,"x_max":1528,"o":"m 53 -322 q -95 -297 -22 -336 q -183 -200 -168 -257 q 164 52 -10 -97 q 471 378 338 201 q 121 338 283 375 q 188 494 107 404 q 396 500 264 513 q 437 578 390 539 q 551 646 483 618 l 636 653 q 733 972 708 808 q 894 936 806 990 q 788 660 863 813 q 1017 660 910 664 q 1292 979 1129 833 q 1401 878 1353 967 q 1151 650 1251 785 q 1249 635 1200 644 q 1233 577 1247 600 q 1185 528 1219 554 q 1082 539 1132 535 q 1019 363 1036 450 q 1016 217 1003 276 q 1068 135 1029 157 q 1271 167 1144 88 q 1467 388 1397 247 l 1528 347 q 1417 176 1485 251 q 1278 58 1350 100 q 1135 -7 1207 15 q 1003 -25 1064 -29 q 906 4 943 -21 q 850 122 861 35 q 869 332 839 210 q 628 372 768 361 q 53 -322 371 -37 m 397 500 q 543 482 476 493 l 572 529 q 397 500 478 518 m 678 457 q 892 407 761 442 q 951 546 921 485 q 726 543 854 550 q 678 457 689 475 z "},"ฤง":{"ha":710,"x_min":-175,"x_max":772,"o":"m -51 -17 q -175 51 -135 -8 q -71 233 -146 82 q 74 553 4 383 q -37 513 10 536 q -12 623 -42 568 q 61 717 18 678 q 143 731 93 724 q 196 939 197 883 q 340 894 272 961 q 303 738 346 863 q 507 700 432 735 q 465 551 506 617 q 243 578 372 582 q 126 308 197 463 q 319 499 232 410 q 320 500 319 500 q 321 501 321 500 q 403 465 353 493 q 463 411 454 436 q 388 232 394 258 q 406 146 374 178 q 447 133 422 135 q 505 149 471 131 q 573 197 539 168 q 644 276 607 226 q 711 388 681 326 l 772 347 q 716 241 750 294 q 633 134 682 188 q 520 48 585 81 q 388 17 456 15 q 244 113 286 21 q 232 325 201 204 q -14 38 119 222 q -51 -17 -39 -3 z "},"ฤจ":{"ha":729,"x_min":-93,"x_max":790,"o":"m -25 -160 q -92 -15 -92 -103 q -44 188 -93 74 q 67 424 6 303 q 192 706 129 544 q 276 1013 256 868 q 474 901 346 999 q 419 721 461 824 q 328 526 378 618 q 226 335 279 435 q 139 164 174 235 q 91 31 104 93 q 107 -49 78 -32 q 299 -37 169 -100 q 551 147 428 25 q 731 388 674 269 l 790 347 q 641 131 746 247 q 413 -70 536 15 q 170 -190 290 -156 q -25 -160 50 -224 m 221 1165 q 324 1240 281 1218 q 390 1258 368 1263 q 429 1237 413 1253 q 453 1200 446 1221 q 472 1167 461 1179 q 499 1161 483 1156 q 569 1239 553 1182 q 663 1249 617 1263 q 700 1181 708 1235 q 556 1074 636 1108 q 440 1050 476 1040 q 411 1084 421 1053 q 397 1144 401 1115 q 381 1171 392 1172 q 338 1127 360 1168 q 311 1047 315 1086 q 241 1080 268 1036 q 221 1165 214 1124 z "},"ฤฉ":{"ha":457,"x_min":-46,"x_max":519,"o":"m 135 17 q -2 99 42 19 q -28 291 -46 178 q 67 501 -10 404 q 150 465 100 493 q 210 411 200 436 q 188 363 200 390 q 168 319 175 335 q 153 283 161 304 q 140 251 144 263 q 132 224 136 239 q 128 201 128 210 q 131 181 129 192 q 138 163 132 171 q 151 146 143 154 q 207 134 169 125 q 285 169 244 143 q 374 253 326 196 q 458 388 421 311 l 519 347 q 463 241 497 294 q 381 134 429 188 q 267 48 332 81 q 135 17 203 15 m -4 717 q 99 792 56 769 q 165 809 143 814 q 204 788 188 804 q 228 751 221 772 q 247 719 236 731 q 274 713 258 707 q 344 790 328 733 q 438 800 392 814 q 475 732 483 786 q 331 626 411 660 q 215 601 251 592 q 186 635 196 604 q 172 695 176 667 q 156 722 167 724 q 113 678 135 719 q 86 599 90 638 q 16 631 43 588 q -4 717 -11 675 z "},"ฤช":{"ha":729,"x_min":-93,"x_max":790,"o":"m -25 -160 q -92 -15 -92 -103 q -44 188 -93 74 q 67 424 6 303 q 192 706 129 544 q 276 1013 256 868 q 474 901 346 999 q 419 721 461 824 q 328 526 378 618 q 226 335 279 435 q 139 164 174 235 q 91 31 104 93 q 107 -49 78 -32 q 299 -37 169 -100 q 551 147 428 25 q 731 388 674 269 l 790 347 q 641 131 746 247 q 413 -70 536 15 q 170 -190 290 -156 q -25 -160 50 -224 m 204 1085 q 243 1168 204 1115 q 597 1167 481 1144 q 608 1104 615 1140 q 582 1039 600 1068 q 364 1040 476 1018 q 204 1085 251 1063 z "},"ฤซ":{"ha":457,"x_min":-46,"x_max":519,"o":"m 135 17 q -2 99 42 19 q -28 291 -46 178 q 67 501 -10 404 q 150 465 100 493 q 210 411 200 436 q 188 363 200 390 q 168 319 175 335 q 153 283 161 304 q 140 251 144 263 q 132 224 136 239 q 128 201 128 210 q 131 181 129 192 q 138 163 132 171 q 151 146 143 154 q 207 134 169 125 q 285 169 244 143 q 374 253 326 196 q 458 388 421 311 l 519 347 q 463 241 497 294 q 381 134 429 188 q 267 48 332 81 q 135 17 203 15 m -22 636 q 18 719 -22 665 q 372 718 256 696 q 383 656 390 692 q 357 590 375 619 q 140 592 251 569 q -22 636 28 614 z "},"ฤฎ":{"ha":729,"x_min":-244,"x_max":790,"o":"m -25 -160 q -92 -15 -92 -103 q -44 188 -93 74 q 67 424 6 303 q 192 706 129 544 q 276 1013 256 868 q 474 901 346 999 q 419 721 461 824 q 328 526 378 618 q 226 335 279 435 q 139 164 174 235 q 91 31 104 93 q 107 -49 78 -32 q 299 -37 169 -100 q 551 147 428 25 q 731 388 674 269 l 790 347 q 510 5 717 182 q 136 -196 304 -172 q -17 -317 26 -250 q -33 -419 -61 -385 q 82 -433 7 -465 q 94 -467 103 -442 q -69 -554 11 -540 q -194 -517 -150 -568 q -186 -364 -244 -458 q 36 -192 -128 -269 q -25 -160 3 -183 z "},"ฤฏ":{"ha":457,"x_min":-226,"x_max":519,"o":"m 244 838 q 375 747 294 772 q 197 589 288 639 q 92 715 122 658 q 124 738 99 721 q 181 781 149 756 q 244 838 214 807 m -175 -308 q -162 -149 -226 -249 q 79 28 -97 -49 q -31 218 -26 68 q 67 501 -36 368 q 150 465 100 493 q 210 411 200 436 q 188 363 200 390 q 168 319 175 335 q 153 283 161 304 q 140 251 144 263 q 132 224 136 239 q 128 201 128 210 q 131 181 129 192 q 138 163 132 171 q 151 146 143 154 q 207 134 169 125 q 285 169 244 143 q 374 253 326 196 q 458 388 421 311 l 519 347 q 446 213 490 279 q 326 87 401 147 q 169 18 250 26 q 63 -44 108 -10 q 1 -110 18 -79 q -23 -169 -17 -140 q -14 -211 -29 -197 q 101 -225 26 -257 q 114 -258 122 -233 q -50 -345 32 -331 q -175 -308 -132 -360 z "},"ฤฐ":{"ha":729,"x_min":-93,"x_max":790,"o":"m -25 -160 q -92 -15 -92 -103 q -44 188 -93 74 q 67 424 6 303 q 192 706 129 544 q 276 1013 256 868 q 474 901 346 999 q 419 721 461 824 q 328 526 378 618 q 226 335 279 435 q 139 164 174 235 q 91 31 104 93 q 107 -49 78 -32 q 299 -37 169 -100 q 551 147 428 25 q 731 388 674 269 l 790 347 q 641 131 746 247 q 413 -70 536 15 q 170 -190 290 -156 q -25 -160 50 -224 m 317 1164 q 349 1187 324 1169 q 406 1230 374 1204 q 469 1286 439 1256 q 600 1196 519 1221 q 422 1038 513 1088 q 317 1164 347 1107 z "},"ฤฑ":{"ha":457,"x_min":-46,"x_max":519,"o":"m 135 17 q -2 99 42 19 q -28 291 -46 178 q 67 501 -10 404 q 150 465 100 493 q 210 411 200 436 q 188 363 200 390 q 168 319 175 335 q 153 283 161 304 q 140 251 144 263 q 132 224 136 239 q 128 201 128 210 q 131 181 129 192 q 138 163 132 171 q 151 146 143 154 q 207 134 169 125 q 285 169 244 143 q 374 253 326 196 q 458 388 421 311 l 519 347 q 463 241 497 294 q 381 134 429 188 q 267 48 332 81 q 135 17 203 15 z "},"ฤฒ":{"ha":1842,"x_min":-93,"x_max":1983,"o":"m -25 -160 q -92 -15 -92 -103 q -44 188 -93 74 q 67 424 6 303 q 192 706 129 544 q 276 1013 256 868 q 474 901 346 999 q 419 721 461 824 q 328 526 378 618 q 226 335 279 435 q 139 164 174 235 q 91 31 104 93 q 107 -49 78 -32 q 299 -37 169 -100 q 551 147 428 25 q 731 388 674 269 l 790 347 q 641 131 746 247 q 413 -70 536 15 q 170 -190 290 -156 q -25 -160 50 -224 m 578 -124 q 628 -27 583 -69 q 735 38 672 15 q 942 -131 815 -97 q 1193 -83 1069 -165 q 1469 244 1333 14 q 1704 821 1606 475 q 938 733 1442 840 q 1042 947 918 828 q 1739 904 1460 963 q 1922 999 1793 963 q 1969 888 1956 953 q 1969 768 1983 822 q 1793 810 1883 797 q 1545 161 1689 429 q 1233 -247 1401 -107 q 992 -351 1125 -337 q 745 -304 858 -365 q 578 -124 632 -243 z "},"ฤณ":{"ha":907,"x_min":-46,"x_max":969,"o":"m 135 17 q -2 99 42 19 q -28 291 -46 178 q 67 501 -10 404 q 150 465 100 493 q 210 411 200 436 q 188 363 200 390 q 168 319 175 335 q 153 283 161 304 q 140 251 144 263 q 132 224 136 239 q 128 201 128 210 q 131 181 129 192 q 138 163 132 171 q 151 146 143 154 q 207 134 169 125 q 285 169 244 143 q 374 253 326 196 q 458 388 421 311 l 460 386 q 517 501 496 475 q 600 465 550 494 q 661 411 650 436 q 632 348 653 393 q 604 283 611 303 q 472 14 531 111 q 719 158 586 39 q 910 388 853 278 l 969 347 q 908 247 951 306 q 792 113 864 188 q 610 -29 721 38 q 378 -126 500 -96 q 282 -241 333 -197 q 187 -299 231 -285 q 103 -310 143 -312 q 39 -290 64 -307 q 4 -251 14 -274 q 47 -113 -29 -171 q 263 -57 124 -56 l 271 -57 q 342 99 297 -4 q 135 17 244 15 m 119 -203 q 144 -210 126 -211 q 185 -190 161 -210 q 222 -142 210 -171 q 156 -153 183 -143 q 120 -177 129 -164 q 119 -203 111 -190 m 158 573 q 141 589 158 573 q 125 653 125 606 q 158 733 125 700 q 238 767 190 767 q 318 733 285 767 q 351 653 351 700 q 319 573 351 606 q 238 540 286 540 q 158 573 190 540 m 587 573 q 570 589 587 573 q 554 653 554 606 q 587 733 554 700 q 665 767 619 767 q 747 733 713 767 q 781 653 781 700 q 747 573 781 606 q 665 540 714 540 q 587 573 619 540 z "},"ฤด":{"ha":1113,"x_min":-153,"x_max":1254,"o":"m 504 -247 q 263 -351 396 -337 q 16 -304 129 -365 q -153 -124 -97 -243 q -101 -27 -146 -69 q 6 38 -57 15 q 213 -131 86 -97 q 464 -83 340 -165 q 740 244 604 14 q 975 821 876 475 q 208 733 713 840 q 313 947 189 828 q 1010 904 731 963 q 1193 999 1064 963 q 1240 888 1226 953 q 1240 768 1254 822 q 1064 810 1154 797 q 816 161 960 429 q 504 -247 672 -107 m 628 1054 q 819 1235 742 1132 q 908 1201 893 1224 q 934 1134 911 1167 q 1025 1040 957 1101 q 942 960 994 975 q 860 1126 910 1035 q 678 958 799 1065 q 628 1054 629 1001 z "},"ฤต":{"ha":450,"x_min":-486,"x_max":513,"o":"m -337 -203 q -313 -210 -331 -211 q -272 -190 -296 -210 q -235 -142 -247 -171 q -301 -153 -274 -143 q -337 -177 -328 -164 q -337 -203 -346 -190 m -453 -251 q -410 -113 -486 -171 q -194 -57 -333 -56 l -187 -57 q -52 253 -139 36 q 60 501 35 469 q 143 465 93 494 q 204 411 193 436 q 175 348 196 393 q 147 283 154 303 q 15 14 74 111 q 263 158 129 39 q 453 388 396 278 l 513 347 q 451 247 494 306 q 335 113 407 188 q 153 -29 264 38 q -81 -126 42 -96 q -176 -241 -125 -197 q -272 -299 -228 -285 q -354 -310 -315 -312 q -418 -290 -393 -307 q -453 -251 -443 -274 m -19 610 q 174 790 96 686 q 263 757 247 779 q 288 690 265 722 q 379 596 311 657 q 296 515 349 531 q 214 682 264 590 q 32 514 153 621 q -19 610 -15 556 z "},"ฤถ":{"ha":1049,"x_min":-115,"x_max":1260,"o":"m 129 -114 q -19 -103 57 -136 q -115 -14 -96 -71 q 79 147 -15 57 q 272 363 174 238 q 436 647 371 488 q 513 971 501 806 q 675 949 581 992 q 533 550 646 803 q 846 744 672 603 q 1138 1053 1019 886 q 1191 983 1164 1033 q 1217 872 1218 932 q 983 683 1158 788 q 586 481 808 579 q 840 27 650 283 q 1260 -407 1031 -229 q 1161 -481 1225 -446 q 1014 -511 1097 -515 q 753 -160 897 -422 q 478 429 610 103 q 129 -114 303 71 m 204 -383 q 310 -285 267 -339 q 246 -224 265 -258 q 396 -74 290 -132 q 483 -190 463 -129 q 228 -429 424 -322 q 204 -383 199 -407 z "},"ฤท":{"ha":724,"x_min":-176,"x_max":788,"o":"m -51 -17 q -176 51 -136 -8 q -50 277 -142 89 q 120 670 42 465 q 196 939 199 875 q 338 894 271 961 q 278 674 344 853 q 124 304 213 496 q 308 403 219 340 q 446 547 396 465 q 515 516 475 542 q 565 464 556 490 q 438 340 521 385 q 264 285 354 296 q 403 119 258 126 q 560 181 468 117 q 725 388 653 246 l 788 347 q 699 199 756 275 q 551 55 642 122 q 372 -18 461 -12 q 164 66 222 -26 q 122 301 106 158 q -51 -17 7 53 m -99 -307 q 7 -208 -36 -262 q -57 -147 -37 -182 q 93 3 -12 -56 q 181 -114 160 -53 q -75 -353 121 -246 q -99 -307 -104 -331 z "},"ฤน":{"ha":1015,"x_min":-190,"x_max":1244,"o":"m 1125 -375 q 644 -249 903 -292 q 154 -208 386 -207 q 71 -249 124 -224 q -11 -289 18 -275 q -78 -319 -40 -303 q -149 -343 -117 -335 q -151 -110 -190 -253 l 103 -97 q 268 140 190 13 q 392 367 346 268 q 498 569 439 465 q 616 752 557 674 q 770 901 675 831 q 989 1017 865 971 q 1125 955 1051 1013 q 1193 838 1199 897 q 943 757 1051 808 q 767 644 835 706 q 631 495 699 583 q 514 324 564 407 q 381 124 464 240 q 210 -92 299 7 q 1051 -114 813 -25 q 1122 -262 1106 -194 q 1125 -375 1139 -331 m 896 1042 q 885 1069 885 1047 q 896 1108 886 1090 q 1158 1344 1072 1218 q 1224 1305 1204 1350 q 1228 1199 1244 1260 q 896 1042 1117 1090 z "},"ฤบ":{"ha":499,"x_min":-26,"x_max":704,"o":"m 160 17 q -21 253 -26 39 q 140 733 -17 456 q 331 1004 226 885 q 429 962 372 1003 q 497 890 486 921 q 306 653 388 765 q 176 453 224 540 q 110 299 129 367 q 100 190 90 232 q 144 131 110 147 q 319 166 214 96 q 501 388 425 236 l 561 347 q 501 238 539 294 q 413 126 464 182 q 294 40 361 71 q 160 17 226 8 m 356 1008 q 345 1035 344 1014 q 356 1075 346 1057 q 618 1311 532 1185 q 684 1272 664 1317 q 688 1165 704 1226 q 356 1008 576 1057 z "},"ฤป":{"ha":1015,"x_min":-190,"x_max":1199,"o":"m 1125 -375 q 644 -249 903 -292 q 154 -208 386 -207 q 71 -249 124 -224 q -11 -289 18 -275 q -78 -319 -40 -303 q -149 -343 -117 -335 q -151 -110 -190 -253 l 103 -97 q 268 140 190 13 q 392 367 346 268 q 498 569 439 465 q 616 752 557 674 q 770 901 675 831 q 989 1017 865 971 q 1125 955 1051 1013 q 1193 838 1199 897 q 943 757 1051 808 q 767 644 835 706 q 631 495 699 583 q 514 324 564 407 q 381 124 464 240 q 210 -92 299 7 q 1051 -114 813 -25 q 1122 -262 1106 -194 q 1125 -375 1139 -331 m 131 -569 q 236 -471 193 -525 q 172 -410 192 -444 q 322 -260 217 -318 q 410 -376 389 -315 q 154 -615 350 -508 q 131 -569 125 -593 z "},"ฤผ":{"ha":499,"x_min":-118,"x_max":561,"o":"m 160 17 q -21 253 -26 39 q 140 733 -17 456 q 331 1004 226 885 q 429 962 372 1003 q 497 890 486 921 q 306 653 388 765 q 176 453 224 540 q 110 299 129 367 q 100 190 90 232 q 144 131 110 147 q 319 166 214 96 q 501 388 425 236 l 561 347 q 501 238 539 294 q 413 126 464 182 q 294 40 361 71 q 160 17 226 8 m -112 -383 q -7 -285 -50 -339 q -71 -224 -51 -258 q 79 -74 -26 -132 q 167 -190 146 -129 q -89 -429 107 -322 q -112 -383 -118 -407 z "},"ฤฝ":{"ha":1015,"x_min":-190,"x_max":1481,"o":"m 1125 -375 q 644 -249 903 -292 q 154 -208 386 -207 q 71 -249 124 -224 q -11 -289 18 -275 q -78 -319 -40 -303 q -149 -343 -117 -335 q -151 -110 -190 -253 l 103 -97 q 268 140 190 13 q 392 367 346 268 q 498 569 439 465 q 616 752 557 674 q 770 901 675 831 q 989 1017 865 971 q 1125 955 1051 1013 q 1193 838 1199 897 q 943 757 1051 808 q 767 644 835 706 q 631 495 699 583 q 514 324 564 407 q 381 124 464 240 q 210 -92 299 7 q 1051 -114 813 -25 q 1122 -262 1106 -194 q 1125 -375 1139 -331 m 1247 1019 q 1481 1022 1376 1111 q 1390 880 1435 985 q 1350 701 1344 775 q 1258 686 1319 674 q 1242 746 1250 703 q 1231 864 1235 789 q 1247 1019 1228 939 z "},"ฤพ":{"ha":499,"x_min":-26,"x_max":774,"o":"m 160 17 q -21 253 -26 39 q 140 733 -17 456 q 331 1004 226 885 q 429 962 372 1003 q 497 890 486 921 q 306 653 388 765 q 176 453 224 540 q 110 299 129 367 q 100 190 90 232 q 144 131 110 147 q 319 166 214 96 q 501 388 425 236 l 561 347 q 501 238 539 294 q 413 126 464 182 q 294 40 361 71 q 160 17 226 8 m 540 929 q 774 932 669 1021 q 683 790 728 894 q 643 611 638 685 q 551 596 613 583 q 535 656 543 613 q 524 774 528 699 q 540 929 521 849 z "},"ล":{"ha":1015,"x_min":-190,"x_max":1199,"o":"m 1125 -375 q 644 -249 903 -292 q 154 -208 386 -207 q 71 -249 124 -224 q -11 -289 18 -275 q -78 -319 -40 -303 q -149 -343 -117 -335 q -151 -110 -190 -253 l 103 -97 q 367 318 236 68 q 210 267 279 300 q 235 377 206 322 q 308 471 265 432 q 456 490 388 486 q 549 657 507 590 q 655 797 592 724 q 800 924 718 869 q 989 1017 882 978 q 1125 955 1051 1013 q 1193 838 1199 897 q 855 710 983 794 q 624 488 726 625 q 754 454 704 476 q 713 306 753 371 q 519 332 633 332 q 428 193 456 233 q 338 66 401 153 q 210 -92 274 -21 q 1051 -114 813 -25 q 1122 -262 1106 -194 q 1125 -375 1139 -331 z "},"ล":{"ha":499,"x_min":-51,"x_max":561,"o":"m 160 17 q 13 101 58 29 q -20 280 -32 172 q 37 511 -8 388 q 157 761 82 635 q -47 703 43 747 q -22 813 -51 758 q 51 907 8 868 q 269 929 161 929 q 331 1004 294 964 q 429 962 372 1003 q 497 890 486 921 q 456 742 496 807 q 386 758 426 751 q 242 563 303 654 q 149 399 182 471 q 103 272 115 328 q 102 181 92 217 q 144 131 113 146 q 319 166 214 96 q 501 388 425 236 l 561 347 q 501 238 539 294 q 413 126 464 182 q 294 40 361 71 q 160 17 226 8 z "},"ล":{"ha":1299,"x_min":-185,"x_max":1782,"o":"m 49 -325 q -98 -299 -25 -339 q -185 -203 -171 -260 q 100 -2 -40 -117 q 376 262 240 113 q 608 596 513 411 q 732 969 704 781 q 849 960 799 989 l 842 935 l 854 947 q 936 464 913 701 q 1280 811 1089 643 q 1643 1064 1471 979 q 1782 926 1710 1038 q 1524 835 1651 897 q 1289 689 1396 772 q 1100 526 1182 606 q 943 357 1018 446 q 882 51 953 115 q 758 22 804 -19 q 739 160 715 61 q 756 210 746 185 q 807 299 769 240 q 751 689 797 550 q 452 147 633 419 q 49 -325 271 -126 m 1022 918 q 1012 945 1011 924 q 1022 985 1013 967 q 1285 1221 1199 1094 q 1351 1181 1331 1226 q 1354 1075 1371 1136 q 1022 918 1243 967 z "},"ล":{"ha":786,"x_min":-97,"x_max":849,"o":"m 25 -17 q -97 50 -57 -8 q -20 250 -50 106 q 3 503 10 394 q 144 457 81 522 q 133 244 158 379 q 396 499 292 390 q 397 500 396 500 q 397 501 397 500 q 480 465 429 493 q 540 411 531 436 q 518 363 531 390 q 499 319 506 335 q 483 283 492 304 q 469 251 474 263 q 462 225 465 240 q 458 201 458 210 q 460 181 458 192 q 467 163 461 171 q 481 146 472 154 q 536 134 499 125 q 615 169 574 143 q 703 253 656 196 q 789 388 751 311 l 849 347 q 793 242 828 296 q 710 134 758 188 q 597 48 661 81 q 465 17 532 15 q 322 113 364 21 q 310 326 279 204 q 60 33 186 214 q 28 -14 44 7 l 26 -15 l 25 -17 m 197 553 q 187 580 186 558 q 197 619 188 601 q 460 856 374 729 q 526 816 506 861 q 529 710 546 771 q 197 553 418 601 z "},"ล":{"ha":1299,"x_min":-185,"x_max":1782,"o":"m 49 -325 q -98 -299 -25 -339 q -185 -203 -171 -260 q 100 -2 -40 -117 q 376 262 240 113 q 608 596 513 411 q 732 969 704 781 q 849 960 799 989 l 842 935 l 854 947 q 936 464 913 701 q 1280 811 1089 643 q 1643 1064 1471 979 q 1782 926 1710 1038 q 1524 835 1651 897 q 1289 689 1396 772 q 1100 526 1182 606 q 943 357 1018 446 q 882 51 953 115 q 758 22 804 -19 q 739 160 715 61 q 756 210 746 185 q 807 299 769 240 q 751 689 797 550 q 452 147 633 419 q 49 -325 271 -126 m 344 -368 q 450 -269 407 -324 q 386 -208 406 -243 q 536 -58 431 -117 q 624 -175 603 -114 q 368 -414 564 -307 q 344 -368 339 -392 z "},"ล":{"ha":786,"x_min":-97,"x_max":849,"o":"m 25 -17 q -97 50 -57 -8 q -20 250 -50 106 q 3 503 10 394 q 144 457 81 522 q 133 244 158 379 q 396 499 292 390 q 397 500 396 500 q 397 501 397 500 q 480 465 429 493 q 540 411 531 436 q 518 363 531 390 q 499 319 506 335 q 483 283 492 304 q 469 251 474 263 q 462 225 465 240 q 458 201 458 210 q 460 181 458 192 q 467 163 461 171 q 481 146 472 154 q 536 134 499 125 q 615 169 574 143 q 703 253 656 196 q 789 388 751 311 l 849 347 q 793 242 828 296 q 710 134 758 188 q 597 48 661 81 q 465 17 532 15 q 322 113 364 21 q 310 326 279 204 q 60 33 186 214 q 28 -14 44 7 l 26 -15 l 25 -17 m -39 -333 q 67 -235 24 -289 q 3 -174 22 -208 q 153 -24 47 -82 q 240 -140 219 -79 q -15 -379 181 -272 q -39 -333 -44 -357 z "},"ล":{"ha":1299,"x_min":-185,"x_max":1782,"o":"m 49 -325 q -98 -299 -25 -339 q -185 -203 -171 -260 q 100 -2 -40 -117 q 376 262 240 113 q 608 596 513 411 q 732 969 704 781 q 849 960 799 989 l 842 935 l 854 947 q 936 464 913 701 q 1280 811 1089 643 q 1643 1064 1471 979 q 1782 926 1710 1038 q 1524 835 1651 897 q 1289 689 1396 772 q 1100 526 1182 606 q 943 357 1018 446 q 882 51 953 115 q 758 22 804 -19 q 739 160 715 61 q 756 210 746 185 q 807 299 769 240 q 751 689 797 550 q 452 147 633 419 q 49 -325 271 -126 m 958 1101 q 1043 1181 992 1168 q 1126 1013 1072 1113 q 1307 1182 1188 1076 q 1358 1086 1354 1140 q 1165 906 1243 1010 q 1078 939 1093 917 q 1050 1006 1074 974 q 958 1101 1026 1039 z "},"ล":{"ha":786,"x_min":-97,"x_max":849,"o":"m 25 -17 q -97 50 -57 -8 q -20 250 -50 106 q 3 503 10 394 q 144 457 81 522 q 133 244 158 379 q 396 499 292 390 q 397 500 396 500 q 397 501 397 500 q 480 465 429 493 q 540 411 531 436 q 518 363 531 390 q 499 319 506 335 q 483 283 492 304 q 469 251 474 263 q 462 225 465 240 q 458 201 458 210 q 460 181 458 192 q 467 163 461 171 q 481 146 472 154 q 536 134 499 125 q 615 169 574 143 q 703 253 656 196 q 789 388 751 311 l 849 347 q 793 242 828 296 q 710 134 758 188 q 597 48 661 81 q 465 17 532 15 q 322 113 364 21 q 310 326 279 204 q 60 33 186 214 q 28 -14 44 7 l 26 -15 l 25 -17 m 133 736 q 218 815 167 803 q 301 647 247 747 q 482 817 363 711 q 533 721 529 775 q 340 540 418 644 q 253 574 268 551 q 225 641 249 608 q 133 736 201 674 z "},"ล":{"ha":1271,"x_min":-182,"x_max":1785,"o":"m 51 -325 q -95 -299 -22 -339 q -182 -203 -168 -260 q 103 -2 -37 -117 q 379 262 243 113 q 611 596 515 411 q 735 969 707 781 q 853 960 806 988 q 894 732 874 881 q 919 440 914 583 q 1269 800 1072 624 q 1646 1064 1467 976 q 1785 926 1713 1038 q 1497 806 1640 894 q 1247 610 1354 718 q 1053 385 1140 503 q 915 174 965 268 q 853 24 865 81 q 1091 164 967 50 q 1272 388 1215 278 l 1332 347 q 1270 247 1314 306 q 1155 113 1226 188 q 973 -29 1083 38 q 740 -126 863 -96 q 644 -241 696 -197 q 549 -299 593 -285 q 466 -310 506 -312 q 401 -290 426 -307 q 367 -251 376 -274 q 410 -115 333 -172 q 625 -57 486 -57 l 633 -57 q 674 27 638 -47 q 737 153 711 101 q 795 264 763 204 q 843 344 828 324 q 754 692 808 554 q 456 149 639 422 q 51 -325 274 -125 m 482 -203 q 504 -208 488 -212 q 544 -183 521 -203 q 583 -140 567 -164 q 514 -147 542 -136 q 482 -173 486 -157 q 482 -203 478 -189 z "},"ล":{"ha":786,"x_min":-149,"x_max":850,"o":"m 25 -17 q -97 50 -57 -8 q -20 250 -50 106 q 3 503 10 394 q 144 457 81 522 q 133 244 158 379 q 394 500 296 393 l 396 499 q 397 500 396 500 q 397 501 397 500 q 481 465 431 494 q 542 411 531 436 q 513 348 533 393 q 485 283 492 303 q 353 14 411 111 q 600 158 467 39 q 790 388 733 278 l 850 347 q 788 247 832 306 q 673 113 744 188 q 491 -29 601 38 q 258 -126 381 -96 q 163 -241 214 -197 q 67 -299 111 -285 q -16 -310 24 -312 q -81 -290 -56 -307 q -115 -251 -106 -274 q -72 -113 -149 -171 q 143 -57 4 -56 l 151 -57 q 318 335 194 26 q 60 33 196 224 q 28 -14 44 7 l 26 -15 l 25 -17 m 0 -203 q 24 -210 7 -211 q 65 -190 42 -210 q 101 -142 89 -171 q 36 -153 63 -143 q 1 -177 10 -164 q 0 -203 -8 -190 z "},"ล":{"ha":1153,"x_min":6,"x_max":1065,"o":"m 364 39 q 543 19 454 -11 q 701 126 632 50 q 814 317 771 203 q 856 549 857 432 q 732 551 785 533 q 664 617 679 568 q 793 681 750 629 q 828 788 836 732 q 775 872 821 843 q 689 897 738 896 q 585 876 640 897 q 472 803 531 854 q 360 678 413 751 q 251 447 286 572 q 242 206 217 321 q 364 39 268 90 m 207 -72 q 53 86 100 -17 q 19 306 6 189 q 93 544 32 422 q 253 763 154 667 q 513 945 372 881 q 782 993 653 1010 q 997 824 935 972 q 997 453 1064 665 q 699 32 918 204 q 440 -115 583 -60 q 330 -112 397 -122 q 207 -72 263 -101 m 572 1106 q 611 1189 572 1136 q 965 1188 849 1165 q 976 1125 983 1161 q 950 1060 968 1089 q 732 1061 844 1039 q 572 1106 619 1083 z "},"ล":{"ha":690,"x_min":-61,"x_max":753,"o":"m 157 17 q -35 177 -10 36 q 34 451 -61 318 q 256 583 129 583 q 314 524 290 583 q 364 562 336 553 q 424 554 392 571 q 479 492 456 538 q 497 342 503 449 q 692 388 639 308 l 753 347 q 648 269 726 289 q 478 265 569 250 q 427 171 453 211 q 362 89 401 131 q 270 28 322 47 q 157 17 218 10 m 139 718 q 178 801 139 749 q 532 800 415 778 q 542 738 550 774 q 517 672 535 701 q 299 674 411 651 q 139 718 186 696 m 142 131 q 267 154 196 103 q 376 293 339 206 q 333 309 360 292 q 290 349 307 326 q 279 433 276 389 q 194 391 233 421 q 131 324 154 361 q 99 248 108 286 q 101 178 90 210 q 142 131 113 146 z "},"ล":{"ha":1153,"x_min":6,"x_max":1132,"o":"m 364 39 q 543 19 454 -11 q 701 126 632 50 q 814 317 771 203 q 856 549 857 432 q 732 551 785 533 q 664 617 679 568 q 793 681 750 629 q 828 788 836 732 q 775 872 821 843 q 689 897 738 896 q 585 876 640 897 q 472 803 531 854 q 360 678 413 751 q 251 447 286 572 q 242 206 217 321 q 364 39 268 90 m 207 -72 q 53 86 100 -17 q 19 306 6 189 q 93 544 32 422 q 253 763 154 667 q 513 945 372 881 q 782 993 653 1010 q 997 824 935 972 q 997 453 1064 665 q 699 32 918 204 q 440 -115 583 -60 q 330 -112 397 -122 q 207 -72 263 -101 m 597 1057 q 587 1084 586 1063 q 597 1124 588 1106 q 860 1360 774 1233 q 919 1326 900 1364 q 929 1233 939 1289 q 1046 1360 983 1278 q 1112 1320 1092 1365 q 1115 1214 1132 1275 q 783 1057 1004 1106 q 786 1121 764 1071 q 597 1057 694 1076 z "},"ล":{"ha":690,"x_min":-61,"x_max":753,"o":"m 157 17 q -35 177 -10 36 q 34 451 -61 318 q 256 583 129 583 q 314 524 290 583 q 364 562 336 553 q 424 554 392 571 q 479 492 456 538 q 497 342 503 449 q 692 388 639 308 l 753 347 q 648 269 726 289 q 478 265 569 250 q 427 171 453 211 q 362 89 401 131 q 270 28 322 47 q 157 17 218 10 m 142 131 q 267 154 196 103 q 376 293 339 206 q 333 309 360 292 q 290 349 307 326 q 279 433 276 389 q 194 391 233 421 q 131 324 154 361 q 99 248 108 286 q 101 178 90 210 q 142 131 113 146 m 164 669 q 153 697 153 675 q 164 736 154 718 q 426 972 340 846 q 486 939 467 976 q 496 846 506 901 q 613 972 550 890 q 678 933 658 978 q 682 826 699 888 q 350 669 571 718 q 353 733 331 683 q 164 669 261 689 z "},"ล":{"ha":1904,"x_min":6,"x_max":1932,"o":"m 364 39 q 544 20 458 -6 q 704 131 631 46 q 732 296 692 214 q 846 432 772 378 q 856 549 856 485 q 732 551 785 533 q 664 617 679 568 q 793 681 750 629 q 828 788 836 732 q 775 872 821 843 q 689 897 738 896 q 585 876 640 897 q 472 803 531 854 q 360 678 413 751 q 251 447 286 572 q 242 206 217 321 q 364 39 268 90 m 207 -72 q 53 86 100 -17 q 19 306 6 189 q 93 544 32 422 q 253 763 154 667 q 513 945 372 881 q 782 993 653 1010 q 922 931 864 982 q 1006 801 979 881 q 1321 978 1106 936 q 1669 933 1536 1021 q 1740 841 1728 894 q 1735 743 1753 788 q 1694 642 1717 699 q 1674 554 1672 586 q 1543 551 1632 538 q 1431 604 1454 564 q 1482 684 1444 643 q 1549 748 1519 725 q 1597 804 1579 771 q 1589 864 1614 838 q 1508 905 1563 899 q 1389 886 1453 911 q 1266 816 1325 861 q 1167 694 1207 771 q 1124 531 1126 618 q 1342 525 1271 549 q 1397 443 1414 501 q 1327 382 1386 404 q 1190 372 1268 360 q 1057 431 1111 383 q 943 309 976 389 q 940 147 910 229 q 1060 18 971 64 q 1216 -17 1125 -15 q 1403 11 1307 -18 q 1591 91 1500 40 q 1757 219 1682 142 q 1871 386 1832 297 l 1932 349 q 1786 135 1881 232 q 1578 -22 1692 38 q 1341 -114 1464 -82 q 1099 -138 1218 -146 q 888 -85 981 -131 q 729 57 775 -29 q 440 -115 604 -50 q 330 -112 397 -122 q 207 -72 263 -101 z "},"ล":{"ha":1157,"x_min":-61,"x_max":1219,"o":"m 157 17 q -35 177 -10 36 q 34 451 -61 318 q 256 583 129 583 q 314 524 290 583 q 364 562 336 553 q 424 554 392 571 q 479 492 456 538 q 493 449 489 476 q 601 529 542 501 q 712 557 660 557 q 814 544 764 557 q 903 488 872 526 q 933 405 935 449 q 881 315 932 361 q 733 239 829 268 q 549 189 672 218 q 624 99 557 122 q 804 110 690 76 q 1006 224 900 140 q 1158 399 1113 308 l 1219 360 q 1079 194 1190 294 q 849 43 968 94 q 577 11 707 -17 q 401 133 447 39 q 157 17 299 -1 m 142 131 q 267 154 196 103 q 376 293 339 206 q 333 309 360 292 q 290 349 307 326 q 279 433 276 389 q 194 391 233 421 q 131 324 154 361 q 99 248 108 286 q 101 178 90 210 q 142 131 113 146 m 553 250 q 690 300 613 268 q 822 408 801 349 q 788 467 836 453 q 778 469 783 468 q 636 389 717 476 q 553 250 571 318 z "},"ล":{"ha":1308,"x_min":139,"x_max":1464,"o":"m 381 -194 q 232 -183 308 -215 q 139 -94 156 -151 q 586 372 421 108 q 444 422 506 379 q 425 519 382 465 q 524 551 463 556 q 661 508 585 546 q 764 892 750 696 q 926 868 836 915 q 772 438 900 718 q 807 407 792 422 q 1010 461 924 408 q 1132 588 1097 514 q 1149 746 1167 663 q 1056 889 1132 829 q 282 689 814 1076 q 217 738 243 701 q 192 829 192 775 q 369 907 300 878 q 560 974 439 936 q 775 1022 682 1011 q 982 1019 868 1032 q 1192 957 1096 1006 q 1288 882 1251 928 q 1331 784 1324 836 q 1327 676 1339 732 q 1278 568 1315 621 q 1188 472 1240 515 q 1058 396 1135 428 q 894 351 982 364 q 1107 -34 946 185 q 1464 -404 1268 -253 q 1381 -467 1435 -437 q 1256 -493 1326 -496 q 1026 -178 1153 -414 q 788 344 900 57 q 729 346 749 344 q 381 -194 557 -8 m 982 1035 q 972 1062 971 1040 q 982 1101 972 1083 q 1244 1338 1158 1211 q 1310 1298 1290 1343 q 1314 1192 1331 1253 q 982 1035 1203 1083 z "},"ล":{"ha":613,"x_min":-3,"x_max":676,"o":"m 4 390 q 42 474 31 444 q 4 536 17 503 q 36 660 -3 610 q 126 694 75 711 q 166 645 157 685 q 165 563 175 606 q 136 492 156 521 l 136 490 q 219 500 164 479 l 221 499 l 222 500 q 305 465 254 493 q 365 408 356 436 q 338 347 354 383 q 314 295 321 311 q 297 255 307 279 q 286 219 288 231 q 285 192 285 207 q 290 166 285 176 q 307 144 296 156 q 362 133 325 124 q 440 168 399 142 q 528 253 481 194 q 614 386 576 311 l 676 347 q 618 240 653 293 q 535 133 583 188 q 422 47 486 79 q 289 15 357 14 q 133 147 168 19 q 168 414 97 275 q 110 428 139 417 q 67 351 88 385 l 13 336 l 4 390 m 218 635 q 208 662 207 640 q 218 701 208 683 q 481 938 394 811 q 547 898 526 943 q 550 792 567 853 q 218 635 439 683 z "},"ล":{"ha":1308,"x_min":139,"x_max":1464,"o":"m 381 -194 q 232 -183 308 -215 q 139 -94 156 -151 q 586 372 421 108 q 444 422 506 379 q 425 519 382 465 q 524 551 463 556 q 661 508 585 546 q 764 892 750 696 q 926 868 836 915 q 772 438 900 718 q 807 407 792 422 q 1010 461 924 408 q 1132 588 1097 514 q 1149 746 1167 663 q 1056 889 1132 829 q 282 689 814 1076 q 217 738 243 701 q 192 829 192 775 q 369 907 300 878 q 560 974 439 936 q 775 1022 682 1011 q 982 1019 868 1032 q 1192 957 1096 1006 q 1288 882 1251 928 q 1331 784 1324 836 q 1327 676 1339 732 q 1278 568 1315 621 q 1188 472 1240 515 q 1058 396 1135 428 q 894 351 982 364 q 1107 -34 946 185 q 1464 -404 1268 -253 q 1381 -467 1435 -437 q 1256 -493 1326 -496 q 1026 -178 1153 -414 q 788 344 900 57 q 729 346 749 344 q 381 -194 557 -8 m 496 -410 q 601 -311 558 -365 q 538 -250 557 -285 q 688 -100 582 -158 q 775 -217 754 -156 q 519 -456 715 -349 q 496 -410 490 -433 z "},"ล":{"ha":613,"x_min":-140,"x_max":676,"o":"m 4 390 q 42 474 31 444 q 4 536 17 503 q 36 660 -3 610 q 126 694 75 711 q 166 645 157 685 q 165 563 175 606 q 136 492 156 521 l 136 490 q 219 500 164 479 l 221 499 l 222 500 q 305 465 254 493 q 365 408 356 436 q 338 347 354 383 q 314 295 321 311 q 297 255 307 279 q 286 219 288 231 q 285 192 285 207 q 290 166 285 176 q 307 144 296 156 q 362 133 325 124 q 440 168 399 142 q 528 253 481 194 q 614 386 576 311 l 676 347 q 618 240 653 293 q 535 133 583 188 q 422 47 486 79 q 289 15 357 14 q 133 147 168 19 q 168 414 97 275 q 110 428 139 417 q 67 351 88 385 l 13 336 l 4 390 m -135 -299 q -29 -200 -72 -254 q -93 -139 -74 -174 q 57 11 -49 -47 q 144 -106 124 -44 q 42 -236 114 -174 q -111 -344 -29 -299 q -135 -299 -140 -322 z "},"ล":{"ha":1308,"x_min":139,"x_max":1464,"o":"m 381 -194 q 232 -183 308 -215 q 139 -94 156 -151 q 586 372 421 108 q 444 422 506 379 q 425 519 382 465 q 524 551 463 556 q 661 508 585 546 q 764 892 750 696 q 926 868 836 915 q 772 438 900 718 q 807 407 792 422 q 1010 461 924 408 q 1132 588 1097 514 q 1149 746 1167 663 q 1056 889 1132 829 q 282 689 814 1076 q 217 738 243 701 q 192 829 192 775 q 369 907 300 878 q 560 974 439 936 q 775 1022 682 1011 q 982 1019 868 1032 q 1192 957 1096 1006 q 1288 882 1251 928 q 1331 784 1324 836 q 1327 676 1339 732 q 1278 568 1315 621 q 1188 472 1240 515 q 1058 396 1135 428 q 894 351 982 364 q 1107 -34 946 185 q 1464 -404 1268 -253 q 1381 -467 1435 -437 q 1256 -493 1326 -496 q 1026 -178 1153 -414 q 788 344 900 57 q 729 346 749 344 q 381 -194 557 -8 m 918 1218 q 1003 1297 951 1285 q 1086 1129 1032 1229 q 1267 1299 1147 1193 q 1318 1203 1314 1257 q 1125 1022 1203 1126 q 1038 1056 1053 1033 q 1010 1123 1033 1090 q 918 1218 986 1156 z "},"ล":{"ha":613,"x_min":-3,"x_max":676,"o":"m 4 390 q 42 474 31 444 q 4 536 17 503 q 36 660 -3 610 q 126 694 75 711 q 166 645 157 685 q 165 563 175 606 q 136 492 156 521 l 136 490 q 219 500 164 479 l 221 499 l 222 500 q 305 465 254 493 q 365 408 356 436 q 338 347 354 383 q 314 295 321 311 q 297 255 307 279 q 286 219 288 231 q 285 192 285 207 q 290 166 285 176 q 307 144 296 156 q 362 133 325 124 q 440 168 399 142 q 528 253 481 194 q 614 386 576 311 l 676 347 q 618 240 653 293 q 535 133 583 188 q 422 47 486 79 q 289 15 357 14 q 133 147 168 19 q 168 414 97 275 q 110 428 139 417 q 67 351 88 385 l 13 336 l 4 390 m 154 818 q 239 897 188 885 q 322 729 268 829 q 503 899 383 793 q 554 803 550 857 q 361 622 439 726 q 274 656 289 633 q 246 723 269 690 q 154 818 222 756 z "},"ล":{"ha":1088,"x_min":-58,"x_max":1222,"o":"m 686 -212 q 546 -297 625 -268 q 387 -326 467 -326 q 228 -301 307 -325 q 89 -228 149 -278 q -12 -111 29 -179 q -56 47 -53 -43 q -24 240 -58 136 q 87 263 28 265 q 199 239 146 261 q 153 -17 106 131 q 293 -206 192 -136 q 522 -229 413 -286 q 607 -157 569 -206 q 665 -42 653 -99 q 661 68 678 14 q 620 173 644 122 q 567 296 596 224 q 525 433 538 368 q 529 594 510 515 q 592 733 549 674 q 698 839 636 793 q 826 906 760 885 q 961 922 893 926 q 1082 883 1029 918 q 1142 806 1132 851 q 1138 724 1153 761 q 1103 638 1122 686 q 1086 563 1085 590 q 974 558 1050 547 q 878 604 897 569 q 913 660 889 632 q 958 705 936 688 q 1001 744 981 722 q 1024 783 1021 767 q 1013 825 1026 800 q 882 849 974 876 q 724 729 783 819 q 708 453 643 604 q 797 190 774 303 q 797 -28 821 78 q 686 -212 772 -135 m 874 994 q 863 1022 863 1000 q 874 1061 864 1043 q 1136 1297 1050 1171 q 1202 1258 1182 1303 q 1206 1151 1222 1213 q 874 994 1094 1043 z "},"ล":{"ha":497,"x_min":-240,"x_max":488,"o":"m 288 79 q 158 -13 258 1 q -51 3 58 -28 q -240 89 -160 35 q -189 154 -226 131 q -115 106 -167 126 q -4 90 -64 85 q 86 140 56 96 q 97 203 107 164 q 69 272 88 242 q 27 344 50 301 q -1 415 4 386 q 6 537 -14 479 q 63 626 25 594 q 149 667 101 657 q 242 643 197 676 q 276 599 269 625 q 269 545 282 572 q 231 494 256 518 q 170 454 207 469 q 94 438 133 439 q 126 345 99 388 q 187 279 154 303 q 251 224 219 256 q 293 163 282 193 q 288 79 304 133 m 139 749 q 128 776 128 754 q 139 815 129 797 q 401 1051 315 925 q 467 1012 447 1057 q 471 906 488 967 q 139 749 360 797 z "},"ล":{"ha":1088,"x_min":-58,"x_max":1206,"o":"m 686 -212 q 546 -297 625 -268 q 387 -326 467 -326 q 228 -301 307 -325 q 89 -228 149 -278 q -12 -111 29 -179 q -56 47 -53 -43 q -24 240 -58 136 q 87 263 28 265 q 199 239 146 261 q 153 -17 106 131 q 293 -206 192 -136 q 522 -229 413 -286 q 607 -157 569 -206 q 665 -42 653 -99 q 661 68 678 14 q 620 173 644 122 q 567 296 596 224 q 525 433 538 368 q 529 594 510 515 q 592 733 549 674 q 698 839 636 793 q 826 906 760 885 q 961 922 893 926 q 1082 883 1029 918 q 1142 806 1132 851 q 1138 724 1153 761 q 1103 638 1122 686 q 1086 563 1085 590 q 974 558 1050 547 q 878 604 897 569 q 913 660 889 632 q 958 705 936 688 q 1001 744 981 722 q 1024 783 1021 767 q 1013 825 1026 800 q 882 849 974 876 q 724 729 783 819 q 708 453 643 604 q 797 190 774 303 q 797 -28 821 78 q 686 -212 772 -135 m 808 1054 q 1000 1235 922 1132 q 1089 1201 1074 1224 q 1115 1134 1092 1167 q 1206 1040 1138 1101 q 1122 960 1175 975 q 1040 1126 1090 1035 q 858 958 979 1065 q 808 1054 810 1001 z "},"ล":{"ha":497,"x_min":-240,"x_max":471,"o":"m 288 79 q 158 -13 258 1 q -51 3 58 -28 q -240 89 -160 35 q -189 154 -226 131 q -115 106 -167 126 q -4 90 -64 85 q 86 140 56 96 q 97 203 107 164 q 69 272 88 242 q 27 344 50 301 q -1 415 4 386 q 6 537 -14 479 q 63 626 25 594 q 149 667 101 657 q 242 643 197 676 q 276 599 269 625 q 269 545 282 572 q 231 494 256 518 q 170 454 207 469 q 94 438 133 439 q 126 345 99 388 q 187 279 154 303 q 251 224 219 256 q 293 163 282 193 q 288 79 304 133 m 74 808 q 265 989 188 886 q 354 956 339 978 q 380 888 357 921 q 471 794 403 856 q 388 714 440 729 q 306 881 356 789 q 124 713 244 819 q 74 808 75 756 z "},"ล":{"ha":1088,"x_min":-122,"x_max":1153,"o":"m 686 -212 q 440 -323 585 -306 q 178 -282 296 -340 l 122 -328 q 259 -368 207 -331 q 313 -457 311 -406 q 276 -562 315 -508 q 86 -649 214 -637 q -122 -596 -42 -660 q -96 -551 -122 -567 q 22 -563 -36 -575 q 115 -506 79 -551 q 135 -443 136 -472 q 95 -395 133 -414 q -8 -381 57 -376 l 19 -333 l 133 -260 q 8 -142 56 -212 q -53 26 -40 -72 q -24 240 -67 125 q 87 263 28 265 q 199 239 146 261 q 153 -17 106 131 q 293 -206 192 -136 q 522 -229 413 -286 q 607 -157 569 -206 q 665 -42 653 -99 q 661 68 678 14 q 620 173 644 122 q 567 296 596 224 q 525 433 538 368 q 529 594 510 515 q 592 733 549 674 q 698 839 636 793 q 826 906 760 885 q 961 922 893 926 q 1082 883 1029 918 q 1142 806 1132 851 q 1138 724 1153 761 q 1103 638 1122 686 q 1086 563 1085 590 q 974 558 1050 547 q 878 604 897 569 q 913 660 889 632 q 958 705 936 688 q 1001 744 981 722 q 1024 783 1021 767 q 1013 825 1026 800 q 882 849 974 876 q 724 729 783 819 q 708 453 643 604 q 797 190 774 303 q 797 -28 821 78 q 686 -212 772 -135 z "},"ล":{"ha":497,"x_min":-294,"x_max":304,"o":"m 288 79 q 181 -10 263 11 q 8 -8 100 -31 l -50 -57 q 87 -97 35 -60 q 141 -186 139 -135 q 104 -292 143 -237 q -86 -378 42 -367 q -294 -325 -214 -389 q -268 -281 -294 -296 q -151 -292 -208 -304 q -57 -235 -94 -281 q -38 -187 -40 -211 q -50 -146 -36 -164 q -98 -117 -64 -128 q -181 -110 -132 -107 l -153 -62 l -50 4 q -240 89 -157 33 q -189 154 -226 131 q -115 106 -167 126 q -4 90 -64 85 q 86 140 56 96 q 97 203 107 164 q 69 272 88 242 q 27 344 50 301 q -1 415 4 386 q 6 537 -14 479 q 63 626 25 594 q 149 667 101 657 q 242 643 197 676 q 276 599 269 625 q 269 545 282 572 q 231 494 256 518 q 170 454 207 469 q 94 438 133 439 q 126 345 99 388 q 187 279 154 303 q 251 224 219 256 q 293 163 282 193 q 288 79 304 133 z "},"ล":{"ha":1088,"x_min":-58,"x_max":1210,"o":"m 686 -212 q 546 -297 625 -268 q 387 -326 467 -326 q 228 -301 307 -325 q 89 -228 149 -278 q -12 -111 29 -179 q -56 47 -53 -43 q -24 240 -58 136 q 87 263 28 265 q 199 239 146 261 q 153 -17 106 131 q 293 -206 192 -136 q 522 -229 413 -286 q 607 -157 569 -206 q 665 -42 653 -99 q 661 68 678 14 q 620 173 644 122 q 567 296 596 224 q 525 433 538 368 q 529 594 510 515 q 592 733 549 674 q 698 839 636 793 q 826 906 760 885 q 961 922 893 926 q 1082 883 1029 918 q 1142 806 1132 851 q 1138 724 1153 761 q 1103 638 1122 686 q 1086 563 1085 590 q 974 558 1050 547 q 878 604 897 569 q 913 660 889 632 q 958 705 936 688 q 1001 744 981 722 q 1024 783 1021 767 q 1013 825 1026 800 q 882 849 974 876 q 724 729 783 819 q 708 453 643 604 q 797 190 774 303 q 797 -28 821 78 q 686 -212 772 -135 m 810 1178 q 894 1257 843 1244 q 978 1089 924 1189 q 1158 1258 1039 1153 q 1210 1163 1206 1217 q 1017 982 1094 1086 q 929 1015 944 993 q 901 1083 925 1050 q 810 1178 878 1115 z "},"ลก":{"ha":497,"x_min":-240,"x_max":475,"o":"m 288 79 q 158 -13 258 1 q -51 3 58 -28 q -240 89 -160 35 q -189 154 -226 131 q -115 106 -167 126 q -4 90 -64 85 q 86 140 56 96 q 97 203 107 164 q 69 272 88 242 q 27 344 50 301 q -1 415 4 386 q 6 537 -14 479 q 63 626 25 594 q 149 667 101 657 q 242 643 197 676 q 276 599 269 625 q 269 545 282 572 q 231 494 256 518 q 170 454 207 469 q 94 438 133 439 q 126 345 99 388 q 187 279 154 303 q 251 224 219 256 q 293 163 282 193 q 288 79 304 133 m 75 932 q 160 1011 108 999 q 243 843 189 943 q 424 1013 304 907 q 475 917 471 971 q 282 736 360 840 q 194 769 210 747 q 167 837 190 804 q 75 932 143 869 z "},"ลข":{"ha":1032,"x_min":33,"x_max":1554,"o":"m 476 -306 q 343 -310 415 -332 l 279 -362 q 416 -403 364 -365 q 470 -492 468 -440 q 433 -597 472 -543 q 243 -683 371 -672 q 36 -631 115 -694 q 61 -586 33 -603 q 178 -598 121 -610 q 272 -540 236 -586 q 292 -478 293 -507 q 252 -430 290 -449 q 150 -415 214 -411 l 176 -368 l 297 -290 q 249 -237 261 -267 q 426 103 308 -93 q 708 510 544 299 q 1024 857 871 721 q 197 799 586 881 q 303 1014 181 894 q 1157 946 563 1068 q 1507 979 1228 960 q 1521 778 1554 844 q 1138 849 1378 826 q 696 285 888 632 q 476 -306 504 -61 z "},"ลฃ":{"ha":500,"x_min":-232,"x_max":888,"o":"m 160 19 q 96 36 122 24 l 21 -26 q 158 -67 106 -29 q 212 -156 210 -104 q 175 -261 214 -207 q -15 -347 113 -336 q -224 -294 -143 -358 q -197 -250 -224 -265 q -81 -262 -137 -274 q 14 -204 -24 -250 q 33 -142 35 -171 q -6 -94 32 -112 q -110 -79 -44 -75 l -82 -32 l 57 58 q -18 223 -12 110 q 21 469 -24 336 q 146 742 65 601 q -232 794 -168 763 l -208 869 q 193 819 -81 822 q 332 1008 257 921 q 429 967 374 1007 q 497 893 485 926 l 444 831 q 818 932 704 858 q 868 873 849 917 q 879 793 888 829 q 364 733 719 728 q 206 505 268 610 q 118 325 143 400 q 100 201 93 250 q 146 133 107 153 q 252 133 190 111 q 383 222 314 154 q 501 390 451 289 l 564 351 q 503 242 542 299 q 414 131 465 186 q 294 43 363 75 q 160 19 226 11 z "},"ลค":{"ha":1032,"x_min":181,"x_max":1554,"o":"m 476 -306 q 340 -309 410 -332 q 249 -237 269 -286 q 426 103 308 -93 q 708 510 544 299 q 1024 857 871 721 q 197 799 586 881 q 303 1014 181 894 q 1157 946 563 1068 q 1507 979 1228 960 q 1521 778 1554 844 q 1138 849 1378 826 q 696 285 888 632 q 476 -306 504 -61 m 950 1178 q 1035 1257 983 1244 q 1118 1089 1064 1189 q 1299 1258 1179 1153 q 1350 1163 1346 1217 q 1157 982 1235 1086 q 1069 1015 1085 993 q 1042 1083 1065 1050 q 950 1178 1018 1115 z "},"ลฅ":{"ha":500,"x_min":-232,"x_max":888,"o":"m 160 19 q 16 101 61 32 q -19 274 -29 169 q 33 497 -10 378 q 146 742 75 617 q -232 794 -168 763 l -208 869 q 193 819 -81 822 q 332 1008 257 921 q 429 967 374 1007 q 497 893 485 926 l 444 831 q 578 850 532 842 q 585 1111 554 979 q 818 1114 714 1203 q 749 1017 785 1086 q 696 878 713 947 q 818 932 771 901 q 868 873 849 917 q 879 793 888 829 q 364 733 719 728 q 206 505 268 610 q 118 325 143 400 q 100 201 93 250 q 146 133 107 153 q 252 133 190 111 q 383 222 314 154 q 501 390 451 289 l 564 351 q 503 242 542 299 q 414 131 465 186 q 294 43 363 75 q 160 19 226 11 z "},"ลฆ":{"ha":1032,"x_min":181,"x_max":1554,"o":"m 476 -306 q 340 -309 410 -332 q 249 -237 269 -286 q 624 399 361 36 q 440 343 525 383 q 466 453 436 399 q 539 547 496 508 q 754 569 646 569 q 1024 857 897 744 q 197 799 586 881 q 303 1014 181 894 q 1157 946 563 1068 q 1507 979 1228 960 q 1521 778 1554 844 q 1138 849 1378 826 q 875 561 1003 733 q 985 531 944 550 q 943 382 983 447 q 769 408 869 407 q 570 27 649 218 q 476 -306 492 -164 z "},"ลง":{"ha":500,"x_min":-232,"x_max":888,"o":"m 160 19 q 20 97 64 31 q -20 259 -24 164 q 24 475 -17 354 q -121 426 -51 460 q -95 537 -125 482 q -22 631 -65 592 q 96 647 39 643 q 146 742 121 699 q -232 794 -168 763 l -208 869 q 193 819 -81 822 q 332 1008 257 921 q 429 967 374 1007 q 497 893 485 926 l 444 831 q 818 932 704 858 q 868 873 849 917 q 879 793 888 829 q 364 733 719 728 q 299 646 353 718 q 424 614 375 638 q 382 465 422 531 q 197 492 311 489 q 100 252 113 346 q 146 133 88 158 q 252 133 190 111 q 383 222 314 154 q 501 390 451 289 l 564 351 q 503 242 542 299 q 414 131 465 186 q 294 43 363 75 q 160 19 226 11 z "},"ลจ":{"ha":1229,"x_min":-83,"x_max":1292,"o":"m -18 -32 q -76 49 -69 0 q -53 160 -83 99 q 25 291 -24 221 q 131 444 74 361 q 235 610 188 528 q 310 788 282 692 q 331 969 339 883 q 517 933 465 985 q 490 799 518 871 q 420 660 463 726 q 328 528 378 594 q 235 402 278 461 q 166 292 193 343 q 142 200 139 242 q 183 133 144 158 q 324 173 231 103 q 606 422 417 243 q 636 452 625 442 q 665 480 647 463 q 699 511 683 497 q 1056 979 818 768 q 1165 878 1117 967 q 968 715 1053 808 q 841 531 883 621 q 782 358 799 440 q 780 216 765 275 q 832 135 794 157 q 1035 167 908 88 q 1231 388 1161 247 l 1292 347 q 1181 176 1249 251 q 1042 58 1114 100 q 899 -7 971 15 q 767 -25 828 -29 q 669 4 707 -21 q 613 134 621 38 q 643 367 604 231 q 534 257 585 306 q 427 158 483 208 q 323 71 371 107 q 225 5 275 35 q 133 -39 175 -25 q 53 -52 92 -53 q -18 -32 14 -51 m 564 1103 q 667 1178 624 1156 q 733 1195 711 1200 q 772 1174 756 1190 q 797 1138 789 1158 q 815 1105 804 1117 q 842 1099 826 1093 q 913 1176 896 1119 q 1006 1186 960 1200 q 1043 1118 1051 1172 q 899 1012 979 1046 q 783 988 819 978 q 754 1022 764 990 q 740 1081 744 1053 q 724 1108 735 1110 q 681 1065 703 1106 q 654 985 658 1024 q 584 1017 611 974 q 564 1103 557 1061 z "},"ลฉ":{"ha":850,"x_min":-60,"x_max":914,"o":"m 97 19 q -27 124 6 32 q -22 336 -60 215 q 111 550 17 457 q 199 503 153 542 q 256 435 244 465 q 106 249 147 329 q 113 136 65 169 q 242 183 160 108 q 403 410 325 258 q 461 504 426 460 q 544 468 493 497 q 604 413 594 439 q 583 365 596 393 q 563 322 569 336 q 547 286 556 307 q 534 254 538 265 q 526 228 531 243 q 523 204 522 213 q 525 185 524 196 q 532 165 526 174 q 546 149 538 157 q 601 137 564 128 q 678 172 638 146 q 767 257 719 199 q 851 390 814 315 l 914 351 q 856 244 890 297 q 774 138 822 192 q 660 51 725 83 q 528 19 596 18 q 410 76 453 22 q 361 213 367 129 q 97 19 236 1 m 165 733 q 269 808 225 786 q 335 826 313 831 q 374 805 357 821 q 398 768 390 789 q 417 735 406 747 q 443 729 428 724 q 514 807 497 750 q 607 817 561 831 q 644 749 653 803 q 501 642 581 676 q 385 618 421 608 q 356 652 365 621 q 341 712 346 683 q 325 739 336 740 q 282 695 304 736 q 256 615 260 654 q 185 648 213 604 q 165 733 158 692 z "},"ลช":{"ha":1229,"x_min":-83,"x_max":1292,"o":"m -18 -32 q -76 49 -69 0 q -53 160 -83 99 q 25 291 -24 221 q 131 444 74 361 q 235 610 188 528 q 310 788 282 692 q 331 969 339 883 q 517 933 465 985 q 490 799 518 871 q 420 660 463 726 q 328 528 378 594 q 235 402 278 461 q 166 292 193 343 q 142 200 139 242 q 183 133 144 158 q 324 173 231 103 q 606 422 417 243 q 636 452 625 442 q 665 480 647 463 q 699 511 683 497 q 1056 979 818 768 q 1165 878 1117 967 q 968 715 1053 808 q 841 531 883 621 q 782 358 799 440 q 780 216 765 275 q 832 135 794 157 q 1035 167 908 88 q 1231 388 1161 247 l 1292 347 q 1181 176 1249 251 q 1042 58 1114 100 q 899 -7 971 15 q 767 -25 828 -29 q 669 4 707 -21 q 613 134 621 38 q 643 367 604 231 q 534 257 585 306 q 427 158 483 208 q 323 71 371 107 q 225 5 275 35 q 133 -39 175 -25 q 53 -52 92 -53 q -18 -32 14 -51 m 547 1022 q 586 1106 547 1053 q 940 1104 824 1082 q 951 1042 958 1078 q 925 976 943 1006 q 707 978 819 956 q 547 1022 594 1000 z "},"ลซ":{"ha":850,"x_min":-60,"x_max":914,"o":"m 97 19 q -27 124 6 32 q -22 336 -60 215 q 111 550 17 457 q 199 503 153 542 q 256 435 244 465 q 106 249 147 329 q 113 136 65 169 q 242 183 160 108 q 403 410 325 258 q 461 504 426 460 q 544 468 493 497 q 604 413 594 439 q 583 365 596 393 q 563 322 569 336 q 547 286 556 307 q 534 254 538 265 q 526 228 531 243 q 523 204 522 213 q 525 185 524 196 q 532 165 526 174 q 546 149 538 157 q 601 137 564 128 q 678 172 638 146 q 767 257 719 199 q 851 390 814 315 l 914 351 q 856 244 890 297 q 774 138 822 192 q 660 51 725 83 q 528 19 596 18 q 410 76 453 22 q 361 213 367 129 q 97 19 236 1 m 149 653 q 188 736 149 683 q 542 735 425 713 q 552 672 560 708 q 526 607 544 636 q 308 608 421 586 q 149 653 196 631 z "},"ลฌ":{"ha":1229,"x_min":-83,"x_max":1292,"o":"m -18 -32 q -76 49 -69 0 q -53 160 -83 99 q 25 291 -24 221 q 131 444 74 361 q 235 610 188 528 q 310 788 282 692 q 331 969 339 883 q 517 933 465 985 q 490 799 518 871 q 420 660 463 726 q 328 528 378 594 q 235 402 278 461 q 166 292 193 343 q 142 200 139 242 q 183 133 144 158 q 324 173 231 103 q 606 422 417 243 q 636 452 625 442 q 665 480 647 463 q 699 511 683 497 q 1056 979 818 768 q 1165 878 1117 967 q 968 715 1053 808 q 841 531 883 621 q 782 358 799 440 q 780 216 765 275 q 832 135 794 157 q 1035 167 908 88 q 1231 388 1161 247 l 1292 347 q 1181 176 1249 251 q 1042 58 1114 100 q 899 -7 971 15 q 767 -25 828 -29 q 669 4 707 -21 q 613 134 621 38 q 643 367 604 231 q 534 257 585 306 q 427 158 483 208 q 323 71 371 107 q 225 5 275 35 q 133 -39 175 -25 q 53 -52 92 -53 q -18 -32 14 -51 m 551 1124 q 631 1173 588 1160 q 703 1178 674 1186 q 735 1153 732 1171 q 758 1054 731 1085 q 832 1048 786 1024 q 918 1150 878 1072 q 973 1166 946 1165 q 1013 1156 1000 1167 q 1022 1131 1026 1146 q 863 985 968 1029 q 665 977 758 940 q 551 1124 572 1014 z "},"ลญ":{"ha":850,"x_min":-60,"x_max":914,"o":"m 97 19 q -27 124 6 32 q -22 336 -60 215 q 111 550 17 457 q 199 503 153 542 q 256 435 244 465 q 106 249 147 329 q 113 136 65 169 q 242 183 160 108 q 403 410 325 258 q 461 504 426 460 q 544 468 493 497 q 604 413 594 439 q 583 365 596 393 q 563 322 569 336 q 547 286 556 307 q 534 254 538 265 q 526 228 531 243 q 523 204 522 213 q 525 185 524 196 q 532 165 526 174 q 546 149 538 157 q 601 137 564 128 q 678 172 638 146 q 767 257 719 199 q 851 390 814 315 l 914 351 q 856 244 890 297 q 774 138 822 192 q 660 51 725 83 q 528 19 596 18 q 410 76 453 22 q 361 213 367 129 q 97 19 236 1 m 153 754 q 232 803 189 790 q 304 809 275 817 q 336 783 333 801 q 360 685 332 715 q 433 678 388 654 q 519 781 479 703 q 574 797 547 796 q 615 787 601 797 q 624 761 628 776 q 465 615 569 660 q 267 608 360 571 q 153 754 174 644 z "},"ลฎ":{"ha":1229,"x_min":-83,"x_max":1292,"o":"m -18 -32 q -76 49 -69 0 q -53 160 -83 99 q 25 291 -24 221 q 131 444 74 361 q 235 610 188 528 q 310 788 282 692 q 331 969 339 883 q 517 933 465 985 q 490 799 518 871 q 420 660 463 726 q 328 528 378 594 q 235 402 278 461 q 166 292 193 343 q 142 200 139 242 q 183 133 144 158 q 324 173 231 103 q 606 422 417 243 q 636 452 625 442 q 665 480 647 463 q 699 511 683 497 q 1056 979 818 768 q 1165 878 1117 967 q 968 715 1053 808 q 841 531 883 621 q 782 358 799 440 q 780 216 765 275 q 832 135 794 157 q 1035 167 908 88 q 1231 388 1161 247 l 1292 347 q 1181 176 1249 251 q 1042 58 1114 100 q 899 -7 971 15 q 767 -25 828 -29 q 669 4 707 -21 q 613 134 621 38 q 643 367 604 231 q 534 257 585 306 q 427 158 483 208 q 323 71 371 107 q 225 5 275 35 q 133 -39 175 -25 q 53 -52 92 -53 q -18 -32 14 -51 m 779 979 q 607 1011 631 950 q 660 1131 586 1061 q 890 1247 747 1214 q 1061 1217 1032 1278 q 1018 1099 1083 1168 q 779 979 932 1010 m 788 1036 q 882 1094 832 1040 q 906 1172 935 1150 q 851 1181 892 1183 q 744 1114 776 1172 q 747 1046 718 1068 q 788 1036 761 1033 z "},"ลฏ":{"ha":850,"x_min":-60,"x_max":914,"o":"m 97 19 q -27 124 6 32 q -22 336 -60 215 q 111 550 17 457 q 199 503 153 542 q 256 435 244 465 q 106 249 147 329 q 113 136 65 169 q 242 183 160 108 q 403 410 325 258 q 461 504 426 460 q 544 468 493 497 q 604 413 594 439 q 583 365 596 393 q 563 322 569 336 q 547 286 556 307 q 534 254 538 265 q 526 228 531 243 q 523 204 522 213 q 525 185 524 196 q 532 165 526 174 q 546 149 538 157 q 601 137 564 128 q 678 172 638 146 q 767 257 719 199 q 851 390 814 315 l 914 351 q 856 244 890 297 q 774 138 822 192 q 660 51 725 83 q 528 19 596 18 q 410 76 453 22 q 361 213 367 129 q 97 19 236 1 m 381 610 q 208 642 232 581 q 261 761 188 692 q 492 878 347 844 q 663 847 633 908 q 619 729 685 799 q 381 610 535 640 m 389 667 q 483 725 433 671 q 507 803 536 781 q 453 811 493 814 q 346 744 378 803 q 349 676 319 699 q 389 667 363 664 z "},"ลฐ":{"ha":1229,"x_min":-83,"x_max":1292,"o":"m -18 -32 q -76 49 -69 0 q -53 160 -83 99 q 25 291 -24 221 q 131 444 74 361 q 235 610 188 528 q 310 788 282 692 q 331 969 339 883 q 517 933 465 985 q 490 799 518 871 q 420 660 463 726 q 328 528 378 594 q 235 402 278 461 q 166 292 193 343 q 142 200 139 242 q 183 133 144 158 q 324 173 231 103 q 606 422 417 243 q 636 452 625 442 q 665 480 647 463 q 699 511 683 497 q 1056 979 818 768 q 1165 878 1117 967 q 968 715 1053 808 q 841 531 883 621 q 782 358 799 440 q 780 216 765 275 q 832 135 794 157 q 1035 167 908 88 q 1231 388 1161 247 l 1292 347 q 1181 176 1249 251 q 1042 58 1114 100 q 899 -7 971 15 q 767 -25 828 -29 q 669 4 707 -21 q 613 134 621 38 q 643 367 604 231 q 534 257 585 306 q 427 158 483 208 q 323 71 371 107 q 225 5 275 35 q 133 -39 175 -25 q 53 -52 92 -53 q -18 -32 14 -51 m 572 974 q 562 1001 561 979 q 572 1040 563 1022 q 835 1276 749 1150 q 894 1243 875 1281 q 904 1150 914 1206 q 1021 1276 958 1194 q 1087 1237 1067 1282 q 1090 1131 1107 1192 q 758 974 979 1022 q 761 1038 739 988 q 572 974 669 993 z "},"ลฑ":{"ha":850,"x_min":-60,"x_max":914,"o":"m 97 19 q -27 124 6 32 q -22 336 -60 215 q 111 550 17 457 q 199 503 153 542 q 256 435 244 465 q 106 249 147 329 q 113 136 65 169 q 242 183 160 108 q 403 410 325 258 q 461 504 426 460 q 544 468 493 497 q 604 413 594 439 q 583 365 596 393 q 563 322 569 336 q 547 286 556 307 q 534 254 538 265 q 526 228 531 243 q 523 204 522 213 q 525 185 524 196 q 532 165 526 174 q 546 149 538 157 q 601 137 564 128 q 678 172 638 146 q 767 257 719 199 q 851 390 814 315 l 914 351 q 856 244 890 297 q 774 138 822 192 q 660 51 725 83 q 528 19 596 18 q 410 76 453 22 q 361 213 367 129 q 97 19 236 1 m 174 604 q 163 631 163 610 q 174 671 164 653 q 436 907 350 781 q 496 874 476 911 q 506 781 515 836 q 622 907 560 825 q 688 867 668 913 q 692 761 708 822 q 360 604 581 653 q 363 668 340 618 q 174 604 271 624 z "},"ลฒ":{"ha":1229,"x_min":-83,"x_max":1292,"o":"m -18 -32 q -76 49 -69 0 q -53 160 -83 99 q 25 291 -24 221 q 131 444 74 361 q 235 610 188 528 q 310 788 282 692 q 331 969 339 883 q 517 933 465 985 q 490 799 518 871 q 420 660 463 726 q 328 528 378 594 q 235 402 278 461 q 166 292 193 343 q 142 200 139 242 q 183 133 144 158 q 324 173 231 103 q 606 422 417 243 q 636 452 625 442 q 665 480 647 463 q 699 511 683 497 q 1056 979 818 768 q 1165 878 1117 967 q 968 715 1053 808 q 841 531 883 621 q 782 358 799 440 q 780 216 765 275 q 832 135 794 157 q 1035 167 908 88 q 1231 388 1161 247 l 1292 347 q 1092 92 1219 186 q 838 -21 965 -3 q 729 -84 775 -49 q 665 -150 683 -119 q 640 -210 646 -181 q 649 -253 633 -239 q 764 -267 689 -299 q 776 -300 785 -275 q 613 -387 694 -372 q 488 -350 531 -401 q 465 -284 461 -325 q 494 -199 469 -243 q 580 -107 518 -156 q 729 -19 642 -58 q 669 4 696 -12 q 613 134 621 38 q 643 367 604 231 q 534 257 585 306 q 427 158 483 208 q 323 71 371 107 q 225 5 275 35 q 133 -39 175 -25 q 53 -52 92 -53 q -18 -32 14 -51 z "}}}
